{"glyphs":{"0":{"ha":901,"x_min":71,"x_max":829,"o":"m 451 -11 q 256 43 341 -11 q 121 197 170 96 q 71 440 71 298 l 71 553 q 121 799 71 696 q 256 956 170 901 q 451 1010 341 1011 q 647 956 562 1010 q 780 799 732 901 q 829 553 829 697 l 829 440 q 780 197 829 298 q 647 42 732 96 q 451 -11 562 -11 m 451 181 q 537 206 502 181 q 591 281 572 231 q 609 406 609 331 l 609 593 q 591 719 609 669 q 538 794 573 769 q 451 819 503 819 q 366 794 402 819 q 311 719 330 769 q 291 593 291 669 l 291 406 q 311 282 291 332 q 367 207 330 232 q 451 181 403 181 z "},"1":{"ha":604,"x_min":80,"x_max":492,"o":"m 270 0 l 270 802 l 312 739 l 80 636 l 80 842 l 426 1000 l 492 1000 l 492 0 l 270 0 z "},"2":{"ha":812,"x_min":52,"x_max":743,"o":"m 66 0 l 66 47 l 338 395 q 422 500 380 448 q 492 605 464 553 q 520 703 520 656 q 506 762 520 736 q 465 802 491 787 q 403 817 438 817 q 336 799 365 817 q 291 751 307 782 q 275 679 275 720 l 52 679 q 99 851 54 776 q 223 968 144 926 q 406 1010 302 1010 q 577 973 502 1010 q 695 870 652 936 q 738 715 738 804 q 707 577 738 641 q 628 452 677 514 q 522 319 579 389 l 424 197 l 424 191 l 555 194 l 743 194 l 743 0 l 66 0 z "},"3":{"ha":810,"x_min":40,"x_max":746,"o":"m 393 -11 q 214 26 294 -11 q 87 130 134 64 q 40 285 41 197 l 258 286 q 279 223 258 249 q 332 185 300 198 q 399 172 365 172 q 467 190 437 173 q 514 234 497 206 q 530 299 530 262 q 513 363 530 335 q 458 409 495 392 q 363 426 421 426 l 305 426 l 305 592 l 369 592 q 441 608 412 592 q 487 652 471 624 q 503 717 503 681 q 491 776 504 751 q 453 814 477 801 q 395 827 428 827 q 335 815 361 827 q 295 780 309 802 q 280 727 280 758 l 73 727 q 114 873 72 809 q 229 974 155 937 q 398 1010 302 1010 q 567 974 496 1010 q 677 874 638 937 q 715 737 715 812 q 676 602 715 660 q 567 512 636 544 q 408 481 497 480 l 408 541 q 584 511 507 543 q 703 419 660 479 q 746 278 746 359 q 700 131 746 197 q 574 27 654 65 q 393 -11 494 -11 z "},"4":{"ha":866,"x_min":26,"x_max":814,"o":"m 494 0 l 494 555 l 500 733 l 494 733 l 401 588 l 259 381 l 259 378 l 814 378 l 814 197 l 26 197 l 26 322 l 505 1000 l 705 1000 l 705 0 l 494 0 z "},"5":{"ha":810,"x_min":66,"x_max":759,"o":"m 407 -11 q 259 15 328 -11 q 140 84 190 40 q 66 187 90 129 l 269 272 q 301 225 280 246 q 350 193 322 205 q 412 181 378 181 q 485 200 452 181 q 535 251 517 218 q 554 325 554 283 q 534 399 554 368 q 480 448 513 431 q 407 466 447 466 q 332 449 366 466 q 284 412 298 432 l 111 437 l 111 1000 l 676 1000 l 676 806 l 313 806 l 313 515 l 271 584 q 343 623 296 608 q 442 637 390 637 q 600 597 528 637 q 715 485 672 557 q 759 317 759 413 q 712 144 759 218 q 586 30 665 71 q 407 -11 507 -11 z "},"6":{"ha":810,"x_min":47,"x_max":764,"o":"m 413 -11 q 224 35 307 -11 q 94 156 141 81 q 47 321 47 232 q 63 429 47 376 q 101 525 79 482 q 139 593 122 568 l 409 1000 l 650 1000 l 379 595 l 355 608 q 390 628 367 621 q 450 635 413 635 q 604 595 532 635 q 720 483 675 555 q 764 315 764 411 q 718 146 764 219 q 592 31 672 73 q 413 -11 513 -11 m 406 176 q 484 194 450 176 q 537 246 517 213 q 556 320 556 279 q 537 394 556 362 q 484 445 517 427 q 406 464 450 464 q 328 445 362 464 q 274 394 294 427 q 254 320 254 362 q 274 246 254 279 q 328 194 294 213 q 406 176 362 176 z "},"7":{"ha":748,"x_min":26,"x_max":733,"o":"m 106 0 l 450 799 l 450 806 l 26 806 l 26 1000 l 733 1000 l 733 964 l 334 0 l 106 0 z "},"8":{"ha":863,"x_min":64,"x_max":799,"o":"m 432 -11 q 245 28 328 -11 q 113 134 162 67 q 64 283 64 200 q 113 432 64 366 q 245 537 162 498 q 432 576 328 576 q 618 537 536 576 q 750 432 701 498 q 799 283 799 366 q 750 134 799 200 q 618 28 701 67 q 432 -11 536 -11 m 432 166 q 510 183 475 166 q 565 229 545 200 q 585 294 585 258 q 565 361 585 332 q 511 409 545 391 q 433 427 476 427 q 354 409 390 427 q 298 361 319 391 q 278 294 278 332 q 298 229 278 258 q 353 183 319 200 q 432 166 388 166 m 433 446 q 270 484 342 446 q 156 588 198 522 q 113 736 113 654 q 155 876 113 813 q 270 974 197 938 q 432 1010 342 1010 q 594 974 522 1010 q 708 876 666 938 q 750 736 750 813 q 708 588 750 654 q 594 484 666 522 q 433 446 522 446 m 432 594 q 498 610 469 594 q 544 655 527 627 q 562 719 562 684 q 544 779 562 752 q 497 822 527 806 q 431 838 467 838 q 366 822 395 838 q 319 779 336 806 q 302 719 302 752 q 319 655 302 684 q 366 610 337 627 q 432 594 395 594 z "},"9":{"ha":810,"x_min":47,"x_max":764,"o":"m 398 1010 q 587 965 505 1010 q 716 843 669 919 q 764 679 764 768 q 747 570 764 623 q 710 474 731 517 q 671 407 688 431 l 401 0 l 160 0 l 431 404 l 456 391 q 421 372 444 380 q 361 364 398 364 q 207 405 278 364 q 91 517 135 445 q 47 684 47 589 q 93 854 47 781 q 218 969 139 927 q 398 1010 298 1010 m 404 824 q 327 805 361 824 q 274 754 293 787 q 254 679 254 722 q 274 606 254 638 q 327 554 293 573 q 404 536 361 536 q 483 554 448 536 q 536 606 517 573 q 556 679 556 638 q 536 754 556 722 q 483 805 517 787 q 404 824 448 824 z "},"A":{"ha":1002,"x_min":-6,"x_max":1008,"o":"m -6 0 l 408 1000 l 595 1000 l 1008 0 l 773 0 l 674 256 l 656 342 l 504 739 l 498 739 l 347 342 l 329 256 l 230 0 l -6 0 m 227 200 l 227 384 l 776 384 l 776 200 l 227 200 z "},"Á":{"ha":1002,"x_min":-6,"x_max":1008,"o":"m -6 0 l 408 1000 l 595 1000 l 1008 0 l 773 0 l 674 256 l 656 342 l 504 739 l 498 739 l 347 342 l 329 256 l 230 0 l -6 0 m 227 200 l 227 384 l 776 384 l 776 200 l 227 200 m 501 1048 l 413 1137 l 652 1344 l 753 1213 l 501 1048 z "},"Ă":{"ha":1002,"x_min":-6,"x_max":1008,"o":"m -6 0 l 408 1000 l 595 1000 l 1008 0 l 773 0 l 674 256 l 656 342 l 504 739 l 498 739 l 347 342 l 329 256 l 230 0 l -6 0 m 227 200 l 227 384 l 776 384 l 776 200 l 227 200 m 501 1062 q 373 1089 431 1064 q 278 1161 314 1114 q 242 1281 242 1209 l 370 1281 q 411 1202 371 1227 q 501 1177 452 1177 q 594 1202 554 1177 q 633 1281 634 1226 l 762 1281 q 727 1161 763 1209 q 631 1089 690 1114 q 501 1062 571 1064 z "},"Ắ":{"ha":1002,"x_min":-6,"x_max":1008,"o":"m -6 0 l 408 1000 l 595 1000 l 1008 0 l 773 0 l 674 256 l 656 342 l 504 739 l 498 739 l 347 342 l 329 256 l 230 0 l -6 0 m 227 200 l 227 384 l 776 384 l 776 200 l 227 200 m 476 1238 l 400 1335 l 635 1529 l 728 1400 l 476 1238 m 493 1060 q 358 1088 418 1060 q 265 1166 299 1117 q 231 1277 231 1215 l 361 1277 q 398 1201 361 1232 q 493 1171 436 1171 q 586 1201 549 1171 q 623 1277 623 1232 l 751 1277 q 718 1166 751 1215 q 626 1088 684 1117 q 493 1060 568 1060 z "},"Ặ":{"ha":1002,"x_min":-6,"x_max":1008,"o":"m -6 0 l 408 1000 l 595 1000 l 1008 0 l 773 0 l 674 256 l 656 342 l 504 739 l 498 739 l 347 342 l 329 256 l 230 0 l -6 0 m 227 200 l 227 384 l 776 384 l 776 200 l 227 200 m 506 -337 q 413 -299 451 -337 q 375 -207 375 -261 q 413 -114 375 -151 q 506 -76 451 -76 q 598 -114 561 -76 q 636 -207 636 -151 q 598 -299 636 -261 q 506 -337 561 -337 m 501 1062 q 373 1089 431 1064 q 278 1161 314 1114 q 242 1281 242 1209 l 370 1281 q 411 1202 371 1227 q 501 1177 452 1177 q 594 1202 554 1177 q 633 1281 634 1226 l 762 1281 q 727 1161 763 1209 q 631 1089 690 1114 q 501 1062 571 1064 z "},"Ằ":{"ha":1002,"x_min":-6,"x_max":1008,"o":"m -6 0 l 408 1000 l 595 1000 l 1008 0 l 773 0 l 674 256 l 656 342 l 504 739 l 498 739 l 347 342 l 329 256 l 230 0 l -6 0 m 227 200 l 227 384 l 776 384 l 776 200 l 227 200 m 518 1238 l 267 1400 l 359 1529 l 594 1335 l 518 1238 m 501 1060 q 369 1088 427 1060 q 276 1166 310 1117 q 242 1277 242 1215 l 372 1277 q 409 1201 372 1232 q 501 1171 446 1171 q 596 1201 559 1171 q 633 1277 633 1232 l 763 1277 q 729 1166 763 1215 q 636 1088 695 1117 q 501 1060 577 1060 z "},"Ẳ":{"ha":1002,"x_min":-6,"x_max":1008,"o":"m -6 0 l 408 1000 l 595 1000 l 1008 0 l 773 0 l 674 256 l 656 342 l 504 739 l 498 739 l 347 342 l 329 256 l 230 0 l -6 0 m 227 200 l 227 384 l 776 384 l 776 200 l 227 200 m 501 1060 q 369 1088 427 1060 q 276 1166 310 1117 q 242 1277 242 1215 l 372 1277 q 409 1201 372 1232 q 501 1171 446 1171 q 596 1201 559 1171 q 633 1277 633 1232 l 763 1277 q 729 1166 763 1215 q 636 1088 695 1117 q 501 1060 577 1060 m 500 1219 l 425 1293 q 460 1324 444 1305 q 477 1361 477 1342 q 457 1390 477 1381 q 406 1400 438 1400 q 372 1397 391 1400 q 337 1387 354 1394 l 337 1511 q 381 1523 351 1519 q 436 1527 411 1527 q 560 1492 514 1527 q 606 1390 606 1457 q 573 1283 606 1329 q 500 1219 540 1238 z "},"Ẵ":{"ha":1002,"x_min":-6,"x_max":1008,"o":"m -6 0 l 408 1000 l 595 1000 l 1008 0 l 773 0 l 674 256 l 656 342 l 504 739 l 498 739 l 347 342 l 329 256 l 230 0 l -6 0 m 227 200 l 227 384 l 776 384 l 776 200 l 227 200 m 241 1322 q 284 1470 241 1413 q 404 1527 327 1527 q 468 1516 442 1527 q 512 1489 493 1504 q 546 1461 530 1473 q 582 1450 562 1450 q 621 1471 608 1450 q 632 1527 633 1492 l 762 1527 q 743 1424 763 1470 q 687 1350 724 1377 q 598 1322 650 1322 q 535 1334 560 1322 q 491 1361 510 1345 q 456 1389 473 1377 q 419 1400 439 1400 q 382 1381 395 1400 q 370 1322 370 1361 l 241 1322 m 500 1060 q 368 1088 427 1060 q 275 1166 309 1117 q 241 1277 241 1215 l 371 1277 q 408 1201 371 1232 q 500 1171 445 1171 q 595 1201 558 1171 q 633 1277 633 1232 l 762 1277 q 728 1166 762 1215 q 635 1088 694 1117 q 500 1060 576 1060 z "},"Ǎ":{"ha":1002,"x_min":-6,"x_max":1008,"o":"m -6 0 l 408 1000 l 595 1000 l 1008 0 l 773 0 l 674 256 l 656 342 l 504 739 l 498 739 l 347 342 l 329 256 l 230 0 l -6 0 m 227 200 l 227 384 l 776 384 l 776 200 l 227 200 m 332 1314 l 498 1188 l 502 1188 l 673 1314 l 765 1215 l 522 1047 l 480 1047 l 236 1215 l 332 1314 z "},"Â":{"ha":1002,"x_min":-6,"x_max":1008,"o":"m -6 0 l 408 1000 l 595 1000 l 1008 0 l 773 0 l 674 256 l 656 342 l 504 739 l 498 739 l 347 342 l 329 256 l 230 0 l -6 0 m 227 200 l 227 384 l 776 384 l 776 200 l 227 200 m 332 1050 l 237 1149 l 481 1317 l 522 1317 l 766 1149 l 673 1050 l 503 1177 l 499 1177 l 332 1050 z "},"Ấ":{"ha":1002,"x_min":-6,"x_max":1008,"o":"m -6 0 l 408 1000 l 595 1000 l 1008 0 l 773 0 l 674 256 l 656 342 l 504 739 l 498 739 l 347 342 l 329 256 l 230 0 l -6 0 m 227 200 l 227 384 l 776 384 l 776 200 l 227 200 m 722 1235 l 628 1301 l 851 1527 l 952 1393 l 722 1235 m 331 1040 l 235 1137 l 479 1304 l 521 1304 l 764 1137 l 672 1040 l 501 1166 l 498 1166 l 331 1040 z "},"Ậ":{"ha":1002,"x_min":-6,"x_max":1008,"o":"m -6 0 l 408 1000 l 595 1000 l 1008 0 l 773 0 l 674 256 l 656 342 l 504 739 l 498 739 l 347 342 l 329 256 l 230 0 l -6 0 m 227 200 l 227 384 l 776 384 l 776 200 l 227 200 m 506 -337 q 413 -299 451 -337 q 375 -207 375 -261 q 413 -114 375 -151 q 506 -76 451 -76 q 598 -114 561 -76 q 636 -207 636 -151 q 598 -299 636 -261 q 506 -337 561 -337 m 332 1050 l 237 1149 l 481 1317 l 522 1317 l 766 1149 l 673 1050 l 503 1177 l 499 1177 l 332 1050 z "},"Ầ":{"ha":1002,"x_min":-6,"x_max":1008,"o":"m -6 0 l 408 1000 l 595 1000 l 1008 0 l 773 0 l 674 256 l 656 342 l 504 739 l 498 739 l 347 342 l 329 256 l 230 0 l -6 0 m 227 200 l 227 384 l 776 384 l 776 200 l 227 200 m 281 1235 l 50 1393 l 151 1527 l 374 1301 l 281 1235 m 671 1040 l 505 1166 l 501 1166 l 330 1040 l 238 1137 l 481 1304 l 524 1304 l 767 1137 l 671 1040 z "},"Ẩ":{"ha":1002,"x_min":-6,"x_max":1008,"o":"m -6 0 l 408 1000 l 595 1000 l 1008 0 l 773 0 l 674 256 l 656 342 l 504 739 l 498 739 l 347 342 l 329 256 l 230 0 l -6 0 m 227 200 l 227 384 l 776 384 l 776 200 l 227 200 m 711 1236 l 635 1293 q 670 1325 657 1309 q 684 1358 684 1341 q 667 1389 684 1378 q 614 1400 650 1400 q 581 1397 597 1400 q 543 1388 564 1394 l 543 1513 q 589 1524 559 1520 q 645 1527 620 1527 q 766 1493 720 1527 q 812 1388 812 1460 q 795 1323 812 1352 q 756 1271 779 1293 q 711 1236 732 1249 m 332 1040 l 237 1137 l 481 1304 l 522 1304 l 766 1137 l 673 1040 l 503 1166 l 499 1166 l 332 1040 z "},"Ẫ":{"ha":1002,"x_min":-6,"x_max":1008,"o":"m -6 0 l 408 1000 l 595 1000 l 1008 0 l 773 0 l 674 256 l 656 342 l 504 739 l 498 739 l 347 342 l 329 256 l 230 0 l -6 0 m 227 200 l 227 384 l 776 384 l 776 200 l 227 200 m 241 1322 q 283 1470 240 1413 q 404 1527 327 1527 q 467 1516 442 1527 q 511 1489 492 1504 q 545 1461 529 1473 q 582 1450 562 1450 q 619 1471 606 1450 q 632 1527 632 1492 l 762 1527 q 747 1424 763 1470 q 698 1350 732 1377 q 614 1322 665 1322 q 550 1334 576 1322 q 506 1361 524 1345 q 472 1389 488 1377 q 437 1400 456 1400 q 390 1381 410 1400 q 370 1322 371 1361 l 241 1322 m 332 1040 l 236 1137 l 480 1304 l 522 1304 l 765 1137 l 673 1040 l 502 1166 l 498 1166 l 332 1040 z "},"Ȁ":{"ha":1002,"x_min":-6,"x_max":1008,"o":"m -6 0 l 408 1000 l 595 1000 l 1008 0 l 773 0 l 674 256 l 656 342 l 504 739 l 498 739 l 347 342 l 329 256 l 230 0 l -6 0 m 227 200 l 227 384 l 776 384 l 776 200 l 227 200 m 319 1060 l 142 1278 l 283 1357 l 427 1112 l 319 1060 m 587 1060 l 414 1278 l 555 1357 l 695 1112 l 587 1060 z "},"Ä":{"ha":1002,"x_min":-6,"x_max":1008,"o":"m -6 0 l 408 1000 l 595 1000 l 1008 0 l 773 0 l 674 256 l 656 342 l 504 739 l 498 739 l 347 342 l 329 256 l 230 0 l -6 0 m 227 200 l 227 384 l 776 384 l 776 200 l 227 200 m 671 1050 q 586 1085 621 1050 q 551 1168 551 1119 q 586 1254 551 1219 q 671 1289 621 1289 q 753 1254 720 1289 q 787 1168 787 1219 q 753 1085 787 1119 q 671 1050 720 1050 m 337 1050 q 253 1085 288 1050 q 218 1168 218 1119 q 253 1254 218 1219 q 337 1289 288 1289 q 421 1254 387 1289 q 455 1168 455 1219 q 421 1085 455 1119 q 337 1050 387 1050 z "},"Ȧ":{"ha":1002,"x_min":-6,"x_max":1008,"o":"m -6 0 l 408 1000 l 595 1000 l 1008 0 l 773 0 l 674 256 l 656 342 l 504 739 l 498 739 l 347 342 l 329 256 l 230 0 l -6 0 m 227 200 l 227 384 l 776 384 l 776 200 l 227 200 m 506 1060 q 413 1098 451 1060 q 375 1190 375 1136 q 413 1283 375 1246 q 506 1321 451 1321 q 598 1283 561 1321 q 636 1190 636 1246 q 598 1098 636 1136 q 506 1060 561 1060 z "},"Ạ":{"ha":1002,"x_min":-6,"x_max":1008,"o":"m -6 0 l 408 1000 l 595 1000 l 1008 0 l 773 0 l 674 256 l 656 342 l 504 739 l 498 739 l 347 342 l 329 256 l 230 0 l -6 0 m 227 200 l 227 384 l 776 384 l 776 200 l 227 200 m 506 -337 q 413 -299 451 -337 q 375 -207 375 -261 q 413 -114 375 -151 q 506 -76 451 -76 q 598 -114 561 -76 q 636 -207 636 -151 q 598 -299 636 -261 q 506 -337 561 -337 z "},"À":{"ha":1002,"x_min":-6,"x_max":1008,"o":"m -6 0 l 408 1000 l 595 1000 l 1008 0 l 773 0 l 674 256 l 656 342 l 504 739 l 498 739 l 347 342 l 329 256 l 230 0 l -6 0 m 227 200 l 227 384 l 776 384 l 776 200 l 227 200 m 501 1048 l 250 1213 l 351 1344 l 589 1137 l 501 1048 z "},"Ả":{"ha":1002,"x_min":-6,"x_max":1008,"o":"m -6 0 l 408 1000 l 595 1000 l 1008 0 l 773 0 l 674 256 l 656 342 l 504 739 l 498 739 l 347 342 l 329 256 l 230 0 l -6 0 m 227 200 l 227 384 l 776 384 l 776 200 l 227 200 m 526 1052 l 450 1126 q 486 1156 469 1138 q 502 1194 502 1175 q 483 1223 502 1213 q 431 1232 463 1232 q 397 1230 415 1232 q 361 1220 379 1227 l 361 1344 q 406 1356 376 1352 q 461 1360 436 1360 q 585 1324 539 1360 q 631 1222 631 1289 q 598 1116 631 1162 q 526 1052 565 1070 z "},"Ȃ":{"ha":1002,"x_min":-6,"x_max":1008,"o":"m -6 0 l 408 1000 l 595 1000 l 1008 0 l 773 0 l 674 256 l 656 342 l 504 739 l 498 739 l 347 342 l 329 256 l 230 0 l -6 0 m 227 200 l 227 384 l 776 384 l 776 200 l 227 200 m 501 1284 q 631 1257 571 1282 q 726 1184 690 1232 q 762 1065 762 1136 l 632 1065 q 594 1144 634 1120 q 501 1168 553 1168 q 411 1144 451 1168 q 370 1065 370 1119 l 242 1065 q 278 1184 242 1136 q 373 1257 314 1232 q 501 1284 431 1282 z "},"Ā":{"ha":1002,"x_min":-6,"x_max":1008,"o":"m -6 0 l 408 1000 l 595 1000 l 1008 0 l 773 0 l 674 256 l 656 342 l 504 739 l 498 739 l 347 342 l 329 256 l 230 0 l -6 0 m 227 200 l 227 384 l 776 384 l 776 200 l 227 200 m 230 1098 l 230 1239 l 772 1239 l 772 1098 l 230 1098 z "},"Ą":{"ha":1002,"x_min":-6,"x_max":1011,"o":"m -6 0 l 408 1000 l 595 1000 l 1008 0 l 773 0 l 674 256 l 656 342 l 504 739 l 498 739 l 347 342 l 329 256 l 230 0 l -6 0 m 227 200 l 227 384 l 776 384 l 776 200 l 227 200 m 900 -293 q 788 -255 831 -293 q 745 -155 745 -218 q 787 -53 745 -97 q 897 34 828 -9 l 1007 0 q 943 -43 972 -22 q 895 -86 913 -64 q 876 -130 876 -107 q 892 -162 876 -151 q 937 -173 907 -173 q 979 -168 957 -173 q 1011 -157 1000 -163 l 1011 -275 q 958 -288 991 -283 q 900 -293 924 -293 z "},"Å":{"ha":1002,"x_min":-6,"x_max":1008,"o":"m -6 0 l 408 1000 l 595 1000 l 1008 0 l 773 0 l 674 256 l 656 342 l 504 739 l 498 739 l 347 342 l 329 256 l 230 0 l -6 0 m 227 200 l 227 384 l 776 384 l 776 200 l 227 200 m 501 1044 q 405 1069 448 1044 q 336 1135 361 1093 q 311 1228 311 1177 q 336 1324 311 1282 q 405 1390 361 1366 q 501 1415 448 1415 q 600 1390 556 1415 q 667 1324 643 1366 q 692 1228 692 1282 q 667 1135 692 1177 q 600 1069 643 1093 q 501 1044 556 1044 m 501 1158 q 552 1178 532 1158 q 572 1228 572 1198 q 552 1279 572 1259 q 501 1299 532 1299 q 451 1279 471 1299 q 431 1228 431 1259 q 451 1178 431 1198 q 501 1158 471 1158 z "},"Ǻ":{"ha":1002,"x_min":-6,"x_max":1008,"o":"m -6 0 l 408 1000 l 595 1000 l 1008 0 l 773 0 l 674 256 l 656 342 l 504 739 l 498 739 l 347 342 l 329 256 l 230 0 l -6 0 m 227 200 l 227 384 l 776 384 l 776 200 l 227 200 m 498 1040 q 377 1086 426 1040 q 328 1200 328 1133 q 377 1314 328 1269 q 498 1360 426 1360 q 620 1314 571 1360 q 668 1200 668 1269 q 620 1086 668 1133 q 498 1040 571 1040 m 498 1135 q 544 1155 526 1135 q 562 1201 562 1174 q 544 1247 562 1229 q 498 1265 527 1265 q 453 1247 471 1265 q 434 1200 434 1230 q 453 1155 434 1174 q 498 1135 471 1135 m 522 1394 l 434 1483 l 673 1690 l 773 1559 l 522 1394 z "},"Ã":{"ha":1002,"x_min":-6,"x_max":1008,"o":"m -6 0 l 408 1000 l 595 1000 l 1008 0 l 773 0 l 674 256 l 656 342 l 504 739 l 498 739 l 347 342 l 329 256 l 230 0 l -6 0 m 227 200 l 227 384 l 776 384 l 776 200 l 227 200 m 241 1067 q 283 1215 241 1156 q 402 1271 326 1274 q 468 1261 442 1272 q 512 1234 494 1250 q 546 1207 530 1219 q 581 1195 562 1195 q 621 1217 608 1195 q 633 1271 633 1238 l 761 1271 q 720 1127 762 1185 q 597 1067 677 1069 q 534 1080 559 1068 q 490 1108 509 1093 q 455 1135 471 1124 q 418 1146 438 1147 q 382 1126 393 1147 q 370 1067 370 1105 l 241 1067 z "},"Æ":{"ha":1236,"x_min":-7,"x_max":1175,"o":"m -7 0 l 469 1000 l 598 1000 l 608 806 l 581 806 l 371 328 l 224 0 l -7 0 m 262 200 l 262 384 l 736 384 l 736 200 l 262 200 m 637 0 l 619 310 l 585 1000 l 1175 1000 l 1175 802 l 787 802 l 827 198 l 1175 198 l 1175 0 l 637 0 m 797 410 l 784 602 l 1117 602 l 1117 410 l 797 410 z "},"Ǽ":{"ha":1236,"x_min":-7,"x_max":1175,"o":"m -7 0 l 469 1000 l 598 1000 l 608 806 l 581 806 l 371 328 l 224 0 l -7 0 m 262 200 l 262 384 l 736 384 l 736 200 l 262 200 m 637 0 l 619 310 l 585 1000 l 1175 1000 l 1175 802 l 787 802 l 827 198 l 1175 198 l 1175 0 l 637 0 m 797 410 l 784 602 l 1117 602 l 1117 410 l 797 410 m 761 1048 l 673 1137 l 912 1344 l 1013 1213 l 761 1048 z "},"B":{"ha":883,"x_min":91,"x_max":844,"o":"m 295 0 l 295 194 l 500 194 q 589 225 555 194 q 624 312 624 257 q 587 393 624 364 q 490 422 549 422 l 292 422 l 292 589 l 440 589 q 500 604 475 589 q 538 644 525 618 q 551 701 551 669 q 517 780 551 755 q 426 806 482 806 l 292 806 l 292 1000 l 425 1000 q 609 966 532 1000 q 726 876 686 933 q 766 745 766 818 q 741 635 766 687 q 677 545 717 583 q 589 490 637 507 l 595 545 q 718 504 661 534 q 809 422 774 474 q 844 291 844 370 q 801 139 844 204 q 683 37 758 73 q 511 0 608 0 l 295 0 m 91 0 l 91 1000 l 313 1000 l 313 0 l 91 0 z "},"C":{"ha":905,"x_min":31,"x_max":873,"o":"m 574 -11 q 363 28 462 -11 q 190 136 264 66 q 73 298 115 205 q 31 502 31 391 q 73 705 31 612 q 189 866 115 798 q 360 972 262 935 q 567 1010 457 1010 q 723 990 644 1010 q 870 928 802 970 l 786 730 q 692 786 750 765 q 570 808 635 808 q 450 786 507 808 q 348 724 393 764 q 278 627 304 683 q 252 502 252 571 q 278 378 252 435 q 348 280 303 321 q 451 215 392 238 q 576 192 509 192 q 653 200 613 192 q 728 224 692 208 q 789 267 764 241 l 873 70 q 728 9 806 29 q 574 -11 649 -11 z "},"Ć":{"ha":905,"x_min":31,"x_max":873,"o":"m 574 -11 q 363 28 462 -11 q 190 136 264 66 q 73 298 115 205 q 31 502 31 391 q 73 705 31 612 q 189 866 115 798 q 360 972 262 935 q 567 1010 457 1010 q 723 990 644 1010 q 870 928 802 970 l 786 730 q 692 786 750 765 q 570 808 635 808 q 450 786 507 808 q 348 724 393 764 q 278 627 304 683 q 252 502 252 571 q 278 378 252 435 q 348 280 303 321 q 451 215 392 238 q 576 192 509 192 q 653 200 613 192 q 728 224 692 208 q 789 267 764 241 l 873 70 q 728 9 806 29 q 574 -11 649 -11 m 549 1048 l 460 1137 l 700 1344 l 800 1213 l 549 1048 z "},"Č":{"ha":905,"x_min":31,"x_max":873,"o":"m 574 -11 q 363 28 462 -11 q 190 136 264 66 q 73 298 115 205 q 31 502 31 391 q 73 705 31 612 q 189 866 115 798 q 360 972 262 935 q 567 1010 457 1010 q 723 990 644 1010 q 870 928 802 970 l 786 730 q 692 786 750 765 q 570 808 635 808 q 450 786 507 808 q 348 724 393 764 q 278 627 304 683 q 252 502 252 571 q 278 378 252 435 q 348 280 303 321 q 451 215 392 238 q 576 192 509 192 q 653 200 613 192 q 728 224 692 208 q 789 267 764 241 l 873 70 q 728 9 806 29 q 574 -11 649 -11 m 379 1314 l 546 1188 l 549 1188 l 720 1314 l 812 1215 l 569 1047 l 528 1047 l 283 1215 l 379 1314 z "},"Ç":{"ha":905,"x_min":31,"x_max":873,"o":"m 574 -11 q 363 28 462 -11 q 190 136 264 66 q 73 298 115 205 q 31 502 31 391 q 73 705 31 612 q 189 866 115 798 q 360 972 262 935 q 567 1010 457 1010 q 723 990 644 1010 q 870 928 802 970 l 786 730 q 692 786 750 765 q 570 808 635 808 q 450 786 507 808 q 348 724 393 764 q 278 627 304 683 q 252 502 252 571 q 278 378 252 435 q 348 280 303 321 q 451 215 392 238 q 576 192 509 192 q 653 200 613 192 q 728 224 692 208 q 789 267 764 241 l 873 70 q 728 9 806 29 q 574 -11 649 -11 m 439 -347 l 439 -243 q 547 -229 514 -245 q 580 -187 580 -213 q 553 -153 580 -168 q 477 -136 527 -139 l 522 0 l 614 0 l 574 -111 l 565 -64 q 667 -108 629 -75 q 706 -197 706 -142 q 643 -307 706 -264 q 439 -347 579 -349 z "},"Ḉ":{"ha":905,"x_min":31,"x_max":873,"o":"m 574 -11 q 363 28 462 -11 q 190 136 264 66 q 73 298 115 205 q 31 502 31 391 q 73 705 31 612 q 189 866 115 798 q 360 972 262 935 q 567 1010 457 1010 q 723 990 644 1010 q 870 928 802 970 l 786 730 q 692 786 750 765 q 570 808 635 808 q 450 786 507 808 q 348 724 393 764 q 278 627 304 683 q 252 502 252 571 q 278 378 252 435 q 348 280 303 321 q 451 215 392 238 q 576 192 509 192 q 653 200 613 192 q 728 224 692 208 q 789 267 764 241 l 873 70 q 728 9 806 29 q 574 -11 649 -11 m 439 -347 l 439 -243 q 547 -229 514 -245 q 580 -187 580 -213 q 553 -153 580 -168 q 477 -136 527 -139 l 522 0 l 614 0 l 574 -111 l 565 -64 q 667 -108 629 -75 q 706 -197 706 -142 q 643 -307 706 -264 q 439 -347 579 -349 m 549 1048 l 460 1137 l 700 1344 l 800 1213 l 549 1048 z "},"Ĉ":{"ha":905,"x_min":31,"x_max":873,"o":"m 574 -11 q 363 28 462 -11 q 190 136 264 66 q 73 298 115 205 q 31 502 31 391 q 73 705 31 612 q 189 866 115 798 q 360 972 262 935 q 567 1010 457 1010 q 723 990 644 1010 q 870 928 802 970 l 786 730 q 692 786 750 765 q 570 808 635 808 q 450 786 507 808 q 348 724 393 764 q 278 627 304 683 q 252 502 252 571 q 278 378 252 435 q 348 280 303 321 q 451 215 392 238 q 576 192 509 192 q 653 200 613 192 q 728 224 692 208 q 789 267 764 241 l 873 70 q 728 9 806 29 q 574 -11 649 -11 m 380 1050 l 284 1149 l 528 1317 l 570 1317 l 813 1149 l 721 1050 l 550 1177 l 547 1177 l 380 1050 z "},"Ċ":{"ha":905,"x_min":31,"x_max":873,"o":"m 574 -11 q 363 28 462 -11 q 190 136 264 66 q 73 298 115 205 q 31 502 31 391 q 73 705 31 612 q 189 866 115 798 q 360 972 262 935 q 567 1010 457 1010 q 723 990 644 1010 q 870 928 802 970 l 786 730 q 692 786 750 765 q 570 808 635 808 q 450 786 507 808 q 348 724 393 764 q 278 627 304 683 q 252 502 252 571 q 278 378 252 435 q 348 280 303 321 q 451 215 392 238 q 576 192 509 192 q 653 200 613 192 q 728 224 692 208 q 789 267 764 241 l 873 70 q 728 9 806 29 q 574 -11 649 -11 m 553 1060 q 460 1098 498 1060 q 422 1190 422 1136 q 460 1283 422 1246 q 553 1321 498 1321 q 646 1283 608 1321 q 684 1190 684 1246 q 646 1098 684 1136 q 553 1060 608 1060 z "},"D":{"ha":969,"x_min":91,"x_max":939,"o":"m 91 0 l 91 1000 l 433 1000 q 621 969 530 1000 q 783 878 711 939 q 897 725 855 817 q 939 507 939 632 q 897 285 939 380 q 785 126 855 190 q 629 32 715 63 q 451 0 542 0 l 91 0 m 313 198 l 457 198 q 542 215 497 198 q 627 269 587 232 q 692 365 667 306 q 717 507 717 423 q 692 646 717 589 q 627 736 667 702 q 542 786 587 770 q 457 802 497 802 l 313 802 l 313 198 z "},"Ǆ":{"ha":1775,"x_min":91,"x_max":1733,"o":"m 91 0 l 91 1000 l 433 1000 q 621 969 530 1000 q 783 878 711 939 q 897 725 855 817 q 939 507 939 632 q 897 285 939 380 q 785 126 855 190 q 629 32 715 63 q 451 0 542 0 l 91 0 m 313 198 l 457 198 q 542 215 497 198 q 627 269 587 232 q 692 365 667 306 q 717 507 717 423 q 692 646 717 589 q 627 736 667 702 q 542 786 587 770 q 457 802 497 802 l 313 802 l 313 198 m 978 0 l 978 33 l 1397 801 l 1397 804 l 999 804 l 999 1000 l 1723 1000 l 1723 966 l 1305 199 l 1305 196 l 1733 196 l 1733 0 l 978 0 m 1187 1314 l 1354 1188 l 1358 1188 l 1529 1314 l 1621 1215 l 1377 1047 l 1335 1047 l 1092 1215 l 1187 1314 z "},"Ď":{"ha":969,"x_min":91,"x_max":939,"o":"m 91 0 l 91 1000 l 433 1000 q 621 969 530 1000 q 783 878 711 939 q 897 725 855 817 q 939 507 939 632 q 897 285 939 380 q 785 126 855 190 q 629 32 715 63 q 451 0 542 0 l 91 0 m 313 198 l 457 198 q 542 215 497 198 q 627 269 587 232 q 692 365 667 306 q 717 507 717 423 q 692 646 717 589 q 627 736 667 702 q 542 786 587 770 q 457 802 497 802 l 313 802 l 313 198 m 296 1314 l 463 1188 l 467 1188 l 637 1314 l 730 1215 l 487 1047 l 445 1047 l 201 1215 l 296 1314 z "},"Đ":{"ha":999,"x_min":22,"x_max":968,"o":"m 121 0 l 121 1000 l 463 1000 q 651 969 560 1000 q 813 878 741 939 q 927 725 885 817 q 969 507 969 632 q 927 285 969 380 q 815 126 885 190 q 659 32 745 63 q 481 0 572 0 l 121 0 m 343 198 l 487 198 q 572 215 527 198 q 657 269 617 232 q 722 365 697 306 q 747 507 747 423 q 722 646 747 589 q 657 736 697 702 q 572 786 617 770 q 487 802 527 802 l 343 802 l 343 198 m 22 446 l 22 560 l 467 560 l 467 446 l 22 446 z "},"Ḍ":{"ha":969,"x_min":91,"x_max":939,"o":"m 91 0 l 91 1000 l 433 1000 q 621 969 530 1000 q 783 878 711 939 q 897 725 855 817 q 939 507 939 632 q 897 285 939 380 q 785 126 855 190 q 629 32 715 63 q 451 0 542 0 l 91 0 m 313 198 l 457 198 q 542 215 497 198 q 627 269 587 232 q 692 365 667 306 q 717 507 717 423 q 692 646 717 589 q 627 736 667 702 q 542 786 587 770 q 457 802 497 802 l 313 802 l 313 198 m 465 -337 q 372 -299 410 -337 q 334 -207 334 -261 q 372 -114 334 -151 q 465 -76 410 -76 q 557 -114 519 -76 q 595 -207 595 -151 q 557 -299 595 -261 q 465 -337 519 -337 z "},"Ḏ":{"ha":969,"x_min":91,"x_max":939,"o":"m 91 0 l 91 1000 l 433 1000 q 621 969 530 1000 q 783 878 711 939 q 897 725 855 817 q 939 507 939 632 q 897 285 939 380 q 785 126 855 190 q 629 32 715 63 q 451 0 542 0 l 91 0 m 313 198 l 457 198 q 542 215 497 198 q 627 269 587 232 q 692 365 667 306 q 717 507 717 423 q 692 646 717 589 q 627 736 667 702 q 542 786 587 770 q 457 802 497 802 l 313 802 l 313 198 m 183 -285 l 183 -155 l 744 -155 l 744 -285 l 183 -285 z "},"ǅ":{"ha":1622,"x_min":91,"x_max":1590,"o":"m 91 0 l 91 1000 l 433 1000 q 621 969 530 1000 q 783 878 711 939 q 897 725 855 817 q 939 507 939 632 q 897 285 939 380 q 785 126 855 190 q 629 32 715 63 q 451 0 542 0 l 91 0 m 313 198 l 457 198 q 542 215 497 198 q 627 269 587 232 q 692 365 667 306 q 717 507 717 423 q 692 646 717 589 q 627 736 667 702 q 542 786 587 770 q 457 802 497 802 l 313 802 l 313 198 m 971 0 l 971 43 l 1280 540 l 1280 545 l 995 545 l 995 730 l 1590 730 l 1590 684 l 1280 190 l 1280 184 l 1590 184 l 1590 0 l 971 0 m 1112 1095 l 1293 937 l 1298 937 l 1478 1095 l 1560 995 l 1316 787 l 1274 787 l 1031 995 l 1112 1095 z "},"Ð":{"ha":999,"x_min":22,"x_max":968,"o":"m 121 0 l 121 1000 l 463 1000 q 651 969 560 1000 q 813 878 741 939 q 927 725 885 817 q 969 507 969 632 q 927 285 969 380 q 815 126 885 190 q 659 32 745 63 q 481 0 572 0 l 121 0 m 343 198 l 487 198 q 572 215 527 198 q 657 269 617 232 q 722 365 697 306 q 747 507 747 423 q 722 646 747 589 q 657 736 697 702 q 572 786 617 770 q 487 802 527 802 l 343 802 l 343 198 m 22 446 l 22 560 l 467 560 l 467 446 l 22 446 z "},"E":{"ha":737,"x_min":91,"x_max":676,"o":"m 91 0 l 91 1000 l 676 1000 l 676 802 l 313 802 l 313 602 l 614 602 l 614 410 l 313 410 l 313 198 l 676 198 l 676 0 l 91 0 z "},"É":{"ha":737,"x_min":91,"x_max":676,"o":"m 91 0 l 91 1000 l 676 1000 l 676 802 l 313 802 l 313 602 l 614 602 l 614 410 l 313 410 l 313 198 l 676 198 l 676 0 l 91 0 m 391 1048 l 302 1137 l 542 1344 l 642 1213 l 391 1048 z "},"Ĕ":{"ha":737,"x_min":91,"x_max":676,"o":"m 91 0 l 91 1000 l 676 1000 l 676 802 l 313 802 l 313 602 l 614 602 l 614 410 l 313 410 l 313 198 l 676 198 l 676 0 l 91 0 m 391 1062 q 262 1089 321 1064 q 168 1161 203 1114 q 132 1281 132 1209 l 259 1281 q 301 1202 260 1227 q 391 1177 341 1177 q 484 1202 444 1177 q 522 1281 524 1226 l 651 1281 q 616 1161 652 1209 q 520 1089 580 1114 q 391 1062 460 1064 z "},"Ě":{"ha":737,"x_min":91,"x_max":676,"o":"m 91 0 l 91 1000 l 676 1000 l 676 802 l 313 802 l 313 602 l 614 602 l 614 410 l 313 410 l 313 198 l 676 198 l 676 0 l 91 0 m 221 1314 l 388 1188 l 391 1188 l 563 1314 l 655 1215 l 412 1047 l 370 1047 l 126 1215 l 221 1314 z "},"Ḝ":{"ha":737,"x_min":91,"x_max":676,"o":"m 91 0 l 91 1000 l 676 1000 l 676 802 l 313 802 l 313 602 l 614 602 l 614 410 l 313 410 l 313 198 l 676 198 l 676 0 l 91 0 m 262 -347 l 262 -243 q 370 -229 337 -245 q 403 -187 403 -213 q 376 -153 403 -168 q 300 -136 350 -139 l 345 0 l 437 0 l 397 -111 l 388 -64 q 490 -108 452 -75 q 529 -197 529 -142 q 466 -307 529 -264 q 262 -347 402 -349 m 391 1062 q 262 1089 321 1064 q 168 1161 203 1114 q 132 1281 132 1209 l 259 1281 q 301 1202 260 1227 q 391 1177 341 1177 q 484 1202 444 1177 q 522 1281 524 1226 l 651 1281 q 616 1161 652 1209 q 520 1089 580 1114 q 391 1062 460 1064 z "},"Ê":{"ha":737,"x_min":91,"x_max":676,"o":"m 91 0 l 91 1000 l 676 1000 l 676 802 l 313 802 l 313 602 l 614 602 l 614 410 l 313 410 l 313 198 l 676 198 l 676 0 l 91 0 m 222 1050 l 126 1149 l 370 1317 l 412 1317 l 655 1149 l 563 1050 l 392 1177 l 389 1177 l 222 1050 z "},"Ế":{"ha":737,"x_min":91,"x_max":842,"o":"m 91 0 l 91 1000 l 676 1000 l 676 802 l 313 802 l 313 602 l 614 602 l 614 410 l 313 410 l 313 198 l 676 198 l 676 0 l 91 0 m 611 1235 l 517 1301 l 741 1527 l 842 1393 l 611 1235 m 220 1040 l 125 1137 l 369 1304 l 410 1304 l 654 1137 l 562 1040 l 391 1166 l 387 1166 l 220 1040 z "},"Ệ":{"ha":737,"x_min":91,"x_max":676,"o":"m 91 0 l 91 1000 l 676 1000 l 676 802 l 313 802 l 313 602 l 614 602 l 614 410 l 313 410 l 313 198 l 676 198 l 676 0 l 91 0 m 399 -337 q 307 -299 345 -337 q 269 -207 269 -261 q 307 -114 269 -151 q 399 -76 345 -76 q 492 -114 454 -76 q 530 -207 530 -151 q 492 -299 530 -261 q 399 -337 454 -337 m 226 1050 l 130 1149 l 374 1317 l 416 1317 l 659 1149 l 567 1050 l 396 1177 l 393 1177 l 226 1050 z "},"Ề":{"ha":737,"x_min":-60,"x_max":676,"o":"m 91 0 l 91 1000 l 676 1000 l 676 802 l 313 802 l 313 602 l 614 602 l 614 410 l 313 410 l 313 198 l 676 198 l 676 0 l 91 0 m 171 1235 l -60 1393 l 41 1527 l 264 1301 l 171 1235 m 562 1040 l 395 1166 l 391 1166 l 220 1040 l 127 1137 l 371 1304 l 413 1304 l 656 1137 l 562 1040 z "},"Ể":{"ha":737,"x_min":91,"x_max":701,"o":"m 91 0 l 91 1000 l 676 1000 l 676 802 l 313 802 l 313 602 l 614 602 l 614 410 l 313 410 l 313 198 l 676 198 l 676 0 l 91 0 m 601 1236 l 525 1293 q 560 1325 547 1309 q 573 1358 573 1341 q 556 1389 573 1378 q 504 1400 540 1400 q 470 1397 487 1400 q 433 1388 453 1394 l 433 1513 q 479 1524 448 1520 q 534 1527 509 1527 q 655 1493 610 1527 q 701 1388 701 1460 q 685 1323 701 1352 q 645 1271 669 1293 q 601 1236 622 1249 m 222 1040 l 126 1137 l 370 1304 l 412 1304 l 655 1137 l 563 1040 l 392 1166 l 389 1166 l 222 1040 z "},"Ễ":{"ha":737,"x_min":91,"x_max":676,"o":"m 91 0 l 91 1000 l 676 1000 l 676 802 l 313 802 l 313 602 l 614 602 l 614 410 l 313 410 l 313 198 l 676 198 l 676 0 l 91 0 m 131 1322 q 173 1470 130 1413 q 293 1527 216 1527 q 357 1516 332 1527 q 400 1489 382 1504 q 435 1461 418 1473 q 471 1450 451 1450 q 509 1471 496 1450 q 522 1527 522 1492 l 652 1527 q 637 1424 652 1470 q 588 1350 621 1377 q 503 1322 554 1322 q 439 1334 465 1322 q 396 1361 414 1345 q 362 1389 378 1377 q 326 1400 346 1400 q 280 1381 299 1400 q 259 1322 260 1361 l 131 1322 m 221 1040 l 125 1137 l 370 1304 l 411 1304 l 654 1137 l 562 1040 l 391 1166 l 388 1166 l 221 1040 z "},"Ȅ":{"ha":737,"x_min":32,"x_max":676,"o":"m 91 0 l 91 1000 l 676 1000 l 676 802 l 313 802 l 313 602 l 614 602 l 614 410 l 313 410 l 313 198 l 676 198 l 676 0 l 91 0 m 209 1060 l 31 1278 l 172 1357 l 317 1112 l 209 1060 m 477 1060 l 303 1278 l 444 1357 l 585 1112 l 477 1060 z "},"Ë":{"ha":737,"x_min":91,"x_max":676,"o":"m 91 0 l 91 1000 l 676 1000 l 676 802 l 313 802 l 313 602 l 614 602 l 614 410 l 313 410 l 313 198 l 676 198 l 676 0 l 91 0 m 560 1050 q 475 1085 510 1050 q 440 1168 440 1119 q 475 1254 440 1219 q 560 1289 510 1289 q 643 1254 609 1289 q 676 1168 676 1219 q 643 1085 676 1119 q 560 1050 609 1050 m 227 1050 q 142 1085 177 1050 q 108 1168 108 1119 q 142 1254 108 1219 q 227 1289 177 1289 q 310 1254 276 1289 q 345 1168 345 1219 q 310 1085 345 1119 q 227 1050 276 1050 z "},"Ė":{"ha":737,"x_min":91,"x_max":676,"o":"m 91 0 l 91 1000 l 676 1000 l 676 802 l 313 802 l 313 602 l 614 602 l 614 410 l 313 410 l 313 198 l 676 198 l 676 0 l 91 0 m 395 1060 q 302 1098 340 1060 q 264 1190 264 1136 q 302 1283 264 1246 q 395 1321 340 1321 q 488 1283 450 1321 q 526 1190 526 1246 q 488 1098 526 1136 q 395 1060 450 1060 z "},"Ẹ":{"ha":737,"x_min":91,"x_max":676,"o":"m 91 0 l 91 1000 l 676 1000 l 676 802 l 313 802 l 313 602 l 614 602 l 614 410 l 313 410 l 313 198 l 676 198 l 676 0 l 91 0 m 395 -337 q 302 -299 340 -337 q 264 -207 264 -261 q 302 -114 264 -151 q 395 -76 340 -76 q 488 -114 450 -76 q 526 -207 526 -151 q 488 -299 526 -261 q 395 -337 450 -337 z "},"È":{"ha":737,"x_min":91,"x_max":676,"o":"m 91 0 l 91 1000 l 676 1000 l 676 802 l 313 802 l 313 602 l 614 602 l 614 410 l 313 410 l 313 198 l 676 198 l 676 0 l 91 0 m 391 1048 l 140 1213 l 240 1344 l 479 1137 l 391 1048 z "},"Ẻ":{"ha":737,"x_min":91,"x_max":676,"o":"m 91 0 l 91 1000 l 676 1000 l 676 802 l 313 802 l 313 602 l 614 602 l 614 410 l 313 410 l 313 198 l 676 198 l 676 0 l 91 0 m 415 1052 l 339 1126 q 375 1156 359 1138 q 391 1194 391 1175 q 372 1223 391 1213 q 320 1232 353 1232 q 287 1230 304 1232 q 251 1220 269 1227 l 251 1344 q 296 1356 266 1352 q 351 1360 326 1360 q 474 1324 429 1360 q 520 1222 520 1289 q 487 1116 520 1162 q 415 1052 454 1070 z "},"Ȇ":{"ha":737,"x_min":91,"x_max":676,"o":"m 91 0 l 91 1000 l 676 1000 l 676 802 l 313 802 l 313 602 l 614 602 l 614 410 l 313 410 l 313 198 l 676 198 l 676 0 l 91 0 m 391 1284 q 520 1257 460 1282 q 616 1184 580 1232 q 651 1065 652 1136 l 522 1065 q 484 1144 524 1120 q 391 1168 444 1168 q 301 1144 341 1168 q 259 1065 260 1119 l 132 1065 q 168 1184 132 1136 q 262 1257 203 1232 q 391 1284 321 1282 z "},"Ē":{"ha":737,"x_min":91,"x_max":676,"o":"m 91 0 l 91 1000 l 676 1000 l 676 802 l 313 802 l 313 602 l 614 602 l 614 410 l 313 410 l 313 198 l 676 198 l 676 0 l 91 0 m 119 1098 l 119 1239 l 661 1239 l 661 1098 l 119 1098 z "},"Ḗ":{"ha":737,"x_min":91,"x_max":676,"o":"m 91 0 l 91 1000 l 676 1000 l 676 802 l 313 802 l 313 602 l 614 602 l 614 410 l 313 410 l 313 198 l 676 198 l 676 0 l 91 0 m 119 1098 l 119 1239 l 661 1239 l 661 1098 l 119 1098 m 391 1288 l 302 1377 l 542 1584 l 642 1453 l 391 1288 z "},"Ḕ":{"ha":737,"x_min":91,"x_max":676,"o":"m 91 0 l 91 1000 l 676 1000 l 676 802 l 313 802 l 313 602 l 614 602 l 614 410 l 313 410 l 313 198 l 676 198 l 676 0 l 91 0 m 119 1098 l 119 1239 l 661 1239 l 661 1098 l 119 1098 m 391 1288 l 140 1453 l 240 1584 l 479 1377 l 391 1288 z "},"Ę":{"ha":737,"x_min":91,"x_max":679,"o":"m 91 0 l 91 1000 l 676 1000 l 676 802 l 313 802 l 313 602 l 614 602 l 614 410 l 313 410 l 313 198 l 676 198 l 676 0 l 91 0 m 568 -293 q 456 -255 499 -293 q 413 -155 413 -218 q 454 -53 413 -97 q 565 34 496 -9 l 675 0 q 611 -43 640 -22 q 563 -86 581 -64 q 544 -130 544 -107 q 559 -162 544 -151 q 605 -173 575 -173 q 646 -168 625 -173 q 679 -157 668 -163 l 679 -275 q 626 -288 659 -283 q 568 -293 592 -293 z "},"Ẽ":{"ha":737,"x_min":91,"x_max":676,"o":"m 91 0 l 91 1000 l 676 1000 l 676 802 l 313 802 l 313 602 l 614 602 l 614 410 l 313 410 l 313 198 l 676 198 l 676 0 l 91 0 m 132 1067 q 174 1215 132 1156 q 292 1271 216 1274 q 358 1261 332 1272 q 402 1234 384 1250 q 436 1207 420 1219 q 471 1195 452 1195 q 511 1217 498 1195 q 524 1271 524 1238 l 651 1271 q 610 1127 652 1185 q 488 1067 568 1069 q 424 1080 450 1068 q 380 1108 399 1093 q 345 1135 361 1124 q 309 1146 328 1147 q 272 1126 283 1147 q 260 1067 260 1105 l 132 1067 z "},"Ə":{"ha":1052,"x_min":48,"x_max":1021,"o":"m 503 -11 q 263 46 365 -11 q 104 204 161 103 q 48 437 48 304 l 48 578 l 819 578 l 819 393 l 260 393 q 291 287 260 334 q 375 214 321 241 q 498 187 429 187 q 620 211 566 187 q 713 276 673 234 q 773 376 752 319 q 794 501 794 433 q 772 628 794 572 q 708 725 749 684 q 611 787 667 766 q 487 809 555 809 q 360 786 418 809 q 267 728 302 763 l 182 928 q 330 990 251 970 q 488 1010 408 1010 q 698 973 601 1010 q 867 866 795 935 q 981 704 940 798 q 1021 496 1021 610 q 983 294 1021 387 q 875 133 945 201 q 710 27 805 64 q 503 -11 615 -11 z "},"F":{"ha":705,"x_min":91,"x_max":673,"o":"m 91 0 l 91 1000 l 673 1000 l 673 802 l 313 802 l 313 572 l 613 572 l 613 374 l 313 374 l 313 0 l 91 0 z "},"G":{"ha":1048,"x_min":31,"x_max":1004,"o":"m 550 -11 q 342 27 437 -11 q 177 134 247 65 q 69 294 107 202 q 31 495 31 387 q 69 698 31 604 q 179 862 108 791 q 348 971 250 932 q 562 1010 446 1010 q 723 990 644 1010 q 870 928 802 970 l 785 728 q 693 785 751 763 q 562 808 635 808 q 405 770 475 808 q 294 664 335 733 q 252 501 252 595 q 275 375 252 432 q 338 275 297 317 q 433 210 378 233 q 553 187 488 187 q 677 214 623 187 q 763 287 732 241 q 794 393 794 333 l 521 393 l 521 577 l 1004 577 l 1004 416 q 947 197 1004 294 q 789 45 891 100 q 550 -11 688 -11 z "},"Ğ":{"ha":1048,"x_min":31,"x_max":1004,"o":"m 550 -11 q 342 27 437 -11 q 177 134 247 65 q 69 294 107 202 q 31 495 31 387 q 69 698 31 604 q 179 862 108 791 q 348 971 250 932 q 562 1010 446 1010 q 723 990 644 1010 q 870 928 802 970 l 785 728 q 693 785 751 763 q 562 808 635 808 q 405 770 475 808 q 294 664 335 733 q 252 501 252 595 q 275 375 252 432 q 338 275 297 317 q 433 210 378 233 q 553 187 488 187 q 677 214 623 187 q 763 287 732 241 q 794 393 794 333 l 521 393 l 521 577 l 1004 577 l 1004 416 q 947 197 1004 294 q 789 45 891 100 q 550 -11 688 -11 m 534 1062 q 406 1089 465 1064 q 311 1161 347 1114 q 275 1281 275 1209 l 403 1281 q 445 1202 404 1227 q 534 1177 485 1177 q 627 1202 587 1177 q 666 1281 667 1226 l 795 1281 q 760 1161 796 1209 q 664 1089 724 1114 q 534 1062 604 1064 z "},"Ǧ":{"ha":1048,"x_min":31,"x_max":1004,"o":"m 550 -11 q 342 27 437 -11 q 177 134 247 65 q 69 294 107 202 q 31 495 31 387 q 69 698 31 604 q 179 862 108 791 q 348 971 250 932 q 562 1010 446 1010 q 723 990 644 1010 q 870 928 802 970 l 785 728 q 693 785 751 763 q 562 808 635 808 q 405 770 475 808 q 294 664 335 733 q 252 501 252 595 q 275 375 252 432 q 338 275 297 317 q 433 210 378 233 q 553 187 488 187 q 677 214 623 187 q 763 287 732 241 q 794 393 794 333 l 521 393 l 521 577 l 1004 577 l 1004 416 q 947 197 1004 294 q 789 45 891 100 q 550 -11 688 -11 m 365 1314 l 532 1188 l 535 1188 l 706 1314 l 798 1215 l 555 1047 l 513 1047 l 269 1215 l 365 1314 z "},"Ĝ":{"ha":1048,"x_min":31,"x_max":1004,"o":"m 550 -11 q 342 27 437 -11 q 177 134 247 65 q 69 294 107 202 q 31 495 31 387 q 69 698 31 604 q 179 862 108 791 q 348 971 250 932 q 562 1010 446 1010 q 723 990 644 1010 q 870 928 802 970 l 785 728 q 693 785 751 763 q 562 808 635 808 q 405 770 475 808 q 294 664 335 733 q 252 501 252 595 q 275 375 252 432 q 338 275 297 317 q 433 210 378 233 q 553 187 488 187 q 677 214 623 187 q 763 287 732 241 q 794 393 794 333 l 521 393 l 521 577 l 1004 577 l 1004 416 q 947 197 1004 294 q 789 45 891 100 q 550 -11 688 -11 m 366 1050 l 270 1149 l 514 1317 l 555 1317 l 799 1149 l 707 1050 l 536 1177 l 532 1177 l 366 1050 z "},"Ģ":{"ha":1048,"x_min":31,"x_max":1004,"o":"m 550 -11 q 342 27 437 -11 q 177 134 247 65 q 69 294 107 202 q 31 495 31 387 q 69 698 31 604 q 179 862 108 791 q 348 971 250 932 q 562 1010 446 1010 q 723 990 644 1010 q 870 928 802 970 l 785 728 q 693 785 751 763 q 562 808 635 808 q 405 770 475 808 q 294 664 335 733 q 252 501 252 595 q 275 375 252 432 q 338 275 297 317 q 433 210 378 233 q 553 187 488 187 q 677 214 623 187 q 763 287 732 241 q 794 393 794 333 l 521 393 l 521 577 l 1004 577 l 1004 416 q 947 197 1004 294 q 789 45 891 100 q 550 -11 688 -11 m 467 -423 l 425 -370 l 490 -319 q 516 -295 500 -310 q 542 -261 531 -279 q 553 -229 553 -243 l 579 -228 q 566 -259 578 -245 q 527 -273 554 -273 q 464 -247 494 -273 q 433 -179 434 -221 q 462 -113 434 -138 q 527 -89 490 -87 q 597 -114 568 -87 q 625 -193 625 -140 q 610 -269 625 -235 q 573 -326 594 -302 q 536 -363 552 -350 l 467 -423 z "},"Ġ":{"ha":1048,"x_min":31,"x_max":1004,"o":"m 550 -11 q 342 27 437 -11 q 177 134 247 65 q 69 294 107 202 q 31 495 31 387 q 69 698 31 604 q 179 862 108 791 q 348 971 250 932 q 562 1010 446 1010 q 723 990 644 1010 q 870 928 802 970 l 785 728 q 693 785 751 763 q 562 808 635 808 q 405 770 475 808 q 294 664 335 733 q 252 501 252 595 q 275 375 252 432 q 338 275 297 317 q 433 210 378 233 q 553 187 488 187 q 677 214 623 187 q 763 287 732 241 q 794 393 794 333 l 521 393 l 521 577 l 1004 577 l 1004 416 q 947 197 1004 294 q 789 45 891 100 q 550 -11 688 -11 m 539 1060 q 446 1098 484 1060 q 408 1190 408 1136 q 446 1283 408 1246 q 539 1321 484 1321 q 632 1283 594 1321 q 669 1190 669 1246 q 632 1098 669 1136 q 539 1060 594 1060 z "},"Ḡ":{"ha":1048,"x_min":31,"x_max":1004,"o":"m 550 -11 q 342 27 437 -11 q 177 134 247 65 q 69 294 107 202 q 31 495 31 387 q 69 698 31 604 q 179 862 108 791 q 348 971 250 932 q 562 1010 446 1010 q 723 990 644 1010 q 870 928 802 970 l 785 728 q 693 785 751 763 q 562 808 635 808 q 405 770 475 808 q 294 664 335 733 q 252 501 252 595 q 275 375 252 432 q 338 275 297 317 q 433 210 378 233 q 553 187 488 187 q 677 214 623 187 q 763 287 732 241 q 794 393 794 333 l 521 393 l 521 577 l 1004 577 l 1004 416 q 947 197 1004 294 q 789 45 891 100 q 550 -11 688 -11 m 263 1098 l 263 1239 l 805 1239 l 805 1098 l 263 1098 z "},"H":{"ha":1026,"x_min":91,"x_max":935,"o":"m 91 0 l 91 1000 l 313 1000 l 313 604 l 713 604 l 713 1000 l 935 1000 l 935 0 l 713 0 l 713 406 l 313 406 l 313 0 l 91 0 z "},"Ħ":{"ha":1140,"x_min":22,"x_max":1109,"o":"m 22 734 l 22 853 l 1109 853 l 1109 734 l 22 734 m 146 0 l 146 1000 l 368 1000 l 368 604 l 768 604 l 768 1000 l 989 1000 l 989 0 l 768 0 l 768 406 l 368 406 l 368 0 l 146 0 z "},"Ḫ":{"ha":1026,"x_min":91,"x_max":935,"o":"m 91 0 l 91 1000 l 313 1000 l 313 604 l 713 604 l 713 1000 l 935 1000 l 935 0 l 713 0 l 713 406 l 313 406 l 313 0 l 91 0 m 514 -313 q 381 -282 440 -313 q 287 -198 321 -251 q 252 -80 252 -146 l 382 -80 q 421 -163 384 -130 q 514 -197 459 -197 q 607 -163 570 -197 q 644 -80 644 -130 l 774 -80 q 741 -198 775 -146 q 647 -281 707 -250 q 514 -313 588 -313 z "},"Ĥ":{"ha":1026,"x_min":91,"x_max":935,"o":"m 91 0 l 91 1000 l 313 1000 l 313 604 l 713 604 l 713 1000 l 935 1000 l 935 0 l 713 0 l 713 406 l 313 406 l 313 0 l 91 0 m 345 1050 l 250 1149 l 494 1317 l 535 1317 l 779 1149 l 686 1050 l 515 1177 l 512 1177 l 345 1050 z "},"Ḥ":{"ha":1026,"x_min":91,"x_max":935,"o":"m 91 0 l 91 1000 l 313 1000 l 313 604 l 713 604 l 713 1000 l 935 1000 l 935 0 l 713 0 l 713 406 l 313 406 l 313 0 l 91 0 m 515 -337 q 422 -299 460 -337 q 384 -207 384 -261 q 422 -114 384 -151 q 515 -76 460 -76 q 607 -114 570 -76 q 645 -207 645 -151 q 607 -299 645 -261 q 515 -337 570 -337 z "},"I":{"ha":435,"x_min":106,"x_max":328,"o":"m 106 0 l 106 1000 l 328 1000 l 328 0 l 106 0 z "},"Í":{"ha":435,"x_min":106,"x_max":468,"o":"m 106 0 l 106 1000 l 328 1000 l 328 0 l 106 0 m 217 1048 l 129 1137 l 368 1344 l 469 1213 l 217 1048 z "},"Ĭ":{"ha":456,"x_min":-31,"x_max":490,"o":"m 117 0 l 117 1000 l 339 1000 l 339 0 l 117 0 m 228 1062 q 99 1089 158 1064 q 5 1161 41 1114 q -31 1281 -31 1209 l 96 1281 q 138 1202 98 1227 q 228 1177 178 1177 q 321 1202 281 1177 q 359 1281 361 1226 l 488 1281 q 453 1161 490 1209 q 357 1089 417 1114 q 228 1062 298 1064 z "},"Ǐ":{"ha":456,"x_min":-37,"x_max":492,"o":"m 117 0 l 117 1000 l 339 1000 l 339 0 l 117 0 m 58 1314 l 225 1188 l 229 1188 l 399 1314 l 492 1215 l 249 1047 l 207 1047 l -37 1215 l 58 1314 z "},"Î":{"ha":456,"x_min":-37,"x_max":492,"o":"m 117 0 l 117 1000 l 339 1000 l 339 0 l 117 0 m 59 1050 l -37 1149 l 208 1317 l 249 1317 l 492 1149 l 400 1050 l 229 1177 l 226 1177 l 59 1050 z "},"Ȉ":{"ha":456,"x_min":-131,"x_max":422,"o":"m 117 0 l 117 1000 l 339 1000 l 339 0 l 117 0 m 46 1060 l -132 1278 l 9 1357 l 154 1112 l 46 1060 m 314 1060 l 140 1278 l 281 1357 l 422 1112 l 314 1060 z "},"Ï":{"ha":504,"x_min":-30,"x_max":538,"o":"m 142 0 l 142 1000 l 363 1000 l 363 0 l 142 0 m 422 1050 q 337 1085 372 1050 q 302 1168 302 1119 q 337 1254 302 1219 q 422 1289 372 1289 q 504 1254 471 1289 q 538 1168 538 1219 q 504 1085 538 1119 q 422 1050 471 1050 m 88 1050 q 4 1085 39 1050 q -31 1168 -31 1119 q 4 1254 -31 1219 q 88 1289 39 1289 q 172 1254 138 1289 q 206 1168 206 1219 q 172 1085 206 1119 q 88 1050 138 1050 z "},"Ḯ":{"ha":504,"x_min":-30,"x_max":538,"o":"m 142 0 l 142 1000 l 363 1000 l 363 0 l 142 0 m 422 1050 q 337 1085 372 1050 q 302 1168 302 1119 q 337 1254 302 1219 q 422 1289 372 1289 q 504 1254 471 1289 q 538 1168 538 1219 q 504 1085 538 1119 q 422 1050 471 1050 m 88 1050 q 4 1085 39 1050 q -31 1168 -31 1119 q 4 1254 -31 1219 q 88 1289 39 1289 q 172 1254 138 1289 q 206 1168 206 1219 q 172 1085 206 1119 q 88 1050 138 1050 m 252 1291 l 164 1379 l 404 1586 l 504 1455 l 252 1291 z "},"İ":{"ha":435,"x_min":91,"x_max":352,"o":"m 106 0 l 106 1000 l 328 1000 l 328 0 l 106 0 m 222 1060 q 129 1098 167 1060 q 91 1190 91 1136 q 129 1283 91 1246 q 222 1321 167 1321 q 314 1283 277 1321 q 352 1190 352 1246 q 314 1098 352 1136 q 222 1060 277 1060 z "},"Ị":{"ha":435,"x_min":87,"x_max":348,"o":"m 106 0 l 106 1000 l 328 1000 l 328 0 l 106 0 m 218 -337 q 125 -299 163 -337 q 87 -207 87 -261 q 125 -114 87 -151 q 218 -76 163 -76 q 310 -114 273 -76 q 348 -207 348 -151 q 310 -299 348 -261 q 218 -337 273 -337 z "},"Ì":{"ha":435,"x_min":-34,"x_max":328,"o":"m 106 0 l 106 1000 l 328 1000 l 328 0 l 106 0 m 217 1048 l -34 1213 l 66 1344 l 305 1137 l 217 1048 z "},"Ỉ":{"ha":435,"x_min":78,"x_max":347,"o":"m 106 0 l 106 1000 l 328 1000 l 328 0 l 106 0 m 241 1052 l 165 1126 q 201 1156 185 1138 q 218 1194 218 1175 q 198 1223 218 1213 q 146 1232 179 1232 q 113 1230 131 1232 q 77 1220 95 1227 l 77 1344 q 122 1356 92 1352 q 177 1360 152 1360 q 301 1324 255 1360 q 347 1222 347 1289 q 314 1116 347 1162 q 241 1052 281 1070 z "},"Ȋ":{"ha":504,"x_min":-7,"x_max":514,"o":"m 142 0 l 142 1000 l 363 1000 l 363 0 l 142 0 m 252 1284 q 382 1257 322 1282 q 478 1184 441 1232 q 513 1065 514 1136 l 383 1065 q 345 1144 385 1120 q 252 1168 305 1168 q 162 1144 203 1168 q 121 1065 121 1119 l -7 1065 q 29 1184 -7 1136 q 124 1257 65 1232 q 252 1284 182 1282 z "},"Ī":{"ha":504,"x_min":9,"x_max":494,"o":"m 142 0 l 142 1000 l 363 1000 l 363 0 l 142 0 m 9 1098 l 9 1239 l 494 1239 l 494 1098 l 9 1098 z "},"Į":{"ha":435,"x_min":65,"x_max":331,"o":"m 106 0 l 106 1000 l 328 1000 l 328 0 l 106 0 m 220 -293 q 108 -255 151 -293 q 65 -155 65 -218 q 106 -53 65 -97 q 217 34 148 -9 l 327 0 q 263 -43 292 -22 q 215 -86 233 -64 q 196 -130 196 -107 q 212 -162 196 -151 q 257 -173 227 -173 q 298 -168 277 -173 q 331 -157 320 -163 l 331 -275 q 278 -288 311 -283 q 220 -293 244 -293 z "},"Ĩ":{"ha":515,"x_min":-1,"x_max":519,"o":"m 147 0 l 147 1000 l 369 1000 l 369 0 l 147 0 m -1 1067 q 41 1215 -1 1156 q 159 1271 83 1274 q 225 1261 199 1272 q 269 1234 251 1250 q 303 1207 287 1219 q 338 1195 319 1195 q 378 1217 365 1195 q 391 1271 391 1238 l 518 1271 q 477 1127 519 1185 q 355 1067 435 1069 q 291 1080 317 1068 q 247 1108 266 1093 q 212 1135 229 1124 q 176 1146 195 1147 q 139 1126 151 1147 q 127 1067 127 1105 l -1 1067 z "},"J":{"ha":738,"x_min":9,"x_max":646,"o":"m 326 -11 q 158 31 229 -11 q 48 147 87 72 q 9 323 9 222 l 218 323 q 247 224 218 260 q 321 187 275 187 q 374 202 351 187 q 411 244 397 217 q 424 311 424 272 l 424 1000 l 646 1000 l 646 313 q 606 140 646 212 q 494 28 566 67 q 326 -11 422 -11 z "},"Ĵ":{"ha":749,"x_min":9,"x_max":793,"o":"m 326 -11 q 158 31 229 -11 q 48 147 87 72 q 9 323 9 222 l 218 323 q 247 224 218 260 q 321 187 275 187 q 374 202 351 187 q 411 244 397 217 q 424 311 424 272 l 424 1000 l 646 1000 l 646 313 q 606 140 646 212 q 494 28 566 67 q 326 -11 422 -11 m 360 1050 l 264 1149 l 509 1317 l 550 1317 l 793 1149 l 701 1050 l 530 1177 l 527 1177 l 360 1050 z "},"K":{"ha":936,"x_min":91,"x_max":935,"o":"m 91 0 l 91 1000 l 313 1000 l 313 556 l 368 556 l 292 522 l 650 1000 l 920 1000 l 486 446 l 486 566 l 935 0 l 667 0 l 292 473 l 368 439 l 313 439 l 313 0 l 91 0 z "},"Ķ":{"ha":936,"x_min":91,"x_max":935,"o":"m 91 0 l 91 1000 l 313 1000 l 313 556 l 368 556 l 292 522 l 650 1000 l 920 1000 l 486 446 l 486 566 l 935 0 l 667 0 l 292 473 l 368 439 l 313 439 l 313 0 l 91 0 m 411 -423 l 369 -370 l 434 -319 q 459 -295 444 -310 q 486 -261 475 -279 q 497 -229 497 -243 l 523 -228 q 510 -259 522 -245 q 471 -273 498 -273 q 408 -247 438 -273 q 377 -179 378 -221 q 406 -113 378 -138 q 471 -89 434 -87 q 541 -114 512 -87 q 569 -193 569 -140 q 553 -269 569 -235 q 517 -326 538 -302 q 480 -363 496 -350 l 411 -423 z "},"L":{"ha":683,"x_min":91,"x_max":673,"o":"m 91 0 l 91 1000 l 313 1000 l 313 198 l 673 198 l 673 0 l 91 0 z "},"Ǉ":{"ha":1421,"x_min":91,"x_max":1330,"o":"m 91 0 l 91 1000 l 313 1000 l 313 198 l 673 198 l 673 0 l 91 0 m 1009 -11 q 841 31 912 -11 q 731 147 770 72 q 692 323 692 222 l 901 323 q 929 224 901 260 q 1004 187 958 187 q 1057 202 1034 187 q 1094 244 1080 217 q 1107 311 1107 272 l 1107 1000 l 1329 1000 l 1329 313 q 1289 140 1329 212 q 1177 28 1249 67 q 1009 -11 1105 -11 z "},"Ĺ":{"ha":683,"x_min":91,"x_max":673,"o":"m 91 0 l 91 1000 l 313 1000 l 313 198 l 673 198 l 673 0 l 91 0 m 207 1048 l 119 1137 l 358 1344 l 458 1213 l 207 1048 z "},"Ľ":{"ha":683,"x_min":91,"x_max":700,"o":"m 91 0 l 91 1000 l 313 1000 l 313 198 l 673 198 l 673 0 l 91 0 m 526 653 l 530 1000 l 701 1000 l 677 653 l 526 653 z "},"Ļ":{"ha":683,"x_min":91,"x_max":673,"o":"m 91 0 l 91 1000 l 313 1000 l 313 198 l 673 198 l 673 0 l 91 0 m 320 -423 l 278 -370 l 343 -319 q 369 -295 353 -310 q 395 -261 384 -279 q 406 -229 406 -243 l 432 -228 q 419 -259 431 -245 q 380 -273 407 -273 q 317 -247 347 -273 q 286 -179 287 -221 q 315 -113 287 -138 q 380 -89 343 -87 q 450 -114 421 -87 q 478 -193 478 -140 q 463 -269 478 -235 q 426 -326 447 -302 q 389 -363 405 -350 l 320 -423 z "},"Ŀ":{"ha":785,"x_min":91,"x_max":729,"o":"m 91 0 l 91 1000 l 313 1000 l 313 198 l 673 198 l 673 0 l 91 0 m 602 376 q 511 414 549 376 q 474 504 474 451 q 511 594 474 557 q 602 631 549 631 q 692 594 655 631 q 729 504 729 557 q 692 414 729 451 q 602 376 655 376 z "},"Ḷ":{"ha":683,"x_min":91,"x_max":673,"o":"m 91 0 l 91 1000 l 313 1000 l 313 198 l 673 198 l 673 0 l 91 0 m 390 -337 q 297 -299 335 -337 q 259 -207 259 -261 q 297 -114 259 -151 q 390 -76 335 -76 q 483 -114 445 -76 q 520 -207 520 -151 q 483 -299 520 -261 q 390 -337 445 -337 z "},"ǈ":{"ha":1068,"x_min":91,"x_max":1019,"o":"m 91 0 l 91 1000 l 313 1000 l 313 198 l 673 198 l 673 0 l 91 0 m 732 -300 q 683 -297 709 -300 q 635 -290 657 -294 l 635 -98 q 668 -106 650 -104 q 700 -109 686 -109 q 763 -88 744 -109 q 781 -34 781 -67 l 781 730 l 996 730 l 996 -24 q 967 -165 996 -103 q 881 -264 939 -228 q 732 -300 822 -300 m 888 813 q 795 851 833 813 q 758 943 758 889 q 795 1037 758 999 q 888 1074 833 1074 q 981 1037 943 1074 q 1019 943 1019 999 q 981 851 1019 889 q 888 813 943 813 z "},"Ḻ":{"ha":683,"x_min":91,"x_max":673,"o":"m 91 0 l 91 1000 l 313 1000 l 313 198 l 673 198 l 673 0 l 91 0 m 109 -285 l 109 -155 l 670 -155 l 670 -285 l 109 -285 z "},"Ł":{"ha":718,"x_min":-33,"x_max":709,"o":"m 22 325 l -33 437 l 154 544 l 317 620 l 450 700 l 505 587 l 317 481 l 154 405 l 22 325 m 126 0 l 126 1000 l 349 1000 l 349 198 l 709 198 l 709 0 l 126 0 z "},"M":{"ha":1204,"x_min":91,"x_max":1114,"o":"m 91 0 l 91 1000 l 256 1000 l 600 518 l 605 518 l 949 1000 l 1114 1000 l 1114 0 l 892 0 l 892 331 l 897 594 l 891 594 l 624 205 l 581 205 l 313 594 l 308 594 l 313 331 l 313 0 l 91 0 z "},"Ṃ":{"ha":1204,"x_min":91,"x_max":1114,"o":"m 91 0 l 91 1000 l 256 1000 l 600 518 l 605 518 l 949 1000 l 1114 1000 l 1114 0 l 892 0 l 892 331 l 897 594 l 891 594 l 624 205 l 581 205 l 313 594 l 308 594 l 313 331 l 313 0 l 91 0 m 607 -337 q 514 -299 552 -337 q 476 -207 476 -261 q 514 -114 476 -151 q 607 -76 552 -76 q 700 -114 662 -76 q 737 -207 737 -151 q 700 -299 737 -261 q 607 -337 662 -337 z "},"N":{"ha":1046,"x_min":91,"x_max":956,"o":"m 91 0 l 91 1000 l 253 1000 l 661 492 l 733 393 l 739 393 l 733 610 l 733 1000 l 956 1000 l 956 0 l 793 0 l 388 517 l 315 618 l 309 618 l 313 391 l 313 0 l 91 0 z "},"Ǌ":{"ha":1784,"x_min":91,"x_max":1693,"o":"m 91 0 l 91 1000 l 253 1000 l 661 492 l 733 393 l 739 393 l 733 610 l 733 1000 l 956 1000 l 956 0 l 793 0 l 388 517 l 315 618 l 309 618 l 313 391 l 313 0 l 91 0 m 1373 -11 q 1204 31 1276 -11 q 1095 147 1133 72 q 1055 323 1056 222 l 1265 323 q 1293 224 1265 260 q 1368 187 1321 187 q 1421 202 1398 187 q 1457 244 1444 217 q 1470 311 1470 272 l 1470 1000 l 1693 1000 l 1693 313 q 1653 140 1693 212 q 1540 28 1613 67 q 1373 -11 1468 -11 z "},"Ń":{"ha":1046,"x_min":91,"x_max":956,"o":"m 91 0 l 91 1000 l 253 1000 l 661 492 l 733 393 l 739 393 l 733 610 l 733 1000 l 956 1000 l 956 0 l 793 0 l 388 517 l 315 618 l 309 618 l 313 391 l 313 0 l 91 0 m 523 1048 l 435 1137 l 674 1344 l 774 1213 l 523 1048 z "},"Ň":{"ha":1046,"x_min":91,"x_max":956,"o":"m 91 0 l 91 1000 l 253 1000 l 661 492 l 733 393 l 739 393 l 733 610 l 733 1000 l 956 1000 l 956 0 l 793 0 l 388 517 l 315 618 l 309 618 l 313 391 l 313 0 l 91 0 m 354 1314 l 521 1188 l 524 1188 l 695 1314 l 787 1215 l 544 1047 l 502 1047 l 258 1215 l 354 1314 z "},"Ņ":{"ha":1046,"x_min":91,"x_max":956,"o":"m 91 0 l 91 1000 l 253 1000 l 661 492 l 733 393 l 739 393 l 733 610 l 733 1000 l 956 1000 l 956 0 l 793 0 l 388 517 l 315 618 l 309 618 l 313 391 l 313 0 l 91 0 m 452 -423 l 410 -370 l 475 -319 q 500 -295 485 -310 q 527 -261 515 -279 q 538 -229 538 -243 l 564 -228 q 551 -259 563 -245 q 511 -273 538 -273 q 449 -247 479 -273 q 418 -179 418 -221 q 447 -113 418 -138 q 511 -89 475 -87 q 581 -114 553 -87 q 610 -193 610 -140 q 594 -269 610 -235 q 557 -326 578 -302 q 521 -363 536 -350 l 452 -423 z "},"Ṅ":{"ha":1046,"x_min":91,"x_max":956,"o":"m 91 0 l 91 1000 l 253 1000 l 661 492 l 733 393 l 739 393 l 733 610 l 733 1000 l 956 1000 l 956 0 l 793 0 l 388 517 l 315 618 l 309 618 l 313 391 l 313 0 l 91 0 m 528 1060 q 435 1098 473 1060 q 397 1190 397 1136 q 435 1283 397 1246 q 528 1321 473 1321 q 620 1283 583 1321 q 658 1190 658 1246 q 620 1098 658 1136 q 528 1060 583 1060 z "},"Ṇ":{"ha":1046,"x_min":91,"x_max":956,"o":"m 91 0 l 91 1000 l 253 1000 l 661 492 l 733 393 l 739 393 l 733 610 l 733 1000 l 956 1000 l 956 0 l 793 0 l 388 517 l 315 618 l 309 618 l 313 391 l 313 0 l 91 0 m 522 -337 q 429 -299 467 -337 q 391 -207 391 -261 q 429 -114 391 -151 q 522 -76 467 -76 q 614 -114 576 -76 q 652 -207 652 -151 q 614 -299 652 -261 q 522 -337 576 -337 z "},"ǋ":{"ha":1413,"x_min":91,"x_max":1363,"o":"m 91 0 l 91 1000 l 253 1000 l 661 492 l 733 393 l 739 393 l 733 610 l 733 1000 l 956 1000 l 956 0 l 793 0 l 388 517 l 315 618 l 309 618 l 313 391 l 313 0 l 91 0 m 1078 -300 q 1028 -297 1055 -300 q 980 -290 1002 -294 l 980 -98 q 1014 -106 996 -104 q 1045 -109 1031 -109 q 1108 -88 1089 -109 q 1126 -34 1126 -67 l 1126 730 l 1341 730 l 1341 -24 q 1313 -165 1341 -103 q 1226 -264 1284 -228 q 1078 -300 1167 -300 m 1233 813 q 1140 851 1178 813 q 1102 943 1102 889 q 1140 1037 1102 999 q 1233 1074 1178 1074 q 1325 1037 1288 1074 q 1363 943 1363 999 q 1325 851 1363 889 q 1233 813 1288 813 z "},"Ṉ":{"ha":1046,"x_min":91,"x_max":956,"o":"m 91 0 l 91 1000 l 253 1000 l 661 492 l 733 393 l 739 393 l 733 610 l 733 1000 l 956 1000 l 956 0 l 793 0 l 388 517 l 315 618 l 309 618 l 313 391 l 313 0 l 91 0 m 240 -285 l 240 -155 l 801 -155 l 801 -285 l 240 -285 z "},"Ñ":{"ha":1046,"x_min":91,"x_max":956,"o":"m 91 0 l 91 1000 l 253 1000 l 661 492 l 733 393 l 739 393 l 733 610 l 733 1000 l 956 1000 l 956 0 l 793 0 l 388 517 l 315 618 l 309 618 l 313 391 l 313 0 l 91 0 m 264 1067 q 306 1215 264 1156 q 425 1271 348 1274 q 490 1261 465 1272 q 534 1234 516 1250 q 568 1207 552 1219 q 603 1195 584 1195 q 643 1217 630 1195 q 656 1271 656 1238 l 783 1271 q 742 1127 785 1185 q 620 1067 700 1069 q 556 1080 582 1068 q 512 1108 531 1093 q 477 1135 494 1124 q 441 1146 460 1147 q 404 1126 416 1147 q 393 1067 393 1105 l 264 1067 z "},"Ŋ":{"ha":1046,"x_min":91,"x_max":956,"o":"m 676 -302 q 604 -296 640 -302 q 552 -282 568 -291 l 552 -98 q 602 -112 576 -108 q 645 -117 628 -117 q 716 -94 690 -117 q 741 -33 741 -70 l 741 76 l 956 102 l 956 -20 q 925 -165 956 -102 q 832 -266 894 -229 q 676 -302 770 -302 m 91 0 l 91 1000 l 253 1000 l 661 492 l 733 393 l 739 393 l 733 610 l 733 1000 l 956 1000 l 956 0 l 793 0 l 388 517 l 315 618 l 309 618 l 313 391 l 313 0 l 91 0 z "},"O":{"ha":1092,"x_min":31,"x_max":1061,"o":"m 547 -11 q 346 28 439 -11 q 181 137 252 67 q 70 300 110 207 q 31 500 31 393 q 70 701 31 608 q 180 863 110 793 q 345 971 251 932 q 547 1010 439 1010 q 749 971 656 1010 q 913 863 843 932 q 1022 701 983 793 q 1061 500 1061 608 q 1022 300 1061 393 q 913 137 983 207 q 749 28 843 67 q 547 -11 656 -11 m 545 192 q 661 216 608 192 q 755 281 715 239 q 817 380 795 323 q 840 500 840 436 q 817 622 840 566 q 754 720 794 678 q 661 785 714 762 q 545 808 607 808 q 431 785 484 808 q 337 720 378 762 q 275 622 297 678 q 252 500 252 566 q 275 379 252 435 q 337 281 297 323 q 430 216 377 239 q 545 192 484 192 z "},"Ó":{"ha":1092,"x_min":31,"x_max":1061,"o":"m 547 -11 q 346 28 439 -11 q 181 137 252 67 q 70 300 110 207 q 31 500 31 393 q 70 701 31 608 q 180 863 110 793 q 345 971 251 932 q 547 1010 439 1010 q 749 971 656 1010 q 913 863 843 932 q 1022 701 983 793 q 1061 500 1061 608 q 1022 300 1061 393 q 913 137 983 207 q 749 28 843 67 q 547 -11 656 -11 m 545 192 q 661 216 608 192 q 755 281 715 239 q 817 380 795 323 q 840 500 840 436 q 817 622 840 566 q 754 720 794 678 q 661 785 714 762 q 545 808 607 808 q 431 785 484 808 q 337 720 378 762 q 275 622 297 678 q 252 500 252 566 q 275 379 252 435 q 337 281 297 323 q 430 216 377 239 q 545 192 484 192 m 545 1048 l 457 1137 l 696 1344 l 797 1213 l 545 1048 z "},"Ŏ":{"ha":1092,"x_min":31,"x_max":1061,"o":"m 547 -11 q 346 28 439 -11 q 181 137 252 67 q 70 300 110 207 q 31 500 31 393 q 70 701 31 608 q 180 863 110 793 q 345 971 251 932 q 547 1010 439 1010 q 749 971 656 1010 q 913 863 843 932 q 1022 701 983 793 q 1061 500 1061 608 q 1022 300 1061 393 q 913 137 983 207 q 749 28 843 67 q 547 -11 656 -11 m 545 192 q 661 216 608 192 q 755 281 715 239 q 817 380 795 323 q 840 500 840 436 q 817 622 840 566 q 754 720 794 678 q 661 785 714 762 q 545 808 607 808 q 431 785 484 808 q 337 720 378 762 q 275 622 297 678 q 252 500 252 566 q 275 379 252 435 q 337 281 297 323 q 430 216 377 239 q 545 192 484 192 m 545 1062 q 417 1089 475 1064 q 322 1161 358 1114 q 286 1281 286 1209 l 414 1281 q 455 1202 415 1227 q 545 1177 496 1177 q 638 1202 598 1177 q 677 1281 678 1226 l 806 1281 q 771 1161 807 1209 q 675 1089 734 1114 q 545 1062 615 1064 z "},"Ô":{"ha":1092,"x_min":31,"x_max":1061,"o":"m 547 -11 q 346 28 439 -11 q 181 137 252 67 q 70 300 110 207 q 31 500 31 393 q 70 701 31 608 q 180 863 110 793 q 345 971 251 932 q 547 1010 439 1010 q 749 971 656 1010 q 913 863 843 932 q 1022 701 983 793 q 1061 500 1061 608 q 1022 300 1061 393 q 913 137 983 207 q 749 28 843 67 q 547 -11 656 -11 m 545 192 q 661 216 608 192 q 755 281 715 239 q 817 380 795 323 q 840 500 840 436 q 817 622 840 566 q 754 720 794 678 q 661 785 714 762 q 545 808 607 808 q 431 785 484 808 q 337 720 378 762 q 275 622 297 678 q 252 500 252 566 q 275 379 252 435 q 337 281 297 323 q 430 216 377 239 q 545 192 484 192 m 376 1050 l 281 1149 l 525 1317 l 566 1317 l 810 1149 l 718 1050 l 547 1177 l 543 1177 l 376 1050 z "},"Ố":{"ha":1092,"x_min":31,"x_max":1061,"o":"m 547 -11 q 346 28 439 -11 q 181 137 252 67 q 70 300 110 207 q 31 500 31 393 q 70 701 31 608 q 180 863 110 793 q 345 971 251 932 q 547 1010 439 1010 q 749 971 656 1010 q 913 863 843 932 q 1022 701 983 793 q 1061 500 1061 608 q 1022 300 1061 393 q 913 137 983 207 q 749 28 843 67 q 547 -11 656 -11 m 545 192 q 661 216 608 192 q 755 281 715 239 q 817 380 795 323 q 840 500 840 436 q 817 622 840 566 q 754 720 794 678 q 661 785 714 762 q 545 808 607 808 q 431 785 484 808 q 337 720 378 762 q 275 622 297 678 q 252 500 252 566 q 275 379 252 435 q 337 281 297 323 q 430 216 377 239 q 545 192 484 192 m 766 1235 l 672 1301 l 895 1527 l 996 1393 l 766 1235 m 375 1040 l 279 1137 l 524 1304 l 565 1304 l 808 1137 l 716 1040 l 545 1166 l 542 1166 l 375 1040 z "},"Ộ":{"ha":1092,"x_min":31,"x_max":1061,"o":"m 547 -11 q 346 28 439 -11 q 181 137 252 67 q 70 300 110 207 q 31 500 31 393 q 70 701 31 608 q 180 863 110 793 q 345 971 251 932 q 547 1010 439 1010 q 749 971 656 1010 q 913 863 843 932 q 1022 701 983 793 q 1061 500 1061 608 q 1022 300 1061 393 q 913 137 983 207 q 749 28 843 67 q 547 -11 656 -11 m 545 192 q 661 216 608 192 q 755 281 715 239 q 817 380 795 323 q 840 500 840 436 q 817 622 840 566 q 754 720 794 678 q 661 785 714 762 q 545 808 607 808 q 431 785 484 808 q 337 720 378 762 q 275 622 297 678 q 252 500 252 566 q 275 379 252 435 q 337 281 297 323 q 430 216 377 239 q 545 192 484 192 m 550 -337 q 457 -299 495 -337 q 419 -207 419 -261 q 457 -114 419 -151 q 550 -76 495 -76 q 643 -114 605 -76 q 680 -207 680 -151 q 643 -299 680 -261 q 550 -337 605 -337 m 376 1050 l 281 1149 l 525 1317 l 566 1317 l 810 1149 l 718 1050 l 547 1177 l 543 1177 l 376 1050 z "},"Ồ":{"ha":1092,"x_min":31,"x_max":1061,"o":"m 547 -11 q 346 28 439 -11 q 181 137 252 67 q 70 300 110 207 q 31 500 31 393 q 70 701 31 608 q 180 863 110 793 q 345 971 251 932 q 547 1010 439 1010 q 749 971 656 1010 q 913 863 843 932 q 1022 701 983 793 q 1061 500 1061 608 q 1022 300 1061 393 q 913 137 983 207 q 749 28 843 67 q 547 -11 656 -11 m 545 192 q 661 216 608 192 q 755 281 715 239 q 817 380 795 323 q 840 500 840 436 q 817 622 840 566 q 754 720 794 678 q 661 785 714 762 q 545 808 607 808 q 431 785 484 808 q 337 720 378 762 q 275 622 297 678 q 252 500 252 566 q 275 379 252 435 q 337 281 297 323 q 430 216 377 239 q 545 192 484 192 m 326 1235 l 94 1393 l 195 1527 l 418 1301 l 326 1235 m 715 1040 l 549 1166 l 545 1166 l 374 1040 l 282 1137 l 526 1304 l 568 1304 l 811 1137 l 715 1040 z "},"Ổ":{"ha":1092,"x_min":31,"x_max":1061,"o":"m 547 -11 q 346 28 439 -11 q 181 137 252 67 q 70 300 110 207 q 31 500 31 393 q 70 701 31 608 q 180 863 110 793 q 345 971 251 932 q 547 1010 439 1010 q 749 971 656 1010 q 913 863 843 932 q 1022 701 983 793 q 1061 500 1061 608 q 1022 300 1061 393 q 913 137 983 207 q 749 28 843 67 q 547 -11 656 -11 m 545 192 q 661 216 608 192 q 755 281 715 239 q 817 380 795 323 q 840 500 840 436 q 817 622 840 566 q 754 720 794 678 q 661 785 714 762 q 545 808 607 808 q 431 785 484 808 q 337 720 378 762 q 275 622 297 678 q 252 500 252 566 q 275 379 252 435 q 337 281 297 323 q 430 216 377 239 q 545 192 484 192 m 755 1236 l 680 1293 q 714 1325 701 1309 q 728 1358 728 1341 q 711 1389 728 1378 q 659 1400 694 1400 q 625 1397 642 1400 q 587 1388 608 1394 l 587 1513 q 633 1524 603 1520 q 689 1527 664 1527 q 810 1493 764 1527 q 856 1388 856 1460 q 840 1323 856 1352 q 800 1271 823 1293 q 755 1236 777 1249 m 376 1040 l 281 1137 l 525 1304 l 566 1304 l 810 1137 l 718 1040 l 547 1166 l 543 1166 l 376 1040 z "},"Ỗ":{"ha":1092,"x_min":31,"x_max":1061,"o":"m 547 -11 q 346 28 439 -11 q 181 137 252 67 q 70 300 110 207 q 31 500 31 393 q 70 701 31 608 q 180 863 110 793 q 345 971 251 932 q 547 1010 439 1010 q 749 971 656 1010 q 913 863 843 932 q 1022 701 983 793 q 1061 500 1061 608 q 1022 300 1061 393 q 913 137 983 207 q 749 28 843 67 q 547 -11 656 -11 m 545 192 q 661 216 608 192 q 755 281 715 239 q 817 380 795 323 q 840 500 840 436 q 817 622 840 566 q 754 720 794 678 q 661 785 714 762 q 545 808 607 808 q 431 785 484 808 q 337 720 378 762 q 275 622 297 678 q 252 500 252 566 q 275 379 252 435 q 337 281 297 323 q 430 216 377 239 q 545 192 484 192 m 286 1322 q 328 1470 284 1413 q 448 1527 371 1527 q 511 1516 486 1527 q 555 1489 536 1504 q 589 1461 573 1473 q 626 1450 606 1450 q 663 1471 650 1450 q 676 1527 676 1492 l 806 1527 q 791 1424 807 1470 q 742 1350 776 1377 q 658 1322 709 1322 q 594 1334 620 1322 q 550 1361 568 1345 q 516 1389 532 1377 q 481 1400 500 1400 q 434 1381 454 1400 q 414 1322 415 1361 l 286 1322 m 376 1040 l 280 1137 l 524 1304 l 566 1304 l 809 1137 l 717 1040 l 546 1166 l 543 1166 l 376 1040 z "},"Ȍ":{"ha":1092,"x_min":31,"x_max":1061,"o":"m 547 -11 q 346 28 439 -11 q 181 137 252 67 q 70 300 110 207 q 31 500 31 393 q 70 701 31 608 q 180 863 110 793 q 345 971 251 932 q 547 1010 439 1010 q 749 971 656 1010 q 913 863 843 932 q 1022 701 983 793 q 1061 500 1061 608 q 1022 300 1061 393 q 913 137 983 207 q 749 28 843 67 q 547 -11 656 -11 m 545 192 q 661 216 608 192 q 755 281 715 239 q 817 380 795 323 q 840 500 840 436 q 817 622 840 566 q 754 720 794 678 q 661 785 714 762 q 545 808 607 808 q 431 785 484 808 q 337 720 378 762 q 275 622 297 678 q 252 500 252 566 q 275 379 252 435 q 337 281 297 323 q 430 216 377 239 q 545 192 484 192 m 363 1060 l 186 1278 l 327 1357 l 471 1112 l 363 1060 m 631 1060 l 458 1278 l 599 1357 l 739 1112 l 631 1060 z "},"Ö":{"ha":1092,"x_min":31,"x_max":1061,"o":"m 547 -11 q 346 28 439 -11 q 181 137 252 67 q 70 300 110 207 q 31 500 31 393 q 70 701 31 608 q 180 863 110 793 q 345 971 251 932 q 547 1010 439 1010 q 749 971 656 1010 q 913 863 843 932 q 1022 701 983 793 q 1061 500 1061 608 q 1022 300 1061 393 q 913 137 983 207 q 749 28 843 67 q 547 -11 656 -11 m 545 192 q 661 216 608 192 q 755 281 715 239 q 817 380 795 323 q 840 500 840 436 q 817 622 840 566 q 754 720 794 678 q 661 785 714 762 q 545 808 607 808 q 431 785 484 808 q 337 720 378 762 q 275 622 297 678 q 252 500 252 566 q 275 379 252 435 q 337 281 297 323 q 430 216 377 239 q 545 192 484 192 m 715 1050 q 630 1085 665 1050 q 595 1168 595 1119 q 630 1254 595 1219 q 715 1289 665 1289 q 797 1254 764 1289 q 831 1168 831 1219 q 797 1085 831 1119 q 715 1050 764 1050 m 381 1050 q 297 1085 332 1050 q 262 1168 262 1119 q 297 1254 262 1219 q 381 1289 332 1289 q 465 1254 431 1289 q 499 1168 499 1219 q 465 1085 499 1119 q 381 1050 431 1050 z "},"Ȫ":{"ha":1092,"x_min":31,"x_max":1061,"o":"m 547 -11 q 346 28 439 -11 q 181 137 252 67 q 70 300 110 207 q 31 500 31 393 q 70 701 31 608 q 180 863 110 793 q 345 971 251 932 q 547 1010 439 1010 q 749 971 656 1010 q 913 863 843 932 q 1022 701 983 793 q 1061 500 1061 608 q 1022 300 1061 393 q 913 137 983 207 q 749 28 843 67 q 547 -11 656 -11 m 545 192 q 661 216 608 192 q 755 281 715 239 q 817 380 795 323 q 840 500 840 436 q 817 622 840 566 q 754 720 794 678 q 661 785 714 762 q 545 808 607 808 q 431 785 484 808 q 337 720 378 762 q 275 622 297 678 q 252 500 252 566 q 275 379 252 435 q 337 281 297 323 q 430 216 377 239 q 545 192 484 192 m 715 1050 q 630 1085 665 1050 q 595 1168 595 1119 q 630 1254 595 1219 q 715 1289 665 1289 q 797 1254 764 1289 q 831 1168 831 1219 q 797 1085 831 1119 q 715 1050 764 1050 m 381 1050 q 297 1085 332 1050 q 262 1168 262 1119 q 297 1254 262 1219 q 381 1289 332 1289 q 465 1254 431 1289 q 499 1168 499 1219 q 465 1085 499 1119 q 381 1050 431 1050 m 274 1340 l 274 1481 l 816 1481 l 816 1340 l 274 1340 z "},"Ȱ":{"ha":1092,"x_min":31,"x_max":1061,"o":"m 547 -11 q 346 28 439 -11 q 181 137 252 67 q 70 300 110 207 q 31 500 31 393 q 70 701 31 608 q 180 863 110 793 q 345 971 251 932 q 547 1010 439 1010 q 749 971 656 1010 q 913 863 843 932 q 1022 701 983 793 q 1061 500 1061 608 q 1022 300 1061 393 q 913 137 983 207 q 749 28 843 67 q 547 -11 656 -11 m 545 192 q 661 216 608 192 q 755 281 715 239 q 817 380 795 323 q 840 500 840 436 q 817 622 840 566 q 754 720 794 678 q 661 785 714 762 q 545 808 607 808 q 431 785 484 808 q 337 720 378 762 q 275 622 297 678 q 252 500 252 566 q 275 379 252 435 q 337 281 297 323 q 430 216 377 239 q 545 192 484 192 m 550 1060 q 457 1098 495 1060 q 419 1190 419 1136 q 457 1283 419 1246 q 550 1321 495 1321 q 643 1283 605 1321 q 680 1190 680 1246 q 643 1098 680 1136 q 550 1060 605 1060 m 274 1367 l 274 1508 l 816 1508 l 816 1367 l 274 1367 z "},"Ọ":{"ha":1092,"x_min":31,"x_max":1061,"o":"m 547 -11 q 346 28 439 -11 q 181 137 252 67 q 70 300 110 207 q 31 500 31 393 q 70 701 31 608 q 180 863 110 793 q 345 971 251 932 q 547 1010 439 1010 q 749 971 656 1010 q 913 863 843 932 q 1022 701 983 793 q 1061 500 1061 608 q 1022 300 1061 393 q 913 137 983 207 q 749 28 843 67 q 547 -11 656 -11 m 545 192 q 661 216 608 192 q 755 281 715 239 q 817 380 795 323 q 840 500 840 436 q 817 622 840 566 q 754 720 794 678 q 661 785 714 762 q 545 808 607 808 q 431 785 484 808 q 337 720 378 762 q 275 622 297 678 q 252 500 252 566 q 275 379 252 435 q 337 281 297 323 q 430 216 377 239 q 545 192 484 192 m 546 -337 q 453 -299 491 -337 q 415 -207 415 -261 q 453 -114 415 -151 q 546 -76 491 -76 q 638 -114 601 -76 q 676 -207 676 -151 q 638 -299 676 -261 q 546 -337 601 -337 z "},"Ò":{"ha":1092,"x_min":31,"x_max":1061,"o":"m 547 -11 q 346 28 439 -11 q 181 137 252 67 q 70 300 110 207 q 31 500 31 393 q 70 701 31 608 q 180 863 110 793 q 345 971 251 932 q 547 1010 439 1010 q 749 971 656 1010 q 913 863 843 932 q 1022 701 983 793 q 1061 500 1061 608 q 1022 300 1061 393 q 913 137 983 207 q 749 28 843 67 q 547 -11 656 -11 m 545 192 q 661 216 608 192 q 755 281 715 239 q 817 380 795 323 q 840 500 840 436 q 817 622 840 566 q 754 720 794 678 q 661 785 714 762 q 545 808 607 808 q 431 785 484 808 q 337 720 378 762 q 275 622 297 678 q 252 500 252 566 q 275 379 252 435 q 337 281 297 323 q 430 216 377 239 q 545 192 484 192 m 545 1048 l 294 1213 l 395 1344 l 633 1137 l 545 1048 z "},"Ỏ":{"ha":1092,"x_min":31,"x_max":1061,"o":"m 547 -11 q 346 28 439 -11 q 181 137 252 67 q 70 300 110 207 q 31 500 31 393 q 70 701 31 608 q 180 863 110 793 q 345 971 251 932 q 547 1010 439 1010 q 749 971 656 1010 q 913 863 843 932 q 1022 701 983 793 q 1061 500 1061 608 q 1022 300 1061 393 q 913 137 983 207 q 749 28 843 67 q 547 -11 656 -11 m 545 192 q 661 216 608 192 q 755 281 715 239 q 817 380 795 323 q 840 500 840 436 q 817 622 840 566 q 754 720 794 678 q 661 785 714 762 q 545 808 607 808 q 431 785 484 808 q 337 720 378 762 q 275 622 297 678 q 252 500 252 566 q 275 379 252 435 q 337 281 297 323 q 430 216 377 239 q 545 192 484 192 m 570 1052 l 494 1126 q 530 1156 513 1138 q 546 1194 546 1175 q 527 1223 546 1213 q 475 1232 507 1232 q 441 1230 459 1232 q 406 1220 423 1227 l 406 1344 q 450 1356 420 1352 q 505 1360 480 1360 q 629 1324 583 1360 q 675 1222 675 1289 q 642 1116 675 1162 q 570 1052 609 1070 z "},"Ơ":{"ha":1092,"x_min":31,"x_max":1061,"o":"m 547 -11 q 346 28 439 -11 q 181 137 252 67 q 70 300 110 207 q 31 500 31 393 q 70 701 31 608 q 180 863 110 793 q 345 971 251 932 q 547 1010 439 1010 q 749 971 656 1010 q 913 863 843 932 q 1022 701 983 793 q 1061 500 1061 608 q 1022 300 1061 393 q 913 137 983 207 q 749 28 843 67 q 547 -11 656 -11 m 545 192 q 661 216 608 192 q 755 281 715 239 q 817 380 795 323 q 840 500 840 436 q 817 622 840 566 q 754 720 794 678 q 661 785 714 762 q 545 808 607 808 q 431 785 484 808 q 337 720 378 762 q 275 622 297 678 q 252 500 252 566 q 275 379 252 435 q 337 281 297 323 q 430 216 377 239 q 545 192 484 192 m 757 829 l 754 966 q 858 997 827 966 q 889 1093 889 1028 q 887 1127 889 1109 q 882 1163 886 1144 l 1034 1192 q 1047 1134 1044 1166 q 1050 1085 1050 1103 q 1007 945 1050 1004 q 897 855 964 886 q 757 829 830 824 z "},"Ớ":{"ha":1092,"x_min":31,"x_max":1061,"o":"m 547 -11 q 346 28 439 -11 q 181 137 252 67 q 70 300 110 207 q 31 500 31 393 q 70 701 31 608 q 180 863 110 793 q 345 971 251 932 q 547 1010 439 1010 q 749 971 656 1010 q 913 863 843 932 q 1022 701 983 793 q 1061 500 1061 608 q 1022 300 1061 393 q 913 137 983 207 q 749 28 843 67 q 547 -11 656 -11 m 545 192 q 661 216 608 192 q 755 281 715 239 q 817 380 795 323 q 840 500 840 436 q 817 622 840 566 q 754 720 794 678 q 661 785 714 762 q 545 808 607 808 q 431 785 484 808 q 337 720 378 762 q 275 622 297 678 q 252 500 252 566 q 275 379 252 435 q 337 281 297 323 q 430 216 377 239 q 545 192 484 192 m 757 829 l 754 966 q 858 997 827 966 q 889 1093 889 1028 q 887 1127 889 1109 q 882 1163 886 1144 l 1034 1192 q 1047 1134 1044 1166 q 1050 1085 1050 1103 q 1007 945 1050 1004 q 897 855 964 886 q 757 829 830 824 m 545 1048 l 457 1137 l 696 1344 l 797 1213 l 545 1048 z "},"Ợ":{"ha":1092,"x_min":31,"x_max":1061,"o":"m 547 -11 q 346 28 439 -11 q 181 137 252 67 q 70 300 110 207 q 31 500 31 393 q 70 701 31 608 q 180 863 110 793 q 345 971 251 932 q 547 1010 439 1010 q 749 971 656 1010 q 913 863 843 932 q 1022 701 983 793 q 1061 500 1061 608 q 1022 300 1061 393 q 913 137 983 207 q 749 28 843 67 q 547 -11 656 -11 m 545 192 q 661 216 608 192 q 755 281 715 239 q 817 380 795 323 q 840 500 840 436 q 817 622 840 566 q 754 720 794 678 q 661 785 714 762 q 545 808 607 808 q 431 785 484 808 q 337 720 378 762 q 275 622 297 678 q 252 500 252 566 q 275 379 252 435 q 337 281 297 323 q 430 216 377 239 q 545 192 484 192 m 757 829 l 754 966 q 858 997 827 966 q 889 1093 889 1028 q 887 1127 889 1109 q 882 1163 886 1144 l 1034 1192 q 1047 1134 1044 1166 q 1050 1085 1050 1103 q 1007 945 1050 1004 q 897 855 964 886 q 757 829 830 824 m 550 -337 q 457 -299 495 -337 q 419 -207 419 -261 q 457 -114 419 -151 q 550 -76 495 -76 q 643 -114 605 -76 q 680 -207 680 -151 q 643 -299 680 -261 q 550 -337 605 -337 z "},"Ờ":{"ha":1092,"x_min":31,"x_max":1061,"o":"m 547 -11 q 346 28 439 -11 q 181 137 252 67 q 70 300 110 207 q 31 500 31 393 q 70 701 31 608 q 180 863 110 793 q 345 971 251 932 q 547 1010 439 1010 q 749 971 656 1010 q 913 863 843 932 q 1022 701 983 793 q 1061 500 1061 608 q 1022 300 1061 393 q 913 137 983 207 q 749 28 843 67 q 547 -11 656 -11 m 545 192 q 661 216 608 192 q 755 281 715 239 q 817 380 795 323 q 840 500 840 436 q 817 622 840 566 q 754 720 794 678 q 661 785 714 762 q 545 808 607 808 q 431 785 484 808 q 337 720 378 762 q 275 622 297 678 q 252 500 252 566 q 275 379 252 435 q 337 281 297 323 q 430 216 377 239 q 545 192 484 192 m 757 829 l 754 966 q 858 997 827 966 q 889 1093 889 1028 q 887 1127 889 1109 q 882 1163 886 1144 l 1034 1192 q 1047 1134 1044 1166 q 1050 1085 1050 1103 q 1007 945 1050 1004 q 897 855 964 886 q 757 829 830 824 m 545 1048 l 294 1213 l 395 1344 l 633 1137 l 545 1048 z "},"Ở":{"ha":1092,"x_min":31,"x_max":1061,"o":"m 547 -11 q 346 28 439 -11 q 181 137 252 67 q 70 300 110 207 q 31 500 31 393 q 70 701 31 608 q 180 863 110 793 q 345 971 251 932 q 547 1010 439 1010 q 749 971 656 1010 q 913 863 843 932 q 1022 701 983 793 q 1061 500 1061 608 q 1022 300 1061 393 q 913 137 983 207 q 749 28 843 67 q 547 -11 656 -11 m 545 192 q 661 216 608 192 q 755 281 715 239 q 817 380 795 323 q 840 500 840 436 q 817 622 840 566 q 754 720 794 678 q 661 785 714 762 q 545 808 607 808 q 431 785 484 808 q 337 720 378 762 q 275 622 297 678 q 252 500 252 566 q 275 379 252 435 q 337 281 297 323 q 430 216 377 239 q 545 192 484 192 m 757 829 l 754 966 q 858 997 827 966 q 889 1093 889 1028 q 887 1127 889 1109 q 882 1163 886 1144 l 1034 1192 q 1047 1134 1044 1166 q 1050 1085 1050 1103 q 1007 945 1050 1004 q 897 855 964 886 q 757 829 830 824 m 570 1052 l 494 1126 q 530 1156 513 1138 q 546 1194 546 1175 q 527 1223 546 1213 q 475 1232 507 1232 q 441 1230 459 1232 q 406 1220 423 1227 l 406 1344 q 450 1356 420 1352 q 505 1360 480 1360 q 629 1324 583 1360 q 675 1222 675 1289 q 642 1116 675 1162 q 570 1052 609 1070 z "},"Ỡ":{"ha":1092,"x_min":31,"x_max":1061,"o":"m 547 -11 q 346 28 439 -11 q 181 137 252 67 q 70 300 110 207 q 31 500 31 393 q 70 701 31 608 q 180 863 110 793 q 345 971 251 932 q 547 1010 439 1010 q 749 971 656 1010 q 913 863 843 932 q 1022 701 983 793 q 1061 500 1061 608 q 1022 300 1061 393 q 913 137 983 207 q 749 28 843 67 q 547 -11 656 -11 m 545 192 q 661 216 608 192 q 755 281 715 239 q 817 380 795 323 q 840 500 840 436 q 817 622 840 566 q 754 720 794 678 q 661 785 714 762 q 545 808 607 808 q 431 785 484 808 q 337 720 378 762 q 275 622 297 678 q 252 500 252 566 q 275 379 252 435 q 337 281 297 323 q 430 216 377 239 q 545 192 484 192 m 757 829 l 754 966 q 858 997 827 966 q 889 1093 889 1028 q 887 1127 889 1109 q 882 1163 886 1144 l 1034 1192 q 1047 1134 1044 1166 q 1050 1085 1050 1103 q 1007 945 1050 1004 q 897 855 964 886 q 757 829 830 824 m 286 1067 q 328 1215 286 1156 q 446 1271 370 1274 q 512 1261 486 1272 q 556 1234 538 1250 q 590 1207 574 1219 q 625 1195 606 1195 q 665 1217 652 1195 q 677 1271 677 1238 l 805 1271 q 764 1127 806 1185 q 642 1067 722 1069 q 578 1080 604 1068 q 534 1108 553 1093 q 499 1135 515 1124 q 463 1146 482 1147 q 426 1126 437 1147 q 414 1067 414 1105 l 286 1067 z "},"Ő":{"ha":1092,"x_min":31,"x_max":1061,"o":"m 547 -11 q 346 28 439 -11 q 181 137 252 67 q 70 300 110 207 q 31 500 31 393 q 70 701 31 608 q 180 863 110 793 q 345 971 251 932 q 547 1010 439 1010 q 749 971 656 1010 q 913 863 843 932 q 1022 701 983 793 q 1061 500 1061 608 q 1022 300 1061 393 q 913 137 983 207 q 749 28 843 67 q 547 -11 656 -11 m 545 192 q 661 216 608 192 q 755 281 715 239 q 817 380 795 323 q 840 500 840 436 q 817 622 840 566 q 754 720 794 678 q 661 785 714 762 q 545 808 607 808 q 431 785 484 808 q 337 720 378 762 q 275 622 297 678 q 252 500 252 566 q 275 379 252 435 q 337 281 297 323 q 430 216 377 239 q 545 192 484 192 m 455 1060 l 347 1112 l 494 1356 l 632 1278 l 455 1060 m 726 1060 l 619 1112 l 761 1356 l 901 1278 l 726 1060 z "},"Ȏ":{"ha":1092,"x_min":31,"x_max":1061,"o":"m 547 -11 q 346 28 439 -11 q 181 137 252 67 q 70 300 110 207 q 31 500 31 393 q 70 701 31 608 q 180 863 110 793 q 345 971 251 932 q 547 1010 439 1010 q 749 971 656 1010 q 913 863 843 932 q 1022 701 983 793 q 1061 500 1061 608 q 1022 300 1061 393 q 913 137 983 207 q 749 28 843 67 q 547 -11 656 -11 m 545 192 q 661 216 608 192 q 755 281 715 239 q 817 380 795 323 q 840 500 840 436 q 817 622 840 566 q 754 720 794 678 q 661 785 714 762 q 545 808 607 808 q 431 785 484 808 q 337 720 378 762 q 275 622 297 678 q 252 500 252 566 q 275 379 252 435 q 337 281 297 323 q 430 216 377 239 q 545 192 484 192 m 545 1284 q 675 1257 615 1282 q 771 1184 734 1232 q 806 1065 807 1136 l 676 1065 q 638 1144 678 1120 q 545 1168 597 1168 q 455 1144 495 1168 q 414 1065 414 1119 l 286 1065 q 322 1184 286 1136 q 417 1257 358 1232 q 545 1284 475 1282 z "},"Ō":{"ha":1092,"x_min":31,"x_max":1061,"o":"m 547 -11 q 346 28 439 -11 q 181 137 252 67 q 70 300 110 207 q 31 500 31 393 q 70 701 31 608 q 180 863 110 793 q 345 971 251 932 q 547 1010 439 1010 q 749 971 656 1010 q 913 863 843 932 q 1022 701 983 793 q 1061 500 1061 608 q 1022 300 1061 393 q 913 137 983 207 q 749 28 843 67 q 547 -11 656 -11 m 545 192 q 661 216 608 192 q 755 281 715 239 q 817 380 795 323 q 840 500 840 436 q 817 622 840 566 q 754 720 794 678 q 661 785 714 762 q 545 808 607 808 q 431 785 484 808 q 337 720 378 762 q 275 622 297 678 q 252 500 252 566 q 275 379 252 435 q 337 281 297 323 q 430 216 377 239 q 545 192 484 192 m 274 1098 l 274 1239 l 816 1239 l 816 1098 l 274 1098 z "},"Ṓ":{"ha":1092,"x_min":31,"x_max":1061,"o":"m 341 1098 l 341 1239 l 883 1239 l 883 1098 l 341 1098 m 612 1288 l 524 1377 l 763 1584 l 863 1453 l 612 1288 m 547 -11 q 346 28 439 -11 q 181 137 252 67 q 70 300 110 207 q 31 500 31 393 q 70 701 31 608 q 180 863 110 793 q 345 971 251 932 q 547 1010 439 1010 q 749 971 656 1010 q 913 863 843 932 q 1022 701 983 793 q 1061 500 1061 608 q 1022 300 1061 393 q 913 137 983 207 q 749 28 843 67 q 547 -11 656 -11 m 545 192 q 661 216 608 192 q 755 281 715 239 q 817 380 795 323 q 840 500 840 436 q 817 622 840 566 q 754 720 794 678 q 661 785 714 762 q 545 808 607 808 q 431 785 484 808 q 337 720 378 762 q 275 622 297 678 q 252 500 252 566 q 275 379 252 435 q 337 281 297 323 q 430 216 377 239 q 545 192 484 192 z "},"Ṑ":{"ha":1092,"x_min":31,"x_max":1061,"o":"m 547 -11 q 346 28 439 -11 q 181 137 252 67 q 70 300 110 207 q 31 500 31 393 q 70 701 31 608 q 180 863 110 793 q 345 971 251 932 q 547 1010 439 1010 q 749 971 656 1010 q 913 863 843 932 q 1022 701 983 793 q 1061 500 1061 608 q 1022 300 1061 393 q 913 137 983 207 q 749 28 843 67 q 547 -11 656 -11 m 545 192 q 661 216 608 192 q 755 281 715 239 q 817 380 795 323 q 840 500 840 436 q 817 622 840 566 q 754 720 794 678 q 661 785 714 762 q 545 808 607 808 q 431 785 484 808 q 337 720 378 762 q 275 622 297 678 q 252 500 252 566 q 275 379 252 435 q 337 281 297 323 q 430 216 377 239 q 545 192 484 192 m 274 1098 l 274 1239 l 816 1239 l 816 1098 l 274 1098 m 545 1288 l 294 1453 l 395 1584 l 633 1377 l 545 1288 z "},"Ǫ":{"ha":1092,"x_min":31,"x_max":1061,"o":"m 547 -11 q 346 28 439 -11 q 181 137 252 67 q 70 300 110 207 q 31 500 31 393 q 70 701 31 608 q 180 863 110 793 q 345 971 251 932 q 547 1010 439 1010 q 749 971 656 1010 q 913 863 843 932 q 1022 701 983 793 q 1061 500 1061 608 q 1022 300 1061 393 q 913 137 983 207 q 749 28 843 67 q 547 -11 656 -11 m 545 192 q 661 216 608 192 q 755 281 715 239 q 817 380 795 323 q 840 500 840 436 q 817 622 840 566 q 754 720 794 678 q 661 785 714 762 q 545 808 607 808 q 431 785 484 808 q 337 720 378 762 q 275 622 297 678 q 252 500 252 566 q 275 379 252 435 q 337 281 297 323 q 430 216 377 239 q 545 192 484 192 m 540 -293 q 428 -255 471 -293 q 385 -155 385 -218 q 427 -53 385 -97 q 537 34 468 -9 l 647 0 q 583 -43 612 -22 q 535 -86 553 -64 q 516 -130 516 -107 q 532 -162 516 -151 q 577 -173 547 -173 q 618 -168 597 -173 q 651 -157 640 -163 l 651 -275 q 598 -288 631 -283 q 540 -293 564 -293 z "},"Ø":{"ha":1092,"x_min":5,"x_max":1081,"o":"m 547 -11 q 346 28 439 -11 q 181 137 252 67 q 70 300 110 207 q 31 500 31 393 q 70 701 31 608 q 180 863 110 793 q 345 971 251 932 q 547 1010 439 1010 q 749 971 656 1010 q 913 863 843 932 q 1022 701 983 793 q 1061 500 1061 608 q 1022 300 1061 393 q 913 137 983 207 q 749 28 843 67 q 547 -11 656 -11 m 545 192 q 661 216 608 192 q 755 281 715 239 q 817 380 795 323 q 840 500 840 436 q 817 622 840 566 q 754 720 794 678 q 661 785 714 762 q 545 808 607 808 q 431 785 484 808 q 337 720 378 762 q 275 622 297 678 q 252 500 252 566 q 275 379 252 435 q 337 281 297 323 q 430 216 377 239 q 545 192 484 192 m 5 0 l 892 1000 l 1080 1000 l 194 0 l 5 0 z "},"Ǿ":{"ha":1092,"x_min":5,"x_max":1081,"o":"m 547 -11 q 346 28 439 -11 q 181 137 252 67 q 70 300 110 207 q 31 500 31 393 q 70 701 31 608 q 180 863 110 793 q 345 971 251 932 q 547 1010 439 1010 q 749 971 656 1010 q 913 863 843 932 q 1022 701 983 793 q 1061 500 1061 608 q 1022 300 1061 393 q 913 137 983 207 q 749 28 843 67 q 547 -11 656 -11 m 545 192 q 661 216 608 192 q 755 281 715 239 q 817 380 795 323 q 840 500 840 436 q 817 622 840 566 q 754 720 794 678 q 661 785 714 762 q 545 808 607 808 q 431 785 484 808 q 337 720 378 762 q 275 622 297 678 q 252 500 252 566 q 275 379 252 435 q 337 281 297 323 q 430 216 377 239 q 545 192 484 192 m 5 0 l 892 1000 l 1080 1000 l 194 0 l 5 0 m 545 1048 l 457 1137 l 696 1344 l 797 1213 l 545 1048 z "},"Õ":{"ha":1092,"x_min":31,"x_max":1061,"o":"m 547 -11 q 346 28 439 -11 q 181 137 252 67 q 70 300 110 207 q 31 500 31 393 q 70 701 31 608 q 180 863 110 793 q 345 971 251 932 q 547 1010 439 1010 q 749 971 656 1010 q 913 863 843 932 q 1022 701 983 793 q 1061 500 1061 608 q 1022 300 1061 393 q 913 137 983 207 q 749 28 843 67 q 547 -11 656 -11 m 545 192 q 661 216 608 192 q 755 281 715 239 q 817 380 795 323 q 840 500 840 436 q 817 622 840 566 q 754 720 794 678 q 661 785 714 762 q 545 808 607 808 q 431 785 484 808 q 337 720 378 762 q 275 622 297 678 q 252 500 252 566 q 275 379 252 435 q 337 281 297 323 q 430 216 377 239 q 545 192 484 192 m 286 1067 q 328 1215 286 1156 q 446 1271 370 1274 q 512 1261 486 1272 q 556 1234 538 1250 q 590 1207 574 1219 q 625 1195 606 1195 q 665 1217 652 1195 q 677 1271 677 1238 l 805 1271 q 764 1127 806 1185 q 642 1067 722 1069 q 578 1080 604 1068 q 534 1108 553 1093 q 499 1135 515 1124 q 463 1146 482 1147 q 426 1126 437 1147 q 414 1067 414 1105 l 286 1067 z "},"Ṍ":{"ha":1092,"x_min":31,"x_max":1061,"o":"m 547 -11 q 346 28 439 -11 q 181 137 252 67 q 70 300 110 207 q 31 500 31 393 q 70 701 31 608 q 180 863 110 793 q 345 971 251 932 q 547 1010 439 1010 q 749 971 656 1010 q 913 863 843 932 q 1022 701 983 793 q 1061 500 1061 608 q 1022 300 1061 393 q 913 137 983 207 q 749 28 843 67 q 547 -11 656 -11 m 545 192 q 661 216 608 192 q 755 281 715 239 q 817 380 795 323 q 840 500 840 436 q 817 622 840 566 q 754 720 794 678 q 661 785 714 762 q 545 808 607 808 q 431 785 484 808 q 337 720 378 762 q 275 622 297 678 q 252 500 252 566 q 275 379 252 435 q 337 281 297 323 q 430 216 377 239 q 545 192 484 192 m 286 1067 q 328 1215 286 1156 q 446 1271 370 1274 q 512 1261 486 1272 q 556 1234 538 1250 q 590 1207 574 1219 q 625 1195 606 1195 q 665 1217 652 1195 q 677 1271 677 1238 l 805 1271 q 764 1127 806 1185 q 642 1067 722 1069 q 578 1080 604 1068 q 534 1108 553 1093 q 499 1135 515 1124 q 463 1146 482 1147 q 426 1126 437 1147 q 414 1067 414 1105 l 286 1067 m 545 1314 l 457 1403 l 696 1610 l 797 1479 l 545 1314 z "},"Ṏ":{"ha":1092,"x_min":31,"x_max":1061,"o":"m 547 -11 q 346 28 439 -11 q 181 137 252 67 q 70 300 110 207 q 31 500 31 393 q 70 701 31 608 q 180 863 110 793 q 345 971 251 932 q 547 1010 439 1010 q 749 971 656 1010 q 913 863 843 932 q 1022 701 983 793 q 1061 500 1061 608 q 1022 300 1061 393 q 913 137 983 207 q 749 28 843 67 q 547 -11 656 -11 m 545 192 q 661 216 608 192 q 755 281 715 239 q 817 380 795 323 q 840 500 840 436 q 817 622 840 566 q 754 720 794 678 q 661 785 714 762 q 545 808 607 808 q 431 785 484 808 q 337 720 378 762 q 275 622 297 678 q 252 500 252 566 q 275 379 252 435 q 337 281 297 323 q 430 216 377 239 q 545 192 484 192 m 286 1067 q 328 1215 286 1156 q 446 1271 370 1274 q 512 1261 486 1272 q 556 1234 538 1250 q 590 1207 574 1219 q 625 1195 606 1195 q 665 1217 652 1195 q 677 1271 677 1238 l 805 1271 q 764 1127 806 1185 q 642 1067 722 1069 q 578 1080 604 1068 q 534 1108 553 1093 q 499 1135 515 1124 q 463 1146 482 1147 q 426 1126 437 1147 q 414 1067 414 1105 l 286 1067 m 715 1316 q 630 1351 665 1316 q 595 1434 595 1385 q 630 1519 595 1485 q 715 1554 665 1554 q 797 1519 764 1554 q 831 1434 831 1485 q 797 1351 831 1385 q 715 1316 764 1316 m 381 1316 q 297 1351 332 1316 q 262 1434 262 1385 q 297 1519 262 1485 q 381 1554 332 1554 q 465 1519 431 1554 q 499 1434 499 1485 q 465 1351 499 1385 q 381 1316 431 1316 z "},"Ȭ":{"ha":1092,"x_min":31,"x_max":1061,"o":"m 547 -11 q 346 28 439 -11 q 181 137 252 67 q 70 300 110 207 q 31 500 31 393 q 70 701 31 608 q 180 863 110 793 q 345 971 251 932 q 547 1010 439 1010 q 749 971 656 1010 q 913 863 843 932 q 1022 701 983 793 q 1061 500 1061 608 q 1022 300 1061 393 q 913 137 983 207 q 749 28 843 67 q 547 -11 656 -11 m 545 192 q 661 216 608 192 q 755 281 715 239 q 817 380 795 323 q 840 500 840 436 q 817 622 840 566 q 754 720 794 678 q 661 785 714 762 q 545 808 607 808 q 431 785 484 808 q 337 720 378 762 q 275 622 297 678 q 252 500 252 566 q 275 379 252 435 q 337 281 297 323 q 430 216 377 239 q 545 192 484 192 m 286 1067 q 328 1215 286 1156 q 446 1271 370 1274 q 512 1261 486 1272 q 556 1234 538 1250 q 590 1207 574 1219 q 625 1195 606 1195 q 665 1217 652 1195 q 677 1271 677 1238 l 805 1271 q 764 1127 806 1185 q 642 1067 722 1069 q 578 1080 604 1068 q 534 1108 553 1093 q 499 1135 515 1124 q 463 1146 482 1147 q 426 1126 437 1147 q 414 1067 414 1105 l 286 1067 m 274 1364 l 274 1505 l 816 1505 l 816 1364 l 274 1364 z "},"Œ":{"ha":1427,"x_min":31,"x_max":1366,"o":"m 530 -11 q 339 27 429 -11 q 180 134 249 65 q 71 296 111 203 q 31 502 31 390 q 70 706 31 612 q 179 867 109 799 q 341 973 250 935 q 537 1010 433 1010 q 692 983 625 1010 q 809 905 760 956 q 891 779 858 853 l 809 779 l 809 1000 l 1366 1000 l 1366 802 l 1006 802 l 1006 602 l 1307 602 l 1307 410 l 1006 410 l 1006 198 l 1366 198 l 1366 0 l 809 0 l 809 222 l 891 222 q 804 96 857 149 q 683 17 752 44 q 530 -11 614 -11 m 543 184 q 690 225 626 184 q 792 336 755 265 q 829 500 829 408 q 792 665 829 594 q 690 775 755 736 q 543 815 625 815 q 395 775 461 815 q 291 664 330 735 q 252 500 252 593 q 274 374 252 432 q 336 274 296 316 q 428 208 375 231 q 543 184 481 184 z "},"P":{"ha":829,"x_min":91,"x_max":799,"o":"m 269 326 l 269 522 l 426 522 q 508 540 473 522 q 562 590 543 558 q 581 663 581 623 q 537 764 581 727 q 418 802 493 802 l 269 802 l 269 1000 l 431 1000 q 628 959 546 1000 q 755 844 711 918 q 799 670 799 770 q 753 490 799 568 q 627 369 708 412 q 437 326 545 326 l 269 326 m 91 0 l 91 1000 l 313 1000 l 313 0 l 91 0 z "},"Þ":{"ha":840,"x_min":91,"x_max":802,"o":"m 264 165 l 264 359 l 443 359 q 549 400 509 359 q 589 503 589 441 q 547 606 589 568 q 435 644 506 644 l 264 644 l 264 838 l 446 838 q 634 798 555 838 q 758 684 714 758 q 802 509 802 611 q 758 330 802 407 q 635 209 714 252 q 451 165 557 165 l 264 165 m 91 0 l 91 1000 l 313 1000 l 313 0 l 91 0 z "},"Q":{"ha":1142,"x_min":31,"x_max":1090,"o":"m 867 0 l 763 130 l 663 202 l 460 422 l 700 422 l 817 282 l 933 193 l 1090 0 l 867 0 m 547 -11 q 346 28 439 -11 q 181 137 252 67 q 70 300 110 207 q 31 500 31 393 q 70 701 31 608 q 180 863 110 793 q 345 971 251 932 q 547 1010 439 1010 q 749 971 656 1010 q 913 863 843 932 q 1022 701 983 793 q 1061 500 1061 608 q 1022 300 1061 393 q 913 137 983 207 q 749 28 843 67 q 547 -11 656 -11 m 545 192 q 661 216 608 192 q 755 281 715 239 q 817 380 795 323 q 840 500 840 436 q 817 622 840 566 q 754 720 794 678 q 661 785 714 762 q 545 808 607 808 q 431 785 484 808 q 337 720 378 762 q 275 622 297 678 q 252 500 252 566 q 275 379 252 435 q 337 281 297 323 q 430 216 377 239 q 545 192 484 192 z "},"R":{"ha":918,"x_min":91,"x_max":888,"o":"m 249 345 l 249 526 l 425 526 q 507 544 471 526 q 561 592 542 561 q 581 663 581 623 q 535 764 581 727 q 417 802 490 802 l 249 802 l 249 1000 l 452 1000 q 628 964 550 1000 q 752 860 707 928 q 798 692 798 791 q 750 516 798 595 q 612 391 703 437 q 396 345 522 345 l 249 345 m 91 0 l 91 1000 l 313 1000 l 313 0 l 91 0 m 637 0 l 422 377 l 587 509 l 888 0 l 637 0 z "},"Ŕ":{"ha":918,"x_min":91,"x_max":888,"o":"m 249 345 l 249 526 l 425 526 q 507 544 471 526 q 561 592 542 561 q 581 663 581 623 q 535 764 581 727 q 417 802 490 802 l 249 802 l 249 1000 l 452 1000 q 628 964 550 1000 q 752 860 707 928 q 798 692 798 791 q 750 516 798 595 q 612 391 703 437 q 396 345 522 345 l 249 345 m 91 0 l 91 1000 l 313 1000 l 313 0 l 91 0 m 637 0 l 422 377 l 587 509 l 888 0 l 637 0 m 424 1048 l 336 1137 l 575 1344 l 675 1213 l 424 1048 z "},"Ř":{"ha":918,"x_min":91,"x_max":888,"o":"m 249 345 l 249 526 l 425 526 q 507 544 471 526 q 561 592 542 561 q 581 663 581 623 q 535 764 581 727 q 417 802 490 802 l 249 802 l 249 1000 l 452 1000 q 628 964 550 1000 q 752 860 707 928 q 798 692 798 791 q 750 516 798 595 q 612 391 703 437 q 396 345 522 345 l 249 345 m 91 0 l 91 1000 l 313 1000 l 313 0 l 91 0 m 637 0 l 422 377 l 587 509 l 888 0 l 637 0 m 254 1314 l 421 1188 l 425 1188 l 596 1314 l 688 1215 l 445 1047 l 403 1047 l 159 1215 l 254 1314 z "},"Ŗ":{"ha":918,"x_min":91,"x_max":888,"o":"m 249 345 l 249 526 l 425 526 q 507 544 471 526 q 561 592 542 561 q 581 663 581 623 q 535 764 581 727 q 417 802 490 802 l 249 802 l 249 1000 l 452 1000 q 628 964 550 1000 q 752 860 707 928 q 798 692 798 791 q 750 516 798 595 q 612 391 703 437 q 396 345 522 345 l 249 345 m 91 0 l 91 1000 l 313 1000 l 313 0 l 91 0 m 637 0 l 422 377 l 587 509 l 888 0 l 637 0 m 396 -423 l 354 -370 l 419 -319 q 445 -295 429 -310 q 471 -261 460 -279 q 482 -229 482 -243 l 508 -228 q 495 -259 507 -245 q 456 -273 483 -273 q 393 -247 423 -273 q 362 -179 363 -221 q 391 -113 363 -138 q 456 -89 419 -87 q 526 -114 497 -87 q 554 -193 554 -140 q 538 -269 554 -235 q 502 -326 523 -302 q 465 -363 481 -350 l 396 -423 z "},"Ȑ":{"ha":918,"x_min":65,"x_max":888,"o":"m 249 345 l 249 526 l 425 526 q 507 544 471 526 q 561 592 542 561 q 581 663 581 623 q 535 764 581 727 q 417 802 490 802 l 249 802 l 249 1000 l 452 1000 q 628 964 550 1000 q 752 860 707 928 q 798 692 798 791 q 750 516 798 595 q 612 391 703 437 q 396 345 522 345 l 249 345 m 91 0 l 91 1000 l 313 1000 l 313 0 l 91 0 m 637 0 l 422 377 l 587 509 l 888 0 l 637 0 m 242 1060 l 64 1278 l 205 1357 l 350 1112 l 242 1060 m 510 1060 l 336 1278 l 477 1357 l 618 1112 l 510 1060 z "},"Ṛ":{"ha":918,"x_min":91,"x_max":888,"o":"m 249 345 l 249 526 l 425 526 q 507 544 471 526 q 561 592 542 561 q 581 663 581 623 q 535 764 581 727 q 417 802 490 802 l 249 802 l 249 1000 l 452 1000 q 628 964 550 1000 q 752 860 707 928 q 798 692 798 791 q 750 516 798 595 q 612 391 703 437 q 396 345 522 345 l 249 345 m 91 0 l 91 1000 l 313 1000 l 313 0 l 91 0 m 637 0 l 422 377 l 587 509 l 888 0 l 637 0 m 466 -337 q 373 -299 411 -337 q 335 -207 335 -261 q 373 -114 335 -151 q 466 -76 411 -76 q 558 -114 521 -76 q 596 -207 596 -151 q 558 -299 596 -261 q 466 -337 521 -337 z "},"Ȓ":{"ha":918,"x_min":91,"x_max":888,"o":"m 249 345 l 249 526 l 425 526 q 507 544 471 526 q 561 592 542 561 q 581 663 581 623 q 535 764 581 727 q 417 802 490 802 l 249 802 l 249 1000 l 452 1000 q 628 964 550 1000 q 752 860 707 928 q 798 692 798 791 q 750 516 798 595 q 612 391 703 437 q 396 345 522 345 l 249 345 m 91 0 l 91 1000 l 313 1000 l 313 0 l 91 0 m 637 0 l 422 377 l 587 509 l 888 0 l 637 0 m 424 1284 q 553 1257 494 1282 q 649 1184 613 1232 q 684 1065 686 1136 l 555 1065 q 517 1144 557 1120 q 424 1168 477 1168 q 334 1144 374 1168 q 292 1065 294 1119 l 165 1065 q 201 1184 165 1136 q 296 1257 237 1232 q 424 1284 355 1282 z "},"Ṟ":{"ha":918,"x_min":91,"x_max":888,"o":"m 249 345 l 249 526 l 425 526 q 507 544 471 526 q 561 592 542 561 q 581 663 581 623 q 535 764 581 727 q 417 802 490 802 l 249 802 l 249 1000 l 452 1000 q 628 964 550 1000 q 752 860 707 928 q 798 692 798 791 q 750 516 798 595 q 612 391 703 437 q 396 345 522 345 l 249 345 m 91 0 l 91 1000 l 313 1000 l 313 0 l 91 0 m 637 0 l 422 377 l 587 509 l 888 0 l 637 0 m 184 -285 l 184 -155 l 745 -155 l 745 -285 l 184 -285 z "},"S":{"ha":813,"x_min":45,"x_max":759,"o":"m 418 -11 q 254 22 331 -11 q 122 112 177 56 q 45 235 66 168 l 256 323 q 290 261 267 292 q 344 211 312 231 q 417 191 376 191 q 477 205 450 191 q 521 242 505 218 q 538 294 538 265 q 517 349 538 326 q 466 388 497 372 q 401 415 435 404 q 340 435 367 426 q 213 494 272 457 q 117 588 154 530 q 81 728 81 645 q 121 876 81 812 q 233 975 161 940 q 402 1010 306 1010 q 555 983 489 1010 q 666 909 621 956 q 734 804 711 862 l 530 721 q 507 761 524 739 q 464 798 490 782 q 404 813 437 813 q 333 790 365 813 q 301 725 301 766 q 323 667 301 691 q 379 626 346 643 q 445 599 412 610 q 500 581 479 588 q 572 554 529 573 q 658 503 615 536 q 729 420 701 471 q 758 298 758 370 q 714 142 759 213 q 593 31 670 72 q 418 -11 516 -11 z "},"Ś":{"ha":807,"x_min":45,"x_max":759,"o":"m 418 -11 q 254 22 331 -11 q 122 112 177 56 q 45 235 66 168 l 256 323 q 290 261 267 292 q 344 211 312 231 q 417 191 376 191 q 477 205 450 191 q 521 242 505 218 q 538 294 538 265 q 517 349 538 326 q 466 388 497 372 q 401 415 435 404 q 340 435 367 426 q 213 494 272 457 q 117 588 154 530 q 81 728 81 645 q 121 876 81 812 q 233 975 161 940 q 402 1010 306 1010 q 555 983 489 1010 q 666 909 621 956 q 734 804 711 862 l 530 721 q 507 761 524 739 q 464 798 490 782 q 404 813 437 813 q 333 790 365 813 q 301 725 301 766 q 323 667 301 691 q 379 626 346 643 q 445 599 412 610 q 500 581 479 588 q 572 554 529 573 q 658 503 615 536 q 729 420 701 471 q 758 298 758 370 q 714 142 759 213 q 593 31 670 72 q 418 -11 516 -11 m 404 1048 l 315 1137 l 555 1344 l 655 1213 l 404 1048 z "},"Ṥ":{"ha":807,"x_min":45,"x_max":759,"o":"m 418 -11 q 254 22 331 -11 q 122 112 177 56 q 45 235 66 168 l 256 323 q 290 261 267 292 q 344 211 312 231 q 417 191 376 191 q 477 205 450 191 q 521 242 505 218 q 538 294 538 265 q 517 349 538 326 q 466 388 497 372 q 401 415 435 404 q 340 435 367 426 q 213 494 272 457 q 117 588 154 530 q 81 728 81 645 q 121 876 81 812 q 233 975 161 940 q 402 1010 306 1010 q 555 983 489 1010 q 666 909 621 956 q 734 804 711 862 l 530 721 q 507 761 524 739 q 464 798 490 782 q 404 813 437 813 q 333 790 365 813 q 301 725 301 766 q 323 667 301 691 q 379 626 346 643 q 445 599 412 610 q 500 581 479 588 q 572 554 529 573 q 658 503 615 536 q 729 420 701 471 q 758 298 758 370 q 714 142 759 213 q 593 31 670 72 q 418 -11 516 -11 m 519 1054 l 429 1131 l 629 1388 l 749 1271 l 519 1054 m 245 1083 q 152 1121 190 1083 q 114 1213 114 1159 q 152 1306 114 1269 q 245 1344 190 1344 q 337 1306 300 1344 q 375 1213 375 1269 q 337 1121 375 1159 q 245 1083 300 1083 z "},"Š":{"ha":807,"x_min":41,"x_max":756,"o":"m 414 -11 q 251 22 328 -11 q 119 112 174 56 q 41 236 63 168 l 253 325 q 287 261 264 292 q 342 211 310 231 q 416 192 375 192 q 475 205 448 192 q 518 242 502 219 q 534 294 534 265 q 513 351 534 328 q 461 389 492 374 q 396 415 429 405 q 336 434 362 426 q 210 493 270 456 q 113 587 151 530 q 76 729 76 645 q 116 875 76 812 q 228 975 155 939 q 399 1010 300 1010 q 552 983 486 1010 q 663 910 618 956 q 732 805 709 863 l 528 722 q 503 763 520 742 q 459 799 485 785 q 401 813 433 813 q 328 789 359 813 q 297 724 297 764 q 320 666 297 690 q 377 625 343 642 q 445 597 411 608 q 499 580 478 586 q 572 553 529 571 q 656 503 614 534 q 727 421 699 471 q 755 300 755 372 q 711 143 756 214 q 589 31 667 73 q 414 -11 512 -11 m 234 1314 l 401 1188 l 404 1188 l 575 1314 l 667 1215 l 424 1047 l 382 1047 l 138 1215 l 234 1314 z "},"Ṧ":{"ha":807,"x_min":41,"x_max":756,"o":"m 414 -11 q 251 22 328 -11 q 119 112 174 56 q 41 236 63 168 l 253 325 q 287 261 264 292 q 342 211 310 231 q 416 192 375 192 q 475 205 448 192 q 518 242 502 219 q 534 294 534 265 q 513 351 534 328 q 461 389 492 374 q 396 415 429 405 q 336 434 362 426 q 210 493 270 456 q 113 587 151 530 q 76 729 76 645 q 116 875 76 812 q 228 975 155 939 q 399 1010 300 1010 q 552 983 486 1010 q 663 910 618 956 q 732 805 709 863 l 528 722 q 503 763 520 742 q 459 799 485 785 q 401 813 433 813 q 328 789 359 813 q 297 724 297 764 q 320 666 297 690 q 377 625 343 642 q 445 597 411 608 q 499 580 478 586 q 572 553 529 571 q 656 503 614 534 q 727 421 699 471 q 755 300 755 372 q 711 143 756 214 q 589 31 667 73 q 414 -11 512 -11 m 234 1314 l 401 1188 l 404 1188 l 575 1314 l 667 1215 l 424 1047 l 382 1047 l 138 1215 l 234 1314 m 408 1296 q 315 1334 353 1296 q 277 1426 277 1372 q 315 1519 277 1482 q 408 1557 353 1557 q 501 1519 463 1557 q 538 1426 538 1482 q 501 1334 538 1372 q 408 1296 463 1296 z "},"Ş":{"ha":807,"x_min":45,"x_max":759,"o":"m 418 -11 q 254 22 331 -11 q 122 112 177 56 q 45 235 66 168 l 256 323 q 290 261 267 292 q 344 211 312 231 q 417 191 376 191 q 477 205 450 191 q 521 242 505 218 q 538 294 538 265 q 517 349 538 326 q 466 388 497 372 q 401 415 435 404 q 340 435 367 426 q 213 494 272 457 q 117 588 154 530 q 81 728 81 645 q 121 876 81 812 q 233 975 161 940 q 402 1010 306 1010 q 555 983 489 1010 q 666 909 621 956 q 734 804 711 862 l 530 721 q 507 761 524 739 q 464 798 490 782 q 404 813 437 813 q 333 790 365 813 q 301 725 301 766 q 323 667 301 691 q 379 626 346 643 q 445 599 412 610 q 500 581 479 588 q 572 554 529 573 q 658 503 615 536 q 729 420 701 471 q 758 298 758 370 q 714 142 759 213 q 593 31 670 72 q 418 -11 516 -11 m 307 -347 l 307 -243 q 415 -229 382 -245 q 448 -187 448 -213 q 421 -153 448 -168 q 345 -136 395 -139 l 390 0 l 482 0 l 441 -111 l 433 -64 q 535 -108 496 -75 q 574 -197 574 -142 q 510 -307 574 -264 q 307 -347 447 -349 z "},"Ŝ":{"ha":807,"x_min":45,"x_max":759,"o":"m 418 -11 q 254 22 331 -11 q 122 112 177 56 q 45 235 66 168 l 256 323 q 290 261 267 292 q 344 211 312 231 q 417 191 376 191 q 477 205 450 191 q 521 242 505 218 q 538 294 538 265 q 517 349 538 326 q 466 388 497 372 q 401 415 435 404 q 340 435 367 426 q 213 494 272 457 q 117 588 154 530 q 81 728 81 645 q 121 876 81 812 q 233 975 161 940 q 402 1010 306 1010 q 555 983 489 1010 q 666 909 621 956 q 734 804 711 862 l 530 721 q 507 761 524 739 q 464 798 490 782 q 404 813 437 813 q 333 790 365 813 q 301 725 301 766 q 323 667 301 691 q 379 626 346 643 q 445 599 412 610 q 500 581 479 588 q 572 554 529 573 q 658 503 615 536 q 729 420 701 471 q 758 298 758 370 q 714 142 759 213 q 593 31 670 72 q 418 -11 516 -11 m 235 1050 l 139 1149 l 383 1317 l 425 1317 l 668 1149 l 576 1050 l 405 1177 l 401 1177 l 235 1050 z "},"Ș":{"ha":807,"x_min":45,"x_max":759,"o":"m 418 -11 q 254 22 331 -11 q 122 112 177 56 q 45 235 66 168 l 256 323 q 290 261 267 292 q 344 211 312 231 q 417 191 376 191 q 477 205 450 191 q 521 242 505 218 q 538 294 538 265 q 517 349 538 326 q 466 388 497 372 q 401 415 435 404 q 340 435 367 426 q 213 494 272 457 q 117 588 154 530 q 81 728 81 645 q 121 876 81 812 q 233 975 161 940 q 402 1010 306 1010 q 555 983 489 1010 q 666 909 621 956 q 734 804 711 862 l 530 721 q 507 761 524 739 q 464 798 490 782 q 404 813 437 813 q 333 790 365 813 q 301 725 301 766 q 323 667 301 691 q 379 626 346 643 q 445 599 412 610 q 500 581 479 588 q 572 554 529 573 q 658 503 615 536 q 729 420 701 471 q 758 298 758 370 q 714 142 759 213 q 593 31 670 72 q 418 -11 516 -11 m 352 -423 l 310 -370 l 375 -319 q 400 -295 385 -310 q 427 -261 416 -279 q 438 -229 438 -243 l 464 -228 q 451 -259 463 -245 q 412 -273 439 -273 q 349 -247 379 -273 q 318 -179 319 -221 q 347 -113 319 -138 q 412 -89 375 -87 q 481 -114 453 -87 q 510 -193 510 -140 q 494 -269 510 -235 q 458 -326 479 -302 q 421 -363 437 -350 l 352 -423 z "},"Ṡ":{"ha":807,"x_min":45,"x_max":759,"o":"m 418 -11 q 254 22 331 -11 q 122 112 177 56 q 45 235 66 168 l 256 323 q 290 261 267 292 q 344 211 312 231 q 417 191 376 191 q 477 205 450 191 q 521 242 505 218 q 538 294 538 265 q 517 349 538 326 q 466 388 497 372 q 401 415 435 404 q 340 435 367 426 q 213 494 272 457 q 117 588 154 530 q 81 728 81 645 q 121 876 81 812 q 233 975 161 940 q 402 1010 306 1010 q 555 983 489 1010 q 666 909 621 956 q 734 804 711 862 l 530 721 q 507 761 524 739 q 464 798 490 782 q 404 813 437 813 q 333 790 365 813 q 301 725 301 766 q 323 667 301 691 q 379 626 346 643 q 445 599 412 610 q 500 581 479 588 q 572 554 529 573 q 658 503 615 536 q 729 420 701 471 q 758 298 758 370 q 714 142 759 213 q 593 31 670 72 q 418 -11 516 -11 m 408 1060 q 315 1098 353 1060 q 277 1190 277 1136 q 315 1283 277 1246 q 408 1321 353 1321 q 501 1283 463 1321 q 538 1190 538 1246 q 501 1098 538 1136 q 408 1060 463 1060 z "},"Ṣ":{"ha":807,"x_min":45,"x_max":759,"o":"m 418 -11 q 254 22 331 -11 q 122 112 177 56 q 45 235 66 168 l 256 323 q 290 261 267 292 q 344 211 312 231 q 417 191 376 191 q 477 205 450 191 q 521 242 505 218 q 538 294 538 265 q 517 349 538 326 q 466 388 497 372 q 401 415 435 404 q 340 435 367 426 q 213 494 272 457 q 117 588 154 530 q 81 728 81 645 q 121 876 81 812 q 233 975 161 940 q 402 1010 306 1010 q 555 983 489 1010 q 666 909 621 956 q 734 804 711 862 l 530 721 q 507 761 524 739 q 464 798 490 782 q 404 813 437 813 q 333 790 365 813 q 301 725 301 766 q 323 667 301 691 q 379 626 346 643 q 445 599 412 610 q 500 581 479 588 q 572 554 529 573 q 658 503 615 536 q 729 420 701 471 q 758 298 758 370 q 714 142 759 213 q 593 31 670 72 q 418 -11 516 -11 m 422 -337 q 329 -299 367 -337 q 291 -207 291 -261 q 329 -114 291 -151 q 422 -76 367 -76 q 514 -114 477 -76 q 552 -207 552 -151 q 514 -299 552 -261 q 422 -337 477 -337 z "},"Ṩ":{"ha":807,"x_min":45,"x_max":759,"o":"m 418 -11 q 254 22 331 -11 q 122 112 177 56 q 45 235 66 168 l 256 323 q 290 261 267 292 q 344 211 312 231 q 417 191 376 191 q 477 205 450 191 q 521 242 505 218 q 538 294 538 265 q 517 349 538 326 q 466 388 497 372 q 401 415 435 404 q 340 435 367 426 q 213 494 272 457 q 117 588 154 530 q 81 728 81 645 q 121 876 81 812 q 233 975 161 940 q 402 1010 306 1010 q 555 983 489 1010 q 666 909 621 956 q 734 804 711 862 l 530 721 q 507 761 524 739 q 464 798 490 782 q 404 813 437 813 q 333 790 365 813 q 301 725 301 766 q 323 667 301 691 q 379 626 346 643 q 445 599 412 610 q 500 581 479 588 q 572 554 529 573 q 658 503 615 536 q 729 420 701 471 q 758 298 758 370 q 714 142 759 213 q 593 31 670 72 q 418 -11 516 -11 m 426 -337 q 333 -299 371 -337 q 295 -207 295 -261 q 333 -114 295 -151 q 426 -76 371 -76 q 518 -114 481 -76 q 556 -207 556 -151 q 518 -299 556 -261 q 426 -337 481 -337 m 426 1060 q 333 1098 371 1060 q 295 1190 295 1136 q 333 1283 295 1246 q 426 1321 371 1321 q 518 1283 481 1321 q 556 1190 556 1246 q 518 1098 556 1136 q 426 1060 481 1060 z "},"ẞ":{"ha":975,"x_min":85,"x_max":936,"o":"m 553 -11 q 503 -9 526 -11 q 457 -5 481 -7 l 457 198 q 512 189 494 191 q 545 187 530 187 q 638 204 600 187 q 697 251 677 220 q 718 326 718 282 q 677 430 719 388 q 549 473 635 473 l 481 473 l 481 513 l 608 844 l 621 787 q 576 808 610 800 q 495 817 543 817 q 398 803 435 817 q 341 767 361 789 q 314 721 321 745 q 307 675 307 696 l 307 0 l 85 0 l 85 701 q 103 810 85 762 q 156 897 121 859 q 240 960 191 935 q 351 998 289 985 q 485 1010 413 1010 q 620 1001 551 1010 q 747 975 688 991 q 845 938 806 958 l 845 916 l 679 528 l 667 630 q 814 578 754 621 q 905 470 874 536 q 936 323 936 404 q 888 147 936 222 q 755 31 841 72 q 553 -11 669 -11 z "},"T":{"ha":760,"x_min":26,"x_max":733,"o":"m 269 0 l 269 833 l 491 833 l 491 0 l 269 0 m 26 802 l 26 1000 l 733 1000 l 733 802 l 26 802 z "},"Ŧ":{"ha":760,"x_min":26,"x_max":733,"o":"m 269 0 l 269 833 l 491 833 l 491 0 l 269 0 m 26 802 l 26 1000 l 733 1000 l 733 802 l 26 802 m 160 404 l 160 518 l 604 518 l 604 404 l 160 404 z "},"Ť":{"ha":760,"x_min":26,"x_max":733,"o":"m 269 0 l 269 833 l 491 833 l 491 0 l 269 0 m 26 802 l 26 1000 l 733 1000 l 733 802 l 26 802 m 210 1314 l 377 1188 l 380 1188 l 551 1314 l 644 1215 l 400 1047 l 359 1047 l 115 1215 l 210 1314 z "},"Ţ":{"ha":760,"x_min":26,"x_max":733,"o":"m 269 0 l 269 833 l 491 833 l 491 0 l 269 0 m 26 802 l 26 1000 l 733 1000 l 733 802 l 26 802 m 251 -347 l 251 -243 q 358 -229 326 -245 q 391 -187 391 -213 q 365 -153 391 -168 q 289 -136 338 -139 l 334 0 l 426 0 l 385 -111 l 376 -64 q 479 -108 440 -75 q 517 -197 517 -142 q 454 -307 517 -264 q 251 -347 391 -349 z "},"Ț":{"ha":760,"x_min":26,"x_max":733,"o":"m 269 0 l 269 833 l 491 833 l 491 0 l 269 0 m 26 802 l 26 1000 l 733 1000 l 733 802 l 26 802 m 310 -423 l 268 -370 l 333 -319 q 358 -295 343 -310 q 385 -261 374 -279 q 396 -229 396 -243 l 422 -228 q 409 -259 421 -245 q 370 -273 397 -273 q 307 -247 337 -273 q 276 -179 277 -221 q 305 -113 277 -138 q 370 -89 333 -87 q 439 -114 411 -87 q 468 -193 468 -140 q 452 -269 468 -235 q 416 -326 437 -302 q 379 -363 395 -350 l 310 -423 z "},"Ṭ":{"ha":760,"x_min":26,"x_max":733,"o":"m 269 0 l 269 833 l 491 833 l 491 0 l 269 0 m 26 802 l 26 1000 l 733 1000 l 733 802 l 26 802 m 380 -337 q 287 -299 325 -337 q 249 -207 249 -261 q 287 -114 249 -151 q 380 -76 325 -76 q 472 -114 435 -76 q 510 -207 510 -151 q 472 -299 510 -261 q 380 -337 435 -337 z "},"Ṯ":{"ha":760,"x_min":26,"x_max":733,"o":"m 269 0 l 269 833 l 491 833 l 491 0 l 269 0 m 26 802 l 26 1000 l 733 1000 l 733 802 l 26 802 m 99 -285 l 99 -155 l 660 -155 l 660 -285 l 99 -285 z "},"U":{"ha":972,"x_min":91,"x_max":882,"o":"m 486 -11 q 277 38 366 -11 q 140 177 189 87 q 91 387 91 267 l 91 1000 l 313 1000 l 313 369 q 335 273 313 313 q 396 210 357 232 q 486 187 435 187 q 613 237 566 187 q 660 369 660 287 l 660 1000 l 882 1000 l 882 387 q 833 177 882 267 q 696 39 785 88 q 486 -11 608 -11 z "},"Ú":{"ha":972,"x_min":91,"x_max":882,"o":"m 486 -11 q 277 38 366 -11 q 140 177 189 87 q 91 387 91 267 l 91 1000 l 313 1000 l 313 369 q 335 273 313 313 q 396 210 357 232 q 486 187 435 187 q 613 237 566 187 q 660 369 660 287 l 660 1000 l 882 1000 l 882 387 q 833 177 882 267 q 696 39 785 88 q 486 -11 608 -11 m 486 1048 l 398 1137 l 637 1344 l 738 1213 l 486 1048 z "},"Ŭ":{"ha":972,"x_min":91,"x_max":882,"o":"m 486 -11 q 277 38 366 -11 q 140 177 189 87 q 91 387 91 267 l 91 1000 l 313 1000 l 313 369 q 335 273 313 313 q 396 210 357 232 q 486 187 435 187 q 613 237 566 187 q 660 369 660 287 l 660 1000 l 882 1000 l 882 387 q 833 177 882 267 q 696 39 785 88 q 486 -11 608 -11 m 486 1062 q 358 1089 416 1064 q 263 1161 299 1114 q 227 1281 227 1209 l 355 1281 q 396 1202 356 1227 q 486 1177 437 1177 q 579 1202 539 1177 q 618 1281 619 1226 l 747 1281 q 712 1161 748 1209 q 616 1089 675 1114 q 486 1062 556 1064 z "},"Û":{"ha":972,"x_min":91,"x_max":882,"o":"m 486 -11 q 277 38 366 -11 q 140 177 189 87 q 91 387 91 267 l 91 1000 l 313 1000 l 313 369 q 335 273 313 313 q 396 210 357 232 q 486 187 435 187 q 613 237 566 187 q 660 369 660 287 l 660 1000 l 882 1000 l 882 387 q 833 177 882 267 q 696 39 785 88 q 486 -11 608 -11 m 317 1050 l 222 1149 l 466 1317 l 507 1317 l 751 1149 l 659 1050 l 488 1177 l 484 1177 l 317 1050 z "},"Ȕ":{"ha":972,"x_min":91,"x_max":882,"o":"m 486 -11 q 277 38 366 -11 q 140 177 189 87 q 91 387 91 267 l 91 1000 l 313 1000 l 313 369 q 335 273 313 313 q 396 210 357 232 q 486 187 435 187 q 613 237 566 187 q 660 369 660 287 l 660 1000 l 882 1000 l 882 387 q 833 177 882 267 q 696 39 785 88 q 486 -11 608 -11 m 304 1060 l 127 1278 l 268 1357 l 412 1112 l 304 1060 m 572 1060 l 399 1278 l 540 1357 l 680 1112 l 572 1060 z "},"Ü":{"ha":972,"x_min":91,"x_max":882,"o":"m 486 -11 q 277 38 366 -11 q 140 177 189 87 q 91 387 91 267 l 91 1000 l 313 1000 l 313 369 q 335 273 313 313 q 396 210 357 232 q 486 187 435 187 q 613 237 566 187 q 660 369 660 287 l 660 1000 l 882 1000 l 882 387 q 833 177 882 267 q 696 39 785 88 q 486 -11 608 -11 m 656 1050 q 571 1085 606 1050 q 536 1168 536 1119 q 571 1254 536 1219 q 656 1289 606 1289 q 738 1254 705 1289 q 772 1168 772 1219 q 738 1085 772 1119 q 656 1050 705 1050 m 322 1050 q 238 1085 273 1050 q 203 1168 203 1119 q 238 1254 203 1219 q 322 1289 273 1289 q 406 1254 372 1289 q 440 1168 440 1219 q 406 1085 440 1119 q 322 1050 372 1050 z "},"Ụ":{"ha":972,"x_min":91,"x_max":882,"o":"m 486 -11 q 277 38 366 -11 q 140 177 189 87 q 91 387 91 267 l 91 1000 l 313 1000 l 313 369 q 335 273 313 313 q 396 210 357 232 q 486 187 435 187 q 613 237 566 187 q 660 369 660 287 l 660 1000 l 882 1000 l 882 387 q 833 177 882 267 q 696 39 785 88 q 486 -11 608 -11 m 491 -337 q 398 -299 436 -337 q 360 -207 360 -261 q 398 -114 360 -151 q 491 -76 436 -76 q 584 -114 546 -76 q 621 -207 621 -151 q 584 -299 621 -261 q 491 -337 546 -337 z "},"Ù":{"ha":972,"x_min":91,"x_max":882,"o":"m 486 -11 q 277 38 366 -11 q 140 177 189 87 q 91 387 91 267 l 91 1000 l 313 1000 l 313 369 q 335 273 313 313 q 396 210 357 232 q 486 187 435 187 q 613 237 566 187 q 660 369 660 287 l 660 1000 l 882 1000 l 882 387 q 833 177 882 267 q 696 39 785 88 q 486 -11 608 -11 m 486 1048 l 235 1213 l 336 1344 l 574 1137 l 486 1048 z "},"Ủ":{"ha":972,"x_min":91,"x_max":882,"o":"m 486 -11 q 277 38 366 -11 q 140 177 189 87 q 91 387 91 267 l 91 1000 l 313 1000 l 313 369 q 335 273 313 313 q 396 210 357 232 q 486 187 435 187 q 613 237 566 187 q 660 369 660 287 l 660 1000 l 882 1000 l 882 387 q 833 177 882 267 q 696 39 785 88 q 486 -11 608 -11 m 511 1052 l 435 1126 q 471 1156 454 1138 q 487 1194 487 1175 q 468 1223 487 1213 q 416 1232 448 1232 q 382 1230 400 1232 q 347 1220 364 1227 l 347 1344 q 391 1356 361 1352 q 446 1360 421 1360 q 570 1324 524 1360 q 616 1222 616 1289 q 583 1116 616 1162 q 511 1052 550 1070 z "},"Ư":{"ha":1031,"x_min":91,"x_max":1114,"o":"m 486 -11 q 277 38 366 -11 q 140 177 189 87 q 91 387 91 267 l 91 1000 l 313 1000 l 313 369 q 335 273 313 313 q 396 210 357 232 q 486 187 435 187 q 613 237 566 187 q 660 369 660 287 l 660 1000 l 882 1000 l 882 387 q 833 177 882 267 q 696 39 785 88 q 486 -11 608 -11 m 821 862 l 818 1000 q 922 1030 891 1000 q 953 1126 953 1061 q 951 1160 953 1143 q 945 1196 949 1177 l 1098 1225 q 1111 1167 1107 1199 q 1114 1118 1114 1136 q 1071 978 1114 1038 q 961 888 1028 919 q 821 862 894 857 z "},"Ứ":{"ha":1031,"x_min":91,"x_max":1114,"o":"m 486 -11 q 277 38 366 -11 q 140 177 189 87 q 91 387 91 267 l 91 1000 l 313 1000 l 313 369 q 335 273 313 313 q 396 210 357 232 q 486 187 435 187 q 613 237 566 187 q 660 369 660 287 l 660 1000 l 882 1000 l 882 387 q 833 177 882 267 q 696 39 785 88 q 486 -11 608 -11 m 821 862 l 818 1000 q 922 1030 891 1000 q 953 1126 953 1061 q 951 1160 953 1143 q 945 1196 949 1177 l 1098 1225 q 1111 1167 1107 1199 q 1114 1118 1114 1136 q 1071 978 1114 1038 q 961 888 1028 919 q 821 862 894 857 m 486 1048 l 398 1137 l 637 1344 l 738 1213 l 486 1048 z "},"Ự":{"ha":1031,"x_min":91,"x_max":1114,"o":"m 486 -11 q 277 38 366 -11 q 140 177 189 87 q 91 387 91 267 l 91 1000 l 313 1000 l 313 369 q 335 273 313 313 q 396 210 357 232 q 486 187 435 187 q 613 237 566 187 q 660 369 660 287 l 660 1000 l 882 1000 l 882 387 q 833 177 882 267 q 696 39 785 88 q 486 -11 608 -11 m 821 862 l 818 1000 q 922 1030 891 1000 q 953 1126 953 1061 q 951 1160 953 1143 q 945 1196 949 1177 l 1098 1225 q 1111 1167 1107 1199 q 1114 1118 1114 1136 q 1071 978 1114 1038 q 961 888 1028 919 q 821 862 894 857 m 491 -337 q 398 -299 436 -337 q 360 -207 360 -261 q 398 -114 360 -151 q 491 -76 436 -76 q 584 -114 546 -76 q 621 -207 621 -151 q 584 -299 621 -261 q 491 -337 546 -337 z "},"Ừ":{"ha":1031,"x_min":91,"x_max":1114,"o":"m 486 -11 q 277 38 366 -11 q 140 177 189 87 q 91 387 91 267 l 91 1000 l 313 1000 l 313 369 q 335 273 313 313 q 396 210 357 232 q 486 187 435 187 q 613 237 566 187 q 660 369 660 287 l 660 1000 l 882 1000 l 882 387 q 833 177 882 267 q 696 39 785 88 q 486 -11 608 -11 m 821 862 l 818 1000 q 922 1030 891 1000 q 953 1126 953 1061 q 951 1160 953 1143 q 945 1196 949 1177 l 1098 1225 q 1111 1167 1107 1199 q 1114 1118 1114 1136 q 1071 978 1114 1038 q 961 888 1028 919 q 821 862 894 857 m 486 1048 l 235 1213 l 336 1344 l 574 1137 l 486 1048 z "},"Ử":{"ha":1031,"x_min":91,"x_max":1114,"o":"m 486 -11 q 277 38 366 -11 q 140 177 189 87 q 91 387 91 267 l 91 1000 l 313 1000 l 313 369 q 335 273 313 313 q 396 210 357 232 q 486 187 435 187 q 613 237 566 187 q 660 369 660 287 l 660 1000 l 882 1000 l 882 387 q 833 177 882 267 q 696 39 785 88 q 486 -11 608 -11 m 821 862 l 818 1000 q 922 1030 891 1000 q 953 1126 953 1061 q 951 1160 953 1143 q 945 1196 949 1177 l 1098 1225 q 1111 1167 1107 1199 q 1114 1118 1114 1136 q 1071 978 1114 1038 q 961 888 1028 919 q 821 862 894 857 m 511 1052 l 435 1126 q 471 1156 454 1138 q 487 1194 487 1175 q 468 1223 487 1213 q 416 1232 448 1232 q 382 1230 400 1232 q 347 1220 364 1227 l 347 1344 q 391 1356 361 1352 q 446 1360 421 1360 q 570 1324 524 1360 q 616 1222 616 1289 q 583 1116 616 1162 q 511 1052 550 1070 z "},"Ữ":{"ha":1031,"x_min":91,"x_max":1114,"o":"m 486 -11 q 277 38 366 -11 q 140 177 189 87 q 91 387 91 267 l 91 1000 l 313 1000 l 313 369 q 335 273 313 313 q 396 210 357 232 q 486 187 435 187 q 613 237 566 187 q 660 369 660 287 l 660 1000 l 882 1000 l 882 387 q 833 177 882 267 q 696 39 785 88 q 486 -11 608 -11 m 821 862 l 818 1000 q 922 1030 891 1000 q 953 1126 953 1061 q 951 1160 953 1143 q 945 1196 949 1177 l 1098 1225 q 1111 1167 1107 1199 q 1114 1118 1114 1136 q 1071 978 1114 1038 q 961 888 1028 919 q 821 862 894 857 m 227 1067 q 269 1215 227 1156 q 388 1271 311 1274 q 454 1261 428 1272 q 497 1234 479 1250 q 531 1207 515 1219 q 566 1195 547 1195 q 606 1217 593 1195 q 619 1271 619 1238 l 747 1271 q 706 1127 748 1185 q 583 1067 663 1069 q 520 1080 545 1068 q 476 1108 494 1093 q 440 1135 457 1124 q 404 1146 424 1147 q 368 1126 379 1147 q 356 1067 356 1105 l 227 1067 z "},"Ű":{"ha":972,"x_min":91,"x_max":882,"o":"m 486 -11 q 277 38 366 -11 q 140 177 189 87 q 91 387 91 267 l 91 1000 l 313 1000 l 313 369 q 335 273 313 313 q 396 210 357 232 q 486 187 435 187 q 613 237 566 187 q 660 369 660 287 l 660 1000 l 882 1000 l 882 387 q 833 177 882 267 q 696 39 785 88 q 486 -11 608 -11 m 396 1060 l 288 1112 l 435 1356 l 573 1278 l 396 1060 m 667 1060 l 560 1112 l 702 1356 l 842 1278 l 667 1060 z "},"Ȗ":{"ha":972,"x_min":91,"x_max":882,"o":"m 486 -11 q 277 38 366 -11 q 140 177 189 87 q 91 387 91 267 l 91 1000 l 313 1000 l 313 369 q 335 273 313 313 q 396 210 357 232 q 486 187 435 187 q 613 237 566 187 q 660 369 660 287 l 660 1000 l 882 1000 l 882 387 q 833 177 882 267 q 696 38 785 87 q 486 -11 608 -11 m 486 1284 q 616 1257 556 1282 q 712 1184 675 1232 q 747 1065 748 1136 l 617 1065 q 579 1144 619 1120 q 486 1168 538 1168 q 396 1144 437 1168 q 355 1065 355 1119 l 227 1065 q 263 1184 227 1136 q 358 1257 299 1232 q 486 1284 416 1282 z "},"Ū":{"ha":972,"x_min":91,"x_max":882,"o":"m 486 -11 q 277 38 366 -11 q 140 177 189 87 q 91 387 91 267 l 91 1000 l 313 1000 l 313 369 q 335 273 313 313 q 396 210 357 232 q 486 187 435 187 q 613 237 566 187 q 660 369 660 287 l 660 1000 l 882 1000 l 882 387 q 833 177 882 267 q 696 39 785 88 q 486 -11 608 -11 m 215 1098 l 215 1239 l 757 1239 l 757 1098 l 215 1098 z "},"Ṻ":{"ha":972,"x_min":91,"x_max":882,"o":"m 486 -11 q 277 38 366 -11 q 140 177 189 87 q 91 387 91 267 l 91 1000 l 313 1000 l 313 369 q 335 273 313 313 q 396 210 357 232 q 486 187 435 187 q 613 237 566 187 q 660 369 660 287 l 660 1000 l 882 1000 l 882 387 q 833 177 882 267 q 696 39 785 88 q 486 -11 608 -11 m 215 1098 l 215 1239 l 757 1239 l 757 1098 l 215 1098 m 656 1290 q 571 1324 606 1290 q 536 1408 536 1358 q 571 1493 536 1458 q 656 1528 606 1528 q 738 1493 705 1528 q 772 1408 772 1458 q 738 1324 772 1358 q 656 1290 705 1290 m 322 1290 q 238 1324 273 1290 q 203 1408 203 1358 q 238 1493 203 1458 q 322 1528 273 1528 q 406 1493 372 1528 q 440 1408 440 1458 q 406 1324 440 1358 q 322 1290 372 1290 z "},"Ų":{"ha":972,"x_min":91,"x_max":882,"o":"m 486 -11 q 277 38 366 -11 q 140 177 189 87 q 91 387 91 267 l 91 1000 l 313 1000 l 313 369 q 335 273 313 313 q 396 210 357 232 q 486 187 435 187 q 613 237 566 187 q 660 369 660 287 l 660 1000 l 882 1000 l 882 387 q 833 177 882 267 q 696 39 785 88 q 486 -11 608 -11 m 473 -293 q 361 -255 404 -293 q 318 -155 318 -218 q 359 -53 318 -97 q 470 34 401 -9 l 580 0 q 516 -43 545 -22 q 468 -86 486 -64 q 449 -130 449 -107 q 465 -162 449 -151 q 510 -173 480 -173 q 551 -168 530 -173 q 584 -157 573 -163 l 584 -275 q 531 -288 564 -283 q 473 -293 497 -293 z "},"Ů":{"ha":972,"x_min":91,"x_max":882,"o":"m 486 -11 q 277 38 366 -11 q 140 177 189 87 q 91 387 91 267 l 91 1000 l 313 1000 l 313 369 q 335 273 313 313 q 396 210 357 232 q 486 187 435 187 q 613 237 566 187 q 660 369 660 287 l 660 1000 l 882 1000 l 882 387 q 833 177 882 267 q 696 39 785 88 q 486 -11 608 -11 m 486 1044 q 390 1069 433 1044 q 321 1135 347 1093 q 296 1228 296 1177 q 321 1324 296 1282 q 390 1390 347 1366 q 486 1415 433 1415 q 585 1390 541 1415 q 652 1324 628 1366 q 677 1228 677 1282 q 652 1135 677 1177 q 585 1069 628 1093 q 486 1044 541 1044 m 486 1158 q 537 1178 517 1158 q 557 1228 557 1198 q 537 1279 557 1259 q 486 1299 517 1299 q 436 1279 456 1299 q 416 1228 416 1259 q 436 1178 416 1198 q 486 1158 456 1158 z "},"Ũ":{"ha":972,"x_min":91,"x_max":882,"o":"m 486 -11 q 277 38 366 -11 q 140 177 189 87 q 91 387 91 267 l 91 1000 l 313 1000 l 313 369 q 335 273 313 313 q 396 210 357 232 q 486 187 435 187 q 613 237 566 187 q 660 369 660 287 l 660 1000 l 882 1000 l 882 387 q 833 177 882 267 q 696 39 785 88 q 486 -11 608 -11 m 227 1067 q 269 1215 227 1156 q 388 1271 311 1274 q 454 1261 428 1272 q 497 1234 479 1250 q 531 1207 515 1219 q 566 1195 547 1195 q 606 1217 593 1195 q 619 1271 619 1238 l 747 1271 q 706 1127 748 1185 q 583 1067 663 1069 q 520 1080 545 1068 q 476 1108 494 1093 q 440 1135 457 1124 q 404 1146 424 1147 q 368 1126 379 1147 q 356 1067 356 1105 l 227 1067 z "},"Ṹ":{"ha":972,"x_min":91,"x_max":882,"o":"m 486 -11 q 277 38 366 -11 q 140 177 189 87 q 91 387 91 267 l 91 1000 l 313 1000 l 313 369 q 335 273 313 313 q 396 210 357 232 q 486 187 435 187 q 613 237 566 187 q 660 369 660 287 l 660 1000 l 882 1000 l 882 387 q 833 177 882 267 q 696 39 785 88 q 486 -11 608 -11 m 227 1067 q 269 1215 227 1156 q 388 1271 311 1274 q 454 1261 428 1272 q 497 1234 479 1250 q 531 1207 515 1219 q 566 1195 547 1195 q 606 1217 593 1195 q 619 1271 619 1238 l 747 1271 q 706 1127 748 1185 q 583 1067 663 1069 q 520 1080 545 1068 q 476 1108 494 1093 q 440 1135 457 1124 q 404 1146 424 1147 q 368 1126 379 1147 q 356 1067 356 1105 l 227 1067 m 486 1314 l 398 1403 l 637 1610 l 738 1479 l 486 1314 z "},"V":{"ha":996,"x_min":-5,"x_max":1001,"o":"m 406 0 l -5 1000 l 237 1000 l 393 581 l 495 301 l 500 301 l 600 581 l 757 1000 l 1001 1000 l 593 0 l 406 0 z "},"W":{"ha":1363,"x_min":1,"x_max":1362,"o":"m 294 0 l 1 1000 l 232 1000 l 351 557 l 411 309 l 416 309 l 637 888 l 726 888 l 947 309 l 952 309 l 1011 557 l 1133 1000 l 1362 1000 l 1071 0 l 887 0 l 684 474 l 679 474 l 475 0 l 294 0 z "},"Ẃ":{"ha":1363,"x_min":1,"x_max":1362,"o":"m 294 0 l 1 1000 l 232 1000 l 351 557 l 411 309 l 416 309 l 637 888 l 726 888 l 947 309 l 952 309 l 1011 557 l 1133 1000 l 1362 1000 l 1071 0 l 887 0 l 684 474 l 679 474 l 475 0 l 294 0 m 681 1048 l 593 1137 l 832 1344 l 932 1213 l 681 1048 z "},"Ŵ":{"ha":1363,"x_min":1,"x_max":1362,"o":"m 294 0 l 1 1000 l 232 1000 l 351 557 l 411 309 l 416 309 l 637 888 l 726 888 l 947 309 l 952 309 l 1011 557 l 1133 1000 l 1362 1000 l 1071 0 l 887 0 l 684 474 l 679 474 l 475 0 l 294 0 m 512 1050 l 416 1149 l 661 1317 l 702 1317 l 945 1149 l 853 1050 l 682 1177 l 679 1177 l 512 1050 z "},"Ẅ":{"ha":1363,"x_min":1,"x_max":1362,"o":"m 294 0 l 1 1000 l 232 1000 l 351 557 l 411 309 l 416 309 l 637 888 l 726 888 l 947 309 l 952 309 l 1011 557 l 1133 1000 l 1362 1000 l 1071 0 l 887 0 l 684 474 l 679 474 l 475 0 l 294 0 m 851 1050 q 766 1085 801 1050 q 731 1168 731 1119 q 766 1254 731 1219 q 851 1289 801 1289 q 933 1254 900 1289 q 967 1168 967 1219 q 933 1085 967 1119 q 851 1050 900 1050 m 517 1050 q 433 1085 468 1050 q 399 1168 399 1119 q 433 1254 399 1219 q 517 1289 468 1289 q 601 1254 567 1289 q 635 1168 635 1219 q 601 1085 635 1119 q 517 1050 567 1050 z "},"Ẁ":{"ha":1363,"x_min":1,"x_max":1362,"o":"m 294 0 l 1 1000 l 232 1000 l 351 557 l 411 309 l 416 309 l 637 888 l 726 888 l 947 309 l 952 309 l 1011 557 l 1133 1000 l 1362 1000 l 1071 0 l 887 0 l 684 474 l 679 474 l 475 0 l 294 0 m 681 1048 l 430 1213 l 530 1344 l 769 1137 l 681 1048 z "},"X":{"ha":991,"x_min":18,"x_max":973,"o":"m 709 0 l 497 334 l 491 334 l 344 500 l 344 503 l 24 1000 l 280 1000 l 494 644 l 500 644 l 648 501 l 648 498 l 973 0 l 709 0 m 18 0 l 344 498 l 344 501 l 491 644 l 497 644 l 709 1000 l 968 1000 l 648 503 l 648 500 l 500 334 l 494 334 l 280 0 l 18 0 z "},"Y":{"ha":906,"x_min":-3,"x_max":909,"o":"m 342 0 l 342 387 l -3 1000 l 251 1000 l 353 804 l 450 601 l 456 601 l 553 804 l 655 1000 l 909 1000 l 564 387 l 564 0 l 342 0 z "},"Ý":{"ha":906,"x_min":-3,"x_max":909,"o":"m 342 0 l 342 387 l -3 1000 l 251 1000 l 353 804 l 450 601 l 456 601 l 553 804 l 655 1000 l 909 1000 l 564 387 l 564 0 l 342 0 m 452 1048 l 364 1137 l 604 1344 l 704 1213 l 452 1048 z "},"Ŷ":{"ha":906,"x_min":-3,"x_max":909,"o":"m 342 0 l 342 387 l -3 1000 l 251 1000 l 353 804 l 450 601 l 456 601 l 553 804 l 655 1000 l 909 1000 l 564 387 l 564 0 l 342 0 m 283 1050 l 188 1149 l 432 1317 l 473 1317 l 717 1149 l 625 1050 l 454 1177 l 450 1177 l 283 1050 z "},"Ÿ":{"ha":906,"x_min":-3,"x_max":909,"o":"m 342 0 l 342 387 l -3 1000 l 251 1000 l 353 804 l 450 601 l 456 601 l 553 804 l 655 1000 l 909 1000 l 564 387 l 564 0 l 342 0 m 623 1050 q 537 1085 572 1050 q 503 1168 503 1119 q 537 1254 503 1219 q 623 1289 572 1289 q 705 1254 671 1289 q 739 1168 739 1219 q 705 1085 739 1119 q 623 1050 671 1050 m 289 1050 q 205 1085 239 1050 q 170 1168 170 1119 q 205 1254 170 1219 q 289 1289 239 1289 q 373 1254 338 1289 q 407 1168 407 1219 q 373 1085 407 1119 q 289 1050 338 1050 z "},"Ẏ":{"ha":906,"x_min":-3,"x_max":909,"o":"m 342 0 l 342 387 l -3 1000 l 251 1000 l 353 804 l 450 601 l 456 601 l 553 804 l 655 1000 l 909 1000 l 564 387 l 564 0 l 342 0 m 457 1060 q 364 1098 402 1060 q 326 1190 326 1136 q 364 1283 326 1246 q 457 1321 402 1321 q 550 1283 512 1321 q 587 1190 587 1246 q 550 1098 587 1136 q 457 1060 512 1060 z "},"Ỵ":{"ha":906,"x_min":-3,"x_max":909,"o":"m 342 0 l 342 387 l -3 1000 l 251 1000 l 353 804 l 450 601 l 456 601 l 553 804 l 655 1000 l 909 1000 l 564 387 l 564 0 l 342 0 m 457 -337 q 364 -299 402 -337 q 326 -207 326 -261 q 364 -114 326 -151 q 457 -76 402 -76 q 550 -114 512 -76 q 587 -207 587 -151 q 550 -299 587 -261 q 457 -337 512 -337 z "},"Ỳ":{"ha":906,"x_min":-3,"x_max":909,"o":"m 342 0 l 342 387 l -3 1000 l 251 1000 l 353 804 l 450 601 l 456 601 l 553 804 l 655 1000 l 909 1000 l 564 387 l 564 0 l 342 0 m 452 1048 l 201 1213 l 302 1344 l 541 1137 l 452 1048 z "},"Ỷ":{"ha":906,"x_min":-3,"x_max":909,"o":"m 342 0 l 342 387 l -3 1000 l 251 1000 l 353 804 l 450 601 l 456 601 l 553 804 l 655 1000 l 909 1000 l 564 387 l 564 0 l 342 0 m 477 1052 l 401 1126 q 437 1156 421 1138 q 454 1194 454 1175 q 434 1223 454 1213 q 382 1232 415 1232 q 349 1230 367 1232 q 313 1220 331 1227 l 313 1344 q 358 1356 328 1352 q 413 1360 388 1360 q 537 1324 491 1360 q 583 1222 583 1289 q 550 1116 583 1162 q 477 1052 517 1070 z "},"Ȳ":{"ha":906,"x_min":-3,"x_max":909,"o":"m 342 0 l 342 387 l -3 1000 l 251 1000 l 353 804 l 450 601 l 456 601 l 553 804 l 655 1000 l 909 1000 l 564 387 l 564 0 l 342 0 m 181 1098 l 181 1239 l 723 1239 l 723 1098 l 181 1098 z "},"Ỹ":{"ha":906,"x_min":-3,"x_max":909,"o":"m 342 0 l 342 387 l -3 1000 l 251 1000 l 353 804 l 450 601 l 456 601 l 553 804 l 655 1000 l 909 1000 l 564 387 l 564 0 l 342 0 m 193 1067 q 235 1215 193 1156 q 354 1271 277 1274 q 420 1261 394 1272 q 464 1234 446 1250 q 497 1207 481 1219 q 532 1195 513 1195 q 572 1217 559 1195 q 585 1271 585 1238 l 713 1271 q 672 1127 714 1185 q 549 1067 629 1069 q 486 1080 511 1068 q 442 1108 460 1093 q 407 1135 423 1124 q 370 1146 390 1147 q 334 1126 345 1147 q 322 1067 322 1105 l 193 1067 z "},"Z":{"ha":839,"x_min":42,"x_max":798,"o":"m 42 0 l 42 33 l 462 801 l 462 804 l 64 804 l 64 1000 l 787 1000 l 787 966 l 369 199 l 369 196 l 798 196 l 798 0 l 42 0 z "},"Ź":{"ha":839,"x_min":42,"x_max":798,"o":"m 42 0 l 42 33 l 462 801 l 462 804 l 64 804 l 64 1000 l 787 1000 l 787 966 l 369 199 l 369 196 l 798 196 l 798 0 l 42 0 m 421 1048 l 333 1137 l 572 1344 l 673 1213 l 421 1048 z "},"Ž":{"ha":839,"x_min":42,"x_max":798,"o":"m 42 0 l 42 33 l 462 801 l 462 804 l 64 804 l 64 1000 l 787 1000 l 787 966 l 369 199 l 369 196 l 798 196 l 798 0 l 42 0 m 252 1314 l 418 1188 l 422 1188 l 593 1314 l 686 1215 l 442 1047 l 400 1047 l 157 1215 l 252 1314 z "},"Ż":{"ha":839,"x_min":42,"x_max":798,"o":"m 42 0 l 42 33 l 462 801 l 462 804 l 64 804 l 64 1000 l 787 1000 l 787 966 l 369 199 l 369 196 l 798 196 l 798 0 l 42 0 m 426 1060 q 333 1098 371 1060 q 295 1190 295 1136 q 333 1283 295 1246 q 426 1321 371 1321 q 518 1283 481 1321 q 556 1190 556 1246 q 518 1098 556 1136 q 426 1060 481 1060 z "},"Ẓ":{"ha":839,"x_min":42,"x_max":798,"o":"m 42 0 l 42 33 l 462 801 l 462 804 l 64 804 l 64 1000 l 787 1000 l 787 966 l 369 199 l 369 196 l 798 196 l 798 0 l 42 0 m 422 -337 q 330 -299 368 -337 q 292 -207 292 -261 q 330 -114 292 -151 q 422 -76 368 -76 q 515 -114 477 -76 q 553 -207 553 -151 q 515 -299 553 -261 q 422 -337 477 -337 z "},"a":{"ha":768,"x_min":35,"x_max":735,"o":"m 283 -11 q 154 19 210 -11 q 66 99 98 49 q 35 212 35 149 q 70 328 35 277 q 173 408 106 379 q 336 437 241 437 l 510 437 l 510 303 l 361 303 q 272 284 303 303 q 241 225 241 265 q 254 185 241 201 q 288 159 266 168 q 338 150 310 150 q 398 160 363 150 q 458 194 433 170 q 484 258 484 218 l 484 342 l 473 374 l 473 474 q 466 512 473 495 q 442 542 458 530 q 404 561 427 554 q 353 567 382 567 q 283 560 321 567 q 212 540 246 553 q 152 511 177 528 l 81 673 q 152 704 108 688 q 254 730 197 720 q 377 741 311 741 q 540 714 479 741 q 629 648 600 688 q 668 562 659 608 q 677 477 677 516 l 677 257 q 686 200 677 220 q 719 174 695 181 l 735 168 l 660 -11 l 635 -3 q 540 51 572 18 q 502 116 508 83 l 549 83 l 465 83 l 522 100 q 434 23 500 57 q 283 -11 369 -11 z "},"á":{"ha":768,"x_min":35,"x_max":735,"o":"m 283 -11 q 154 19 210 -11 q 66 99 98 49 q 35 212 35 149 q 70 328 35 277 q 173 408 106 379 q 336 437 241 437 l 510 437 l 510 303 l 361 303 q 272 284 303 303 q 241 225 241 265 q 254 185 241 201 q 288 159 266 168 q 338 150 310 150 q 398 160 363 150 q 458 194 433 170 q 484 258 484 218 l 484 342 l 473 374 l 473 474 q 466 512 473 495 q 442 542 458 530 q 404 561 427 554 q 353 567 382 567 q 283 560 321 567 q 212 540 246 553 q 152 511 177 528 l 81 673 q 152 704 108 688 q 254 730 197 720 q 377 741 311 741 q 540 714 479 741 q 629 648 600 688 q 668 562 659 608 q 677 477 677 516 l 677 257 q 686 200 677 220 q 719 174 695 181 l 735 168 l 660 -11 l 635 -3 q 540 51 572 18 q 502 116 508 83 l 549 83 l 465 83 l 522 100 q 434 23 500 57 q 283 -11 369 -11 m 382 784 l 291 861 l 491 1118 l 611 1001 l 382 784 z "},"ă":{"ha":768,"x_min":35,"x_max":735,"o":"m 283 -11 q 154 19 210 -11 q 66 99 98 49 q 35 212 35 149 q 70 328 35 277 q 173 408 106 379 q 336 437 241 437 l 510 437 l 510 303 l 361 303 q 272 284 303 303 q 241 225 241 265 q 254 185 241 201 q 288 159 266 168 q 338 150 310 150 q 398 160 363 150 q 458 194 433 170 q 484 258 484 218 l 484 342 l 473 374 l 473 474 q 466 512 473 495 q 442 542 458 530 q 404 561 427 554 q 353 567 382 567 q 283 560 321 567 q 212 540 246 553 q 152 511 177 528 l 81 673 q 152 704 108 688 q 254 730 197 720 q 377 741 311 741 q 540 714 479 741 q 629 648 600 688 q 668 562 659 608 q 677 477 677 516 l 677 257 q 686 200 677 220 q 719 174 695 181 l 735 168 l 660 -11 l 635 -3 q 540 51 572 18 q 502 116 508 83 l 549 83 l 465 83 l 522 100 q 434 23 500 57 q 283 -11 369 -11 m 382 809 q 249 840 309 809 q 155 923 190 871 q 121 1042 121 976 l 251 1042 q 290 959 252 992 q 382 925 328 925 q 475 959 438 925 q 513 1042 513 992 l 643 1042 q 609 924 644 976 q 516 840 575 871 q 382 809 456 809 z "},"ắ":{"ha":768,"x_min":34,"x_max":735,"o":"m 282 -11 q 153 18 208 -11 q 65 97 97 47 q 34 210 34 147 q 70 329 34 277 q 173 410 106 381 q 330 439 239 439 l 509 439 l 509 305 l 370 305 q 275 285 307 305 q 243 224 243 264 q 255 185 243 202 q 289 159 268 169 q 337 150 310 150 q 398 160 364 150 q 457 193 432 170 q 481 254 481 216 l 481 345 l 475 375 l 475 475 q 467 511 475 494 q 444 541 459 528 q 406 561 429 553 q 355 568 384 568 q 287 561 323 568 q 215 541 250 553 q 153 511 180 528 l 79 672 q 152 704 108 688 q 253 731 197 720 q 374 742 309 742 q 533 718 473 742 q 624 654 593 694 q 666 569 655 615 q 677 478 677 523 l 677 256 q 687 201 677 221 q 720 174 697 182 l 735 168 l 661 -11 l 634 -3 q 539 51 574 16 q 498 119 505 85 l 551 85 l 456 85 l 519 100 q 432 23 497 56 q 282 -11 368 -11 m 363 987 l 288 1084 l 522 1278 l 615 1149 l 363 987 m 380 809 q 245 838 304 809 q 153 915 186 866 q 119 1026 119 964 l 248 1026 q 285 950 248 981 q 380 920 323 920 q 473 950 436 920 q 509 1026 509 981 l 639 1026 q 605 915 639 964 q 513 838 572 866 q 380 809 454 809 z "},"ặ":{"ha":768,"x_min":35,"x_max":735,"o":"m 283 -11 q 154 19 210 -11 q 66 99 98 49 q 35 212 35 149 q 70 328 35 277 q 173 408 106 379 q 336 437 241 437 l 510 437 l 510 303 l 361 303 q 272 284 303 303 q 241 225 241 265 q 254 185 241 201 q 288 159 266 168 q 338 150 310 150 q 398 160 363 150 q 458 194 433 170 q 484 258 484 218 l 484 342 l 473 374 l 473 474 q 466 512 473 495 q 442 542 458 530 q 404 561 427 554 q 353 567 382 567 q 283 560 321 567 q 212 540 246 553 q 152 511 177 528 l 81 673 q 152 704 108 688 q 254 730 197 720 q 377 741 311 741 q 540 714 479 741 q 629 648 600 688 q 668 562 659 608 q 677 477 677 516 l 677 257 q 686 200 677 220 q 719 174 695 181 l 735 168 l 660 -11 l 635 -3 q 540 51 572 18 q 502 116 508 83 l 549 83 l 465 83 l 522 100 q 434 23 500 57 q 283 -11 369 -11 m 368 -337 q 275 -299 313 -337 q 237 -207 237 -261 q 275 -114 237 -151 q 368 -76 313 -76 q 460 -114 422 -76 q 498 -207 498 -151 q 460 -299 498 -261 q 368 -337 422 -337 m 382 809 q 249 840 309 809 q 155 923 190 871 q 121 1042 121 976 l 251 1042 q 290 959 252 992 q 382 925 328 925 q 475 959 438 925 q 513 1042 513 992 l 643 1042 q 609 924 644 976 q 516 840 575 871 q 382 809 456 809 z "},"ằ":{"ha":768,"x_min":35,"x_max":735,"o":"m 283 -11 q 154 19 210 -11 q 66 99 98 49 q 35 212 35 149 q 70 328 35 277 q 173 408 106 379 q 336 437 241 437 l 510 437 l 510 303 l 361 303 q 272 284 303 303 q 241 225 241 265 q 254 185 241 201 q 288 159 266 168 q 338 150 310 150 q 398 160 363 150 q 458 194 433 170 q 484 258 484 218 l 484 342 l 473 374 l 473 474 q 466 512 473 495 q 442 542 458 530 q 404 561 427 554 q 353 567 382 567 q 283 560 321 567 q 212 540 246 553 q 152 511 177 528 l 81 673 q 152 704 108 688 q 254 730 197 720 q 377 741 311 741 q 540 714 479 741 q 629 648 600 688 q 668 562 659 608 q 677 477 677 516 l 677 257 q 686 200 677 220 q 719 174 695 181 l 735 168 l 660 -11 l 635 -3 q 540 51 572 18 q 502 116 508 83 l 549 83 l 465 83 l 522 100 q 434 23 500 57 q 283 -11 369 -11 m 399 987 l 148 1149 l 240 1278 l 475 1084 l 399 987 m 382 809 q 250 838 309 809 q 157 915 191 866 q 123 1026 123 964 l 253 1026 q 290 950 253 981 q 382 920 327 920 q 477 950 440 920 q 515 1026 515 981 l 644 1026 q 610 915 644 964 q 517 838 576 866 q 382 809 458 809 z "},"ẳ":{"ha":768,"x_min":35,"x_max":735,"o":"m 283 -11 q 154 19 210 -11 q 66 99 98 49 q 35 212 35 149 q 70 328 35 277 q 173 408 106 379 q 336 437 241 437 l 510 437 l 510 303 l 361 303 q 272 284 303 303 q 241 225 241 265 q 254 185 241 201 q 288 159 266 168 q 338 150 310 150 q 398 160 363 150 q 458 194 433 170 q 484 258 484 218 l 484 342 l 473 374 l 473 474 q 466 512 473 495 q 442 542 458 530 q 404 561 427 554 q 353 567 382 567 q 283 560 321 567 q 212 540 246 553 q 152 511 177 528 l 81 673 q 152 704 108 688 q 254 730 197 720 q 377 741 311 741 q 540 714 479 741 q 629 648 600 688 q 668 562 659 608 q 677 477 677 516 l 677 257 q 686 200 677 220 q 719 174 695 181 l 735 168 l 660 -11 l 635 -3 q 540 51 572 18 q 502 116 508 83 l 549 83 l 465 83 l 522 100 q 434 23 500 57 q 283 -11 369 -11 m 382 809 q 250 838 309 809 q 157 915 191 866 q 123 1026 123 964 l 253 1026 q 290 950 253 981 q 382 920 327 920 q 477 950 440 920 q 515 1026 515 981 l 644 1026 q 610 915 644 964 q 517 838 576 866 q 382 809 458 809 m 382 968 l 306 1042 q 342 1073 326 1055 q 358 1110 358 1091 q 339 1139 358 1130 q 287 1149 319 1149 q 254 1146 272 1149 q 218 1136 235 1143 l 218 1260 q 262 1272 233 1268 q 317 1276 292 1276 q 441 1241 395 1276 q 487 1139 487 1206 q 454 1032 487 1078 q 382 968 421 987 z "},"ẵ":{"ha":768,"x_min":35,"x_max":735,"o":"m 283 -11 q 154 19 210 -11 q 66 99 98 49 q 35 212 35 149 q 70 328 35 277 q 173 408 106 379 q 336 437 241 437 l 510 437 l 510 303 l 361 303 q 272 284 303 303 q 241 225 241 265 q 254 185 241 201 q 288 159 266 168 q 338 150 310 150 q 398 160 363 150 q 458 194 433 170 q 484 258 484 218 l 484 342 l 473 374 l 473 474 q 466 512 473 495 q 442 542 458 530 q 404 561 427 554 q 353 567 382 567 q 283 560 321 567 q 212 540 246 553 q 152 511 177 528 l 81 673 q 152 704 108 688 q 254 730 197 720 q 377 741 311 741 q 540 714 479 741 q 629 648 600 688 q 668 562 659 608 q 677 477 677 516 l 677 257 q 686 200 677 220 q 719 174 695 181 l 735 168 l 660 -11 l 635 -3 q 540 51 572 18 q 502 116 508 83 l 549 83 l 465 83 l 522 100 q 434 23 500 57 q 283 -11 369 -11 m 123 1071 q 165 1219 123 1162 q 285 1276 208 1276 q 349 1265 323 1276 q 393 1238 374 1253 q 428 1211 412 1222 q 463 1199 444 1199 q 502 1220 490 1199 q 513 1276 515 1241 l 643 1276 q 625 1173 644 1219 q 568 1099 605 1126 q 479 1071 531 1071 q 416 1083 441 1071 q 373 1110 391 1095 q 337 1138 354 1126 q 300 1149 321 1149 q 264 1130 276 1149 q 251 1071 252 1110 l 123 1071 m 382 809 q 249 838 308 809 q 157 915 191 866 q 123 1026 123 964 l 252 1026 q 289 950 252 981 q 382 920 326 920 q 477 950 439 920 q 514 1026 514 981 l 644 1026 q 610 915 644 964 q 517 838 576 866 q 382 809 458 809 z "},"ǎ":{"ha":768,"x_min":34,"x_max":735,"o":"m 282 -11 q 153 18 208 -11 q 65 97 97 47 q 34 210 34 147 q 70 329 34 277 q 173 410 106 381 q 330 439 239 439 l 509 439 l 509 305 l 370 305 q 275 285 307 305 q 243 224 243 264 q 255 185 243 202 q 289 159 268 169 q 337 150 310 150 q 398 160 364 150 q 457 193 432 170 q 481 254 481 216 l 481 345 l 475 375 l 475 475 q 467 511 475 494 q 444 541 459 528 q 406 561 429 553 q 355 568 384 568 q 287 561 323 568 q 215 541 250 553 q 153 511 180 528 l 79 672 q 152 704 108 688 q 253 731 197 720 q 374 742 309 742 q 533 718 473 742 q 624 654 593 694 q 666 569 655 615 q 677 478 677 523 l 677 256 q 687 201 677 221 q 720 174 697 182 l 735 168 l 661 -11 l 634 -3 q 539 51 574 16 q 498 119 505 85 l 551 85 l 456 85 l 519 100 q 432 23 497 56 q 282 -11 368 -11 m 199 1095 l 380 937 l 385 937 l 566 1095 l 647 995 l 404 787 l 361 787 l 118 995 l 199 1095 z "},"â":{"ha":768,"x_min":35,"x_max":735,"o":"m 283 -11 q 154 19 210 -11 q 66 99 98 49 q 35 212 35 149 q 70 328 35 277 q 173 408 106 379 q 336 437 241 437 l 510 437 l 510 303 l 361 303 q 272 284 303 303 q 241 225 241 265 q 254 185 241 201 q 288 159 266 168 q 338 150 310 150 q 398 160 363 150 q 458 194 433 170 q 484 258 484 218 l 484 342 l 473 374 l 473 474 q 466 512 473 495 q 442 542 458 530 q 404 561 427 554 q 353 567 382 567 q 283 560 321 567 q 212 540 246 553 q 152 511 177 528 l 81 673 q 152 704 108 688 q 254 730 197 720 q 377 741 311 741 q 540 714 479 741 q 629 648 600 688 q 668 562 659 608 q 677 477 677 516 l 677 257 q 686 200 677 220 q 719 174 695 181 l 735 168 l 660 -11 l 635 -3 q 540 51 572 18 q 502 116 508 83 l 549 83 l 465 83 l 522 100 q 434 23 500 57 q 283 -11 369 -11 m 199 777 l 117 876 l 361 1084 l 404 1084 l 647 876 l 565 777 l 385 934 l 380 934 l 199 777 z "},"ấ":{"ha":768,"x_min":35,"x_max":835,"o":"m 283 -11 q 154 19 210 -11 q 66 99 98 49 q 35 212 35 149 q 70 328 35 277 q 173 408 106 379 q 336 437 241 437 l 510 437 l 510 303 l 361 303 q 272 284 303 303 q 241 225 241 265 q 254 185 241 201 q 288 159 266 168 q 338 150 310 150 q 398 160 363 150 q 458 194 433 170 q 484 258 484 218 l 484 342 l 473 374 l 473 474 q 466 512 473 495 q 442 542 458 530 q 404 561 427 554 q 353 567 382 567 q 283 560 321 567 q 212 540 246 553 q 152 511 177 528 l 81 673 q 152 704 108 688 q 254 730 197 720 q 377 741 311 741 q 540 714 479 741 q 629 648 600 688 q 668 562 659 608 q 677 477 677 516 l 677 257 q 686 200 677 220 q 719 174 695 181 l 735 168 l 660 -11 l 635 -3 q 540 51 572 18 q 502 116 508 83 l 549 83 l 465 83 l 522 100 q 434 23 500 57 q 283 -11 369 -11 m 604 984 l 511 1050 l 734 1276 l 835 1142 l 604 984 m 214 789 l 118 886 l 362 1053 l 404 1053 l 647 886 l 555 789 l 384 915 l 380 915 l 214 789 z "},"ậ":{"ha":768,"x_min":35,"x_max":735,"o":"m 283 -11 q 154 19 210 -11 q 66 99 98 49 q 35 212 35 149 q 70 328 35 277 q 173 408 106 379 q 336 437 241 437 l 510 437 l 510 303 l 361 303 q 272 284 303 303 q 241 225 241 265 q 254 185 241 201 q 288 159 266 168 q 338 150 310 150 q 398 160 363 150 q 458 194 433 170 q 484 258 484 218 l 484 342 l 473 374 l 473 474 q 466 512 473 495 q 442 542 458 530 q 404 561 427 554 q 353 567 382 567 q 283 560 321 567 q 212 540 246 553 q 152 511 177 528 l 81 673 q 152 704 108 688 q 254 730 197 720 q 377 741 311 741 q 540 714 479 741 q 629 648 600 688 q 668 562 659 608 q 677 477 677 516 l 677 257 q 686 200 677 220 q 719 174 695 181 l 735 168 l 660 -11 l 635 -3 q 540 51 572 18 q 502 116 508 83 l 549 83 l 465 83 l 522 100 q 434 23 500 57 q 283 -11 369 -11 m 368 -337 q 275 -299 313 -337 q 237 -207 237 -261 q 275 -114 237 -151 q 368 -76 313 -76 q 460 -114 422 -76 q 498 -207 498 -151 q 460 -299 498 -261 q 368 -337 422 -337 m 199 777 l 117 876 l 361 1084 l 404 1084 l 647 876 l 565 777 l 385 934 l 380 934 l 199 777 z "},"ầ":{"ha":768,"x_min":-73,"x_max":735,"o":"m 282 -11 q 153 18 208 -11 q 65 97 97 47 q 34 210 34 147 q 70 329 34 277 q 173 410 106 381 q 330 439 239 439 l 509 439 l 509 305 l 370 305 q 275 285 307 305 q 243 224 243 264 q 255 185 243 202 q 289 159 268 169 q 337 150 310 150 q 398 160 364 150 q 457 193 432 170 q 481 254 481 216 l 481 345 l 475 375 l 475 475 q 467 511 475 494 q 444 541 459 528 q 406 561 429 553 q 355 568 384 568 q 287 561 323 568 q 215 541 250 553 q 153 511 180 528 l 79 672 q 152 704 108 688 q 253 731 197 720 q 374 742 309 742 q 533 718 473 742 q 624 654 593 694 q 666 569 655 615 q 677 478 677 523 l 677 256 q 687 201 677 221 q 720 174 697 182 l 735 168 l 661 -11 l 634 -3 q 539 51 574 16 q 498 119 505 85 l 551 85 l 456 85 l 519 100 q 432 23 497 56 q 282 -11 368 -11 m 158 984 l -73 1142 l 28 1276 l 252 1050 l 158 984 m 549 789 l 382 915 l 378 915 l 208 789 l 115 886 l 358 1053 l 400 1053 l 644 886 l 549 789 z "},"ẩ":{"ha":768,"x_min":35,"x_max":735,"o":"m 283 -11 q 154 19 210 -11 q 66 99 98 49 q 35 212 35 149 q 70 328 35 277 q 173 408 106 379 q 336 437 241 437 l 510 437 l 510 303 l 361 303 q 272 284 303 303 q 241 225 241 265 q 254 185 241 201 q 288 159 266 168 q 338 150 310 150 q 398 160 363 150 q 458 194 433 170 q 484 258 484 218 l 484 342 l 473 374 l 473 474 q 466 512 473 495 q 442 542 458 530 q 404 561 427 554 q 353 567 382 567 q 283 560 321 567 q 212 540 246 553 q 152 511 177 528 l 81 673 q 152 704 108 688 q 254 730 197 720 q 377 741 311 741 q 540 714 479 741 q 629 648 600 688 q 668 562 659 608 q 677 477 677 516 l 677 257 q 686 200 677 220 q 719 174 695 181 l 735 168 l 660 -11 l 635 -3 q 540 51 572 18 q 502 116 508 83 l 549 83 l 465 83 l 522 100 q 434 23 500 57 q 283 -11 369 -11 m 592 985 l 516 1042 q 551 1074 538 1058 q 564 1107 564 1090 q 548 1138 564 1127 q 495 1149 531 1149 q 461 1146 478 1149 q 424 1137 444 1143 l 424 1262 q 470 1273 439 1270 q 526 1276 500 1276 q 647 1242 601 1276 q 692 1137 692 1209 q 676 1072 692 1101 q 636 1020 660 1042 q 592 985 613 998 m 213 789 l 117 886 l 361 1053 l 403 1053 l 646 886 l 554 789 l 383 915 l 380 915 l 213 789 z "},"ẫ":{"ha":768,"x_min":35,"x_max":735,"o":"m 283 -11 q 154 19 210 -11 q 66 99 98 49 q 35 212 35 149 q 70 328 35 277 q 173 408 106 379 q 336 437 241 437 l 510 437 l 510 303 l 361 303 q 272 284 303 303 q 241 225 241 265 q 254 185 241 201 q 288 159 266 168 q 338 150 310 150 q 398 160 363 150 q 458 194 433 170 q 484 258 484 218 l 484 342 l 473 374 l 473 474 q 466 512 473 495 q 442 542 458 530 q 404 561 427 554 q 353 567 382 567 q 283 560 321 567 q 212 540 246 553 q 152 511 177 528 l 81 673 q 152 704 108 688 q 254 730 197 720 q 377 741 311 741 q 540 714 479 741 q 629 648 600 688 q 668 562 659 608 q 677 477 677 516 l 677 257 q 686 200 677 220 q 719 174 695 181 l 735 168 l 660 -11 l 635 -3 q 540 51 572 18 q 502 116 508 83 l 549 83 l 465 83 l 522 100 q 434 23 500 57 q 283 -11 369 -11 m 123 1071 q 165 1219 121 1162 q 285 1276 208 1276 q 349 1265 323 1276 q 392 1238 374 1253 q 427 1211 410 1222 q 463 1199 443 1199 q 500 1220 488 1199 q 513 1276 513 1241 l 644 1276 q 629 1173 644 1219 q 579 1099 613 1126 q 495 1071 546 1071 q 431 1083 457 1071 q 388 1110 406 1095 q 354 1138 370 1126 q 318 1149 338 1149 q 272 1130 291 1149 q 251 1071 252 1110 l 123 1071 m 213 789 l 117 886 l 361 1053 l 403 1053 l 646 886 l 554 789 l 383 915 l 380 915 l 213 789 z "},"ȁ":{"ha":768,"x_min":35,"x_max":735,"o":"m 283 -11 q 154 19 210 -11 q 66 99 98 49 q 35 212 35 149 q 70 328 35 277 q 173 408 106 379 q 336 437 241 437 l 510 437 l 510 303 l 361 303 q 272 284 303 303 q 241 225 241 265 q 254 185 241 201 q 288 159 266 168 q 338 150 310 150 q 398 160 363 150 q 458 194 433 170 q 484 258 484 218 l 484 342 l 473 374 l 473 474 q 466 512 473 495 q 442 542 458 530 q 404 561 427 554 q 353 567 382 567 q 283 560 321 567 q 212 540 246 553 q 152 511 177 528 l 81 673 q 152 704 108 688 q 254 730 197 720 q 377 741 311 741 q 540 714 479 741 q 629 648 600 688 q 668 562 659 608 q 677 477 677 516 l 677 257 q 686 200 677 220 q 719 174 695 181 l 735 168 l 660 -11 l 635 -3 q 540 51 572 18 q 502 116 508 83 l 549 83 l 465 83 l 522 100 q 434 23 500 57 q 283 -11 369 -11 m 488 794 l 332 1029 l 477 1097 l 601 820 l 488 794 m 237 794 l 80 1029 l 222 1097 l 349 820 l 237 794 z "},"ä":{"ha":768,"x_min":35,"x_max":735,"o":"m 283 -11 q 154 19 210 -11 q 66 99 98 49 q 35 212 35 149 q 70 328 35 277 q 173 408 106 379 q 336 437 241 437 l 510 437 l 510 303 l 361 303 q 272 284 303 303 q 241 225 241 265 q 254 185 241 201 q 288 159 266 168 q 338 150 310 150 q 398 160 363 150 q 458 194 433 170 q 484 258 484 218 l 484 342 l 473 374 l 473 474 q 466 512 473 495 q 442 542 458 530 q 404 561 427 554 q 353 567 382 567 q 283 560 321 567 q 212 540 246 553 q 152 511 177 528 l 81 673 q 152 704 108 688 q 254 730 197 720 q 377 741 311 741 q 540 714 479 741 q 629 648 600 688 q 668 562 659 608 q 677 477 677 516 l 677 257 q 686 200 677 220 q 719 174 695 181 l 735 168 l 660 -11 l 635 -3 q 540 51 572 18 q 502 116 508 83 l 549 83 l 465 83 l 522 100 q 434 23 500 57 q 283 -11 369 -11 m 547 824 q 463 859 497 824 q 429 943 429 893 q 463 1027 429 993 q 547 1061 497 1061 q 631 1027 597 1061 q 665 943 665 993 q 631 859 665 893 q 547 824 597 824 m 218 824 q 134 859 169 824 q 100 943 100 893 q 134 1027 100 993 q 218 1061 169 1061 q 302 1027 269 1061 q 336 943 336 993 q 302 859 336 893 q 218 824 269 824 z "},"ȧ":{"ha":768,"x_min":35,"x_max":735,"o":"m 283 -11 q 154 19 210 -11 q 66 99 98 49 q 35 212 35 149 q 70 328 35 277 q 173 408 106 379 q 336 437 241 437 l 510 437 l 510 303 l 361 303 q 272 284 303 303 q 241 225 241 265 q 254 185 241 201 q 288 159 266 168 q 338 150 310 150 q 398 160 363 150 q 458 194 433 170 q 484 258 484 218 l 484 342 l 473 374 l 473 474 q 466 512 473 495 q 442 542 458 530 q 404 561 427 554 q 353 567 382 567 q 283 560 321 567 q 212 540 246 553 q 152 511 177 528 l 81 673 q 152 704 108 688 q 254 730 197 720 q 377 741 311 741 q 540 714 479 741 q 629 648 600 688 q 668 562 659 608 q 677 477 677 516 l 677 257 q 686 200 677 220 q 719 174 695 181 l 735 168 l 660 -11 l 635 -3 q 540 51 572 18 q 502 116 508 83 l 549 83 l 465 83 l 522 100 q 434 23 500 57 q 283 -11 369 -11 m 382 813 q 290 851 328 813 q 252 943 252 889 q 290 1037 252 999 q 382 1074 328 1074 q 475 1037 437 1074 q 513 943 513 999 q 475 851 513 889 q 382 813 437 813 z "},"ạ":{"ha":768,"x_min":35,"x_max":735,"o":"m 283 -11 q 154 19 210 -11 q 66 99 98 49 q 35 212 35 149 q 70 328 35 277 q 173 408 106 379 q 336 437 241 437 l 510 437 l 510 303 l 361 303 q 272 284 303 303 q 241 225 241 265 q 254 185 241 201 q 288 159 266 168 q 338 150 310 150 q 398 160 363 150 q 458 194 433 170 q 484 258 484 218 l 484 342 l 473 374 l 473 474 q 466 512 473 495 q 442 542 458 530 q 404 561 427 554 q 353 567 382 567 q 283 560 321 567 q 212 540 246 553 q 152 511 177 528 l 81 673 q 152 704 108 688 q 254 730 197 720 q 377 741 311 741 q 540 714 479 741 q 629 648 600 688 q 668 562 659 608 q 677 477 677 516 l 677 257 q 686 200 677 220 q 719 174 695 181 l 735 168 l 660 -11 l 635 -3 q 540 51 572 18 q 502 116 508 83 l 549 83 l 465 83 l 522 100 q 434 23 500 57 q 283 -11 369 -11 m 368 -337 q 275 -299 313 -337 q 237 -207 237 -261 q 275 -114 237 -151 q 368 -76 313 -76 q 460 -114 422 -76 q 498 -207 498 -151 q 460 -299 498 -261 q 368 -337 422 -337 z "},"à":{"ha":768,"x_min":35,"x_max":735,"o":"m 283 -11 q 154 19 210 -11 q 66 99 98 49 q 35 212 35 149 q 70 328 35 277 q 173 408 106 379 q 336 437 241 437 l 510 437 l 510 303 l 361 303 q 272 284 303 303 q 241 225 241 265 q 254 185 241 201 q 288 159 266 168 q 338 150 310 150 q 398 160 363 150 q 458 194 433 170 q 484 258 484 218 l 484 342 l 473 374 l 473 474 q 466 512 473 495 q 442 542 458 530 q 404 561 427 554 q 353 567 382 567 q 283 560 321 567 q 212 540 246 553 q 152 511 177 528 l 81 673 q 152 704 108 688 q 254 730 197 720 q 377 741 311 741 q 540 714 479 741 q 629 648 600 688 q 668 562 659 608 q 677 477 677 516 l 677 257 q 686 200 677 220 q 719 174 695 181 l 735 168 l 660 -11 l 635 -3 q 540 51 572 18 q 502 116 508 83 l 549 83 l 465 83 l 522 100 q 434 23 500 57 q 283 -11 369 -11 m 384 784 l 154 1000 l 276 1118 l 474 860 l 384 784 z "},"ả":{"ha":768,"x_min":35,"x_max":735,"o":"m 283 -11 q 154 19 210 -11 q 66 99 98 49 q 35 212 35 149 q 70 328 35 277 q 173 408 106 379 q 336 437 241 437 l 510 437 l 510 303 l 361 303 q 272 284 303 303 q 241 225 241 265 q 254 185 241 201 q 288 159 266 168 q 338 150 310 150 q 398 160 363 150 q 458 194 433 170 q 484 258 484 218 l 484 342 l 473 374 l 473 474 q 466 512 473 495 q 442 542 458 530 q 404 561 427 554 q 353 567 382 567 q 283 560 321 567 q 212 540 246 553 q 152 511 177 528 l 81 673 q 152 704 108 688 q 254 730 197 720 q 377 741 311 741 q 540 714 479 741 q 629 648 600 688 q 668 562 659 608 q 677 477 677 516 l 677 257 q 686 200 677 220 q 719 174 695 181 l 735 168 l 660 -11 l 635 -3 q 540 51 572 18 q 502 116 508 83 l 549 83 l 465 83 l 522 100 q 434 23 500 57 q 283 -11 369 -11 m 407 782 l 331 857 q 367 886 351 868 q 383 924 383 905 q 364 953 383 943 q 312 962 345 962 q 278 960 296 962 q 243 950 260 957 l 243 1074 q 288 1086 258 1082 q 342 1090 317 1090 q 466 1055 420 1090 q 512 952 512 1019 q 479 846 512 892 q 407 782 446 800 z "},"ȃ":{"ha":768,"x_min":34,"x_max":735,"o":"m 282 -11 q 153 18 208 -11 q 65 97 97 47 q 34 210 34 147 q 70 329 34 277 q 173 410 106 381 q 330 439 239 439 l 509 439 l 509 305 l 370 305 q 275 285 307 305 q 243 224 243 264 q 255 185 243 202 q 289 159 268 169 q 337 150 310 150 q 398 160 364 150 q 457 193 432 170 q 481 254 481 216 l 481 345 l 475 375 l 475 475 q 467 511 475 494 q 444 541 459 528 q 406 561 429 553 q 355 568 384 568 q 287 561 323 568 q 215 541 250 553 q 153 511 180 528 l 79 672 q 152 704 108 688 q 253 731 197 720 q 374 742 309 742 q 533 718 473 742 q 624 654 593 694 q 666 569 655 615 q 677 478 677 523 l 677 256 q 687 201 677 221 q 720 174 697 182 l 735 168 l 661 -11 l 634 -3 q 539 51 574 16 q 498 119 505 85 l 551 85 l 456 85 l 519 100 q 432 23 497 56 q 282 -11 368 -11 m 382 1046 q 515 1016 456 1046 q 609 932 574 985 q 643 814 644 880 l 513 814 q 475 897 513 863 q 382 930 437 930 q 290 897 328 930 q 251 814 252 863 l 121 814 q 155 932 121 880 q 249 1016 190 985 q 382 1046 309 1046 z "},"ā":{"ha":768,"x_min":35,"x_max":735,"o":"m 283 -11 q 154 19 210 -11 q 66 99 98 49 q 35 212 35 149 q 70 328 35 277 q 173 408 106 379 q 336 437 241 437 l 510 437 l 510 303 l 361 303 q 272 284 303 303 q 241 225 241 265 q 254 185 241 201 q 288 159 266 168 q 338 150 310 150 q 398 160 363 150 q 458 194 433 170 q 484 258 484 218 l 484 342 l 473 374 l 473 474 q 466 512 473 495 q 442 542 458 530 q 404 561 427 554 q 353 567 382 567 q 283 560 321 567 q 212 540 246 553 q 152 511 177 528 l 81 673 q 152 704 108 688 q 254 730 197 720 q 377 741 311 741 q 540 714 479 741 q 629 648 600 688 q 668 562 659 608 q 677 477 677 516 l 677 257 q 686 200 677 220 q 719 174 695 181 l 735 168 l 660 -11 l 635 -3 q 540 51 572 18 q 502 116 508 83 l 549 83 l 465 83 l 522 100 q 434 23 500 57 q 283 -11 369 -11 m 102 849 l 102 979 l 663 979 l 663 849 l 102 849 z "},"ą":{"ha":768,"x_min":34,"x_max":735,"o":"m 629 -302 q 515 -263 559 -302 q 469 -163 471 -224 q 491 -79 470 -119 q 536 -10 511 -40 q 575 37 562 20 l 661 -11 q 620 -72 634 -42 q 605 -125 605 -101 q 624 -166 605 -155 q 663 -176 642 -177 q 700 -172 682 -177 q 732 -161 718 -167 l 732 -285 q 682 -298 712 -294 q 629 -302 651 -302 m 282 -11 q 153 18 208 -11 q 65 97 97 47 q 34 210 34 147 q 70 329 34 277 q 173 410 106 381 q 330 439 239 439 l 509 439 l 509 305 l 370 305 q 275 285 307 305 q 243 224 243 264 q 255 185 243 202 q 289 159 268 169 q 337 150 310 150 q 398 160 364 150 q 457 193 432 170 q 481 254 481 216 l 481 345 l 475 375 l 475 475 q 467 511 475 494 q 444 541 459 528 q 406 561 429 553 q 355 568 384 568 q 287 561 323 568 q 215 541 250 553 q 153 511 180 528 l 79 672 q 152 704 108 688 q 253 731 197 720 q 374 742 309 742 q 533 718 473 742 q 624 654 593 694 q 666 569 655 615 q 677 478 677 523 l 677 256 q 687 201 677 221 q 720 174 697 182 l 735 168 l 661 -11 l 634 -3 q 539 51 574 16 q 498 119 505 85 l 551 85 l 456 85 l 519 100 q 432 23 497 56 q 282 -11 368 -11 z "},"å":{"ha":768,"x_min":35,"x_max":735,"o":"m 283 -11 q 154 19 210 -11 q 66 99 98 49 q 35 212 35 149 q 70 328 35 277 q 173 408 106 379 q 336 437 241 437 l 510 437 l 510 303 l 361 303 q 272 284 303 303 q 241 225 241 265 q 254 185 241 201 q 288 159 266 168 q 338 150 310 150 q 398 160 363 150 q 458 194 433 170 q 484 258 484 218 l 484 342 l 473 374 l 473 474 q 466 512 473 495 q 442 542 458 530 q 404 561 427 554 q 353 567 382 567 q 283 560 321 567 q 212 540 246 553 q 152 511 177 528 l 81 673 q 152 704 108 688 q 254 730 197 720 q 377 741 311 741 q 540 714 479 741 q 629 648 600 688 q 668 562 659 608 q 677 477 677 516 l 677 257 q 686 200 677 220 q 719 174 695 181 l 735 168 l 660 -11 l 635 -3 q 540 51 572 18 q 502 116 508 83 l 549 83 l 465 83 l 522 100 q 434 23 500 57 q 283 -11 369 -11 m 382 818 q 262 864 311 818 q 213 978 213 910 q 262 1092 213 1046 q 382 1137 311 1137 q 504 1092 456 1137 q 553 978 553 1046 q 504 864 553 910 q 382 818 456 818 m 382 913 q 429 932 411 913 q 447 979 447 951 q 429 1024 447 1006 q 382 1042 412 1042 q 338 1025 357 1042 q 319 978 319 1007 q 338 932 319 951 q 382 913 357 913 z "},"ǻ":{"ha":768,"x_min":34,"x_max":735,"o":"m 382 818 q 261 864 310 818 q 212 978 212 910 q 261 1092 212 1046 q 382 1137 310 1137 q 504 1092 456 1137 q 553 978 553 1046 q 504 864 553 910 q 382 818 456 818 m 382 913 q 428 932 410 913 q 446 979 446 951 q 429 1024 446 1006 q 382 1042 411 1042 q 337 1025 356 1042 q 319 978 319 1007 q 337 932 319 951 q 382 913 356 913 m 407 1172 l 319 1261 l 557 1468 l 658 1337 l 407 1172 m 282 -11 q 153 18 208 -11 q 65 97 97 47 q 34 210 34 147 q 70 329 34 277 q 173 410 106 381 q 330 439 239 439 l 509 439 l 509 305 l 370 305 q 275 285 307 305 q 243 224 243 264 q 255 185 243 202 q 289 159 268 169 q 337 150 310 150 q 398 160 364 150 q 457 193 432 170 q 481 254 481 216 l 481 345 l 475 375 l 475 475 q 467 511 475 494 q 444 541 459 528 q 406 561 429 553 q 355 568 384 568 q 287 561 323 568 q 215 541 250 553 q 153 511 180 528 l 79 672 q 152 704 108 688 q 253 731 197 720 q 374 742 309 742 q 533 718 473 742 q 624 654 593 694 q 666 569 655 615 q 677 478 677 523 l 677 256 q 687 201 677 221 q 720 174 697 182 l 735 168 l 661 -11 l 634 -3 q 539 51 574 16 q 498 119 505 85 l 551 85 l 456 85 l 519 100 q 432 23 497 56 q 282 -11 368 -11 z "},"ã":{"ha":768,"x_min":35,"x_max":735,"o":"m 283 -11 q 154 19 210 -11 q 66 99 98 49 q 35 212 35 149 q 70 328 35 277 q 173 408 106 379 q 336 437 241 437 l 510 437 l 510 303 l 361 303 q 272 284 303 303 q 241 225 241 265 q 254 185 241 201 q 288 159 266 168 q 338 150 310 150 q 398 160 363 150 q 458 194 433 170 q 484 258 484 218 l 484 342 l 473 374 l 473 474 q 466 512 473 495 q 442 542 458 530 q 404 561 427 554 q 353 567 382 567 q 283 560 321 567 q 212 540 246 553 q 152 511 177 528 l 81 673 q 152 704 108 688 q 254 730 197 720 q 377 741 311 741 q 540 714 479 741 q 629 648 600 688 q 668 562 659 608 q 677 477 677 516 l 677 257 q 686 200 677 220 q 719 174 695 181 l 735 168 l 660 -11 l 635 -3 q 540 51 572 18 q 502 116 508 83 l 549 83 l 465 83 l 522 100 q 434 23 500 57 q 283 -11 369 -11 m 113 814 q 160 975 113 916 q 281 1034 206 1034 q 347 1020 321 1034 q 392 988 373 1006 q 427 956 411 970 q 463 942 444 942 q 502 968 490 942 q 513 1034 513 995 l 648 1034 q 603 874 649 935 q 480 814 556 814 q 415 828 441 814 q 370 861 389 842 q 335 893 351 879 q 297 907 318 907 q 260 881 272 907 q 248 814 249 854 l 113 814 z "},"æ":{"ha":1166,"x_min":34,"x_max":1132,"o":"m 302 -11 q 158 21 218 -11 q 66 104 98 52 q 34 217 34 156 q 113 374 34 315 q 324 432 192 432 l 507 432 l 507 304 l 363 304 q 272 283 304 304 q 240 223 240 262 q 268 168 240 188 q 341 147 296 147 q 414 163 382 147 q 464 209 446 180 q 482 279 482 239 l 482 420 q 482 473 482 446 q 471 522 481 499 q 435 559 461 545 q 356 573 408 573 q 237 554 294 573 q 148 511 180 535 l 79 672 q 191 719 117 696 q 359 741 265 741 q 541 702 481 741 q 622 606 601 663 l 559 606 q 617 679 575 648 q 714 725 660 709 q 819 741 768 741 q 930 721 875 741 q 1031 660 985 702 q 1104 551 1076 618 q 1132 389 1132 484 q 1130 344 1132 364 q 1123 304 1128 323 l 627 304 l 618 432 l 949 432 q 931 506 949 473 q 882 559 913 540 q 808 579 850 579 q 732 560 770 579 q 668 495 694 541 q 642 372 642 450 q 662 262 642 304 q 713 196 682 219 q 778 164 744 173 q 839 155 812 155 q 925 170 884 155 q 1001 211 966 184 l 1066 52 q 965 7 1031 25 q 834 -11 900 -11 q 654 35 727 -11 q 540 156 582 81 l 591 156 q 547 84 585 123 q 448 17 510 45 q 302 -11 385 -11 z "},"ǽ":{"ha":1166,"x_min":34,"x_max":1132,"o":"m 302 -11 q 158 21 218 -11 q 66 104 98 52 q 34 217 34 156 q 113 374 34 315 q 324 432 192 432 l 507 432 l 507 304 l 363 304 q 272 283 304 304 q 240 223 240 262 q 268 168 240 188 q 341 147 296 147 q 414 163 382 147 q 464 209 446 180 q 482 279 482 239 l 482 420 q 482 473 482 446 q 471 522 481 499 q 435 559 461 545 q 356 573 408 573 q 237 554 294 573 q 148 511 180 535 l 79 672 q 191 719 117 696 q 359 741 265 741 q 541 702 481 741 q 622 606 601 663 l 559 606 q 617 679 575 648 q 714 725 660 709 q 819 741 768 741 q 930 721 875 741 q 1031 660 985 702 q 1104 551 1076 618 q 1132 389 1132 484 q 1130 344 1132 364 q 1123 304 1128 323 l 627 304 l 618 432 l 949 432 q 931 506 949 473 q 882 559 913 540 q 808 579 850 579 q 732 560 770 579 q 668 495 694 541 q 642 372 642 450 q 662 262 642 304 q 713 196 682 219 q 778 164 744 173 q 839 155 812 155 q 925 170 884 155 q 1001 211 966 184 l 1066 52 q 965 7 1031 25 q 834 -11 900 -11 q 654 35 727 -11 q 540 156 582 81 l 591 156 q 547 84 585 123 q 448 17 510 45 q 302 -11 385 -11 m 585 784 l 494 861 l 694 1118 l 814 1001 l 585 784 z "},"b":{"ha":840,"x_min":68,"x_max":809,"o":"m 68 0 l 68 1044 l 282 1044 l 282 667 l 298 667 l 268 553 l 268 156 l 301 82 l 272 82 l 272 0 l 68 0 m 490 -11 q 324 41 397 -11 q 208 180 251 93 q 165 372 165 267 q 206 558 165 474 q 318 692 247 642 q 484 742 390 742 q 641 699 566 742 q 762 572 715 656 q 808 363 809 488 q 781 198 808 268 q 708 81 754 127 q 605 12 662 35 q 490 -11 548 -11 m 439 168 q 523 193 487 169 q 579 262 559 218 q 599 367 600 307 q 579 472 600 428 q 521 539 558 515 q 435 562 484 562 q 354 539 390 562 q 297 472 318 516 q 276 367 276 429 q 297 262 276 307 q 355 193 319 218 q 439 168 392 169 z "},"c":{"ha":662,"x_min":33,"x_max":645,"o":"m 426 -8 q 274 21 345 -8 q 149 100 203 50 q 64 220 94 151 q 33 368 33 288 q 63 514 33 446 q 146 633 93 582 q 269 712 199 684 q 418 741 339 741 q 539 723 481 741 q 644 673 597 705 l 566 501 q 525 530 547 518 q 477 549 503 543 q 424 555 452 555 q 324 530 366 555 q 260 461 282 504 q 237 368 237 419 q 261 271 237 315 q 327 202 286 228 q 422 177 369 177 q 508 193 467 177 q 568 227 549 208 l 645 51 q 549 9 606 27 q 426 -8 492 -8 z "},"ć":{"ha":662,"x_min":33,"x_max":651,"o":"m 426 -8 q 274 21 345 -8 q 149 100 203 50 q 64 220 94 151 q 33 368 33 288 q 63 514 33 446 q 146 633 93 582 q 269 712 199 684 q 418 741 339 741 q 539 723 481 741 q 644 673 597 705 l 566 501 q 525 530 547 518 q 477 549 503 543 q 424 555 452 555 q 324 530 366 555 q 260 461 282 504 q 237 368 237 419 q 261 271 237 315 q 327 202 286 228 q 422 177 369 177 q 508 193 467 177 q 568 227 549 208 l 645 51 q 549 9 606 27 q 426 -8 492 -8 m 422 784 l 331 861 l 531 1118 l 651 1001 l 422 784 z "},"č":{"ha":662,"x_min":33,"x_max":687,"o":"m 426 -8 q 274 21 345 -8 q 149 100 203 50 q 64 220 94 151 q 33 368 33 288 q 63 514 33 446 q 146 633 93 582 q 269 712 199 684 q 418 741 339 741 q 539 723 481 741 q 644 673 597 705 l 566 501 q 525 530 547 518 q 477 549 503 543 q 424 555 452 555 q 324 530 366 555 q 260 461 282 504 q 237 368 237 419 q 261 271 237 315 q 327 202 286 228 q 422 177 369 177 q 508 193 467 177 q 568 227 549 208 l 645 51 q 549 9 606 27 q 426 -8 492 -8 m 239 1095 l 420 937 l 425 937 l 606 1095 l 687 995 l 444 787 l 401 787 l 157 995 l 239 1095 z "},"ç":{"ha":662,"x_min":33,"x_max":645,"o":"m 426 -8 q 274 21 345 -8 q 149 100 203 50 q 64 220 94 151 q 33 368 33 288 q 63 514 33 446 q 146 633 93 582 q 269 712 199 684 q 418 741 339 741 q 539 723 481 741 q 644 673 597 705 l 566 501 q 525 530 547 518 q 477 549 503 543 q 424 555 452 555 q 324 530 366 555 q 260 461 282 504 q 237 368 237 419 q 261 271 237 315 q 327 202 286 228 q 422 177 369 177 q 508 193 467 177 q 568 227 549 208 l 645 51 q 549 9 606 27 q 426 -8 492 -8 m 295 -347 l 295 -243 q 402 -229 370 -245 q 435 -187 435 -213 q 409 -153 435 -168 q 333 -136 382 -139 l 378 0 l 470 0 l 429 -111 l 420 -64 q 523 -108 484 -75 q 562 -197 562 -142 q 498 -307 562 -264 q 295 -347 435 -349 z "},"ḉ":{"ha":662,"x_min":33,"x_max":651,"o":"m 426 -8 q 274 21 345 -8 q 149 100 203 50 q 64 220 94 151 q 33 368 33 288 q 63 514 33 446 q 146 633 93 582 q 269 712 199 684 q 418 741 339 741 q 539 723 481 741 q 644 673 597 705 l 566 501 q 525 530 547 518 q 477 549 503 543 q 424 555 452 555 q 324 530 366 555 q 260 461 282 504 q 237 368 237 419 q 261 271 237 315 q 327 202 286 228 q 422 177 369 177 q 508 193 467 177 q 568 227 549 208 l 645 51 q 549 9 606 27 q 426 -8 492 -8 m 295 -347 l 295 -243 q 402 -229 370 -245 q 435 -187 435 -213 q 409 -153 435 -168 q 333 -136 382 -139 l 378 0 l 470 0 l 429 -111 l 420 -64 q 523 -108 484 -75 q 562 -197 562 -142 q 498 -307 562 -264 q 295 -347 435 -349 m 422 784 l 331 861 l 531 1118 l 651 1001 l 422 784 z "},"ĉ":{"ha":662,"x_min":33,"x_max":687,"o":"m 426 -8 q 274 21 345 -8 q 149 100 203 50 q 64 220 94 151 q 33 368 33 288 q 63 514 33 446 q 146 633 93 582 q 269 712 199 684 q 418 741 339 741 q 539 723 481 741 q 644 673 597 705 l 566 501 q 525 530 547 518 q 477 549 503 543 q 424 555 452 555 q 324 530 366 555 q 260 461 282 504 q 237 368 237 419 q 261 271 237 315 q 327 202 286 228 q 422 177 369 177 q 508 193 467 177 q 568 227 549 208 l 645 51 q 549 9 606 27 q 426 -8 492 -8 m 239 777 l 157 876 l 401 1084 l 444 1084 l 687 876 l 605 777 l 425 934 l 420 934 l 239 777 z "},"ċ":{"ha":662,"x_min":33,"x_max":645,"o":"m 426 -8 q 274 21 345 -8 q 149 100 203 50 q 64 220 94 151 q 33 368 33 288 q 63 514 33 446 q 146 633 93 582 q 269 712 199 684 q 418 741 339 741 q 539 723 481 741 q 644 673 597 705 l 566 501 q 525 530 547 518 q 477 549 503 543 q 424 555 452 555 q 324 530 366 555 q 260 461 282 504 q 237 368 237 419 q 261 271 237 315 q 327 202 286 228 q 422 177 369 177 q 508 193 467 177 q 568 227 549 208 l 645 51 q 549 9 606 27 q 426 -8 492 -8 m 422 813 q 330 851 368 813 q 292 943 292 889 q 330 1037 292 999 q 422 1074 368 1074 q 515 1037 477 1074 q 553 943 553 999 q 515 851 553 889 q 422 813 477 813 z "},"d":{"ha":864,"x_min":31,"x_max":828,"o":"m 753 -11 q 668 23 703 5 q 612 65 633 42 q 585 114 591 87 l 602 102 l 540 102 l 570 188 l 570 595 l 536 670 l 555 670 l 555 1044 l 770 1044 l 770 252 q 783 196 770 212 q 828 168 797 180 l 753 -11 m 351 -11 q 235 12 292 -11 q 132 81 178 35 q 59 198 86 127 q 33 363 32 268 q 78 572 31 488 q 200 699 125 656 q 357 742 275 742 q 522 692 450 742 q 634 558 593 642 q 675 372 675 474 q 632 180 675 267 q 516 41 589 93 q 351 -11 443 -11 m 401 168 q 485 193 448 169 q 543 262 522 218 q 565 367 564 307 q 543 472 564 429 q 486 539 522 516 q 405 562 450 562 q 320 539 357 562 q 262 472 283 515 q 241 367 241 428 q 261 262 241 307 q 317 193 281 218 q 401 168 354 169 z "},"ď":{"ha":956,"x_min":31,"x_max":1031,"o":"m 753 -11 q 668 23 703 5 q 612 65 633 42 q 585 114 591 87 l 602 102 l 540 102 l 570 188 l 570 595 l 536 670 l 555 670 l 555 1044 l 770 1044 l 770 252 q 783 196 770 212 q 828 168 797 180 l 753 -11 m 351 -11 q 235 12 292 -11 q 132 81 178 35 q 59 198 86 127 q 33 363 32 268 q 78 572 31 488 q 200 699 125 656 q 357 742 275 742 q 522 692 450 742 q 634 558 593 642 q 675 372 675 474 q 632 180 675 267 q 516 41 589 93 q 351 -11 443 -11 m 401 168 q 485 193 448 169 q 543 262 522 218 q 565 367 564 307 q 543 472 564 429 q 486 539 522 516 q 405 562 450 562 q 320 539 357 562 q 262 472 283 515 q 241 367 241 428 q 261 262 241 307 q 317 193 281 218 q 401 168 354 169 m 857 698 l 861 1044 l 1031 1044 l 1008 698 l 857 698 z "},"đ":{"ha":864,"x_min":31,"x_max":885,"o":"m 753 -11 q 668 23 703 5 q 612 65 633 42 q 585 114 591 87 l 602 102 l 540 102 l 570 188 l 570 595 l 536 670 l 555 670 l 555 1044 l 770 1044 l 770 252 q 783 196 770 212 q 828 168 797 180 l 753 -11 m 351 -11 q 235 12 292 -11 q 132 81 178 35 q 59 198 86 127 q 33 363 32 268 q 78 572 31 488 q 200 699 125 656 q 357 742 275 742 q 522 692 450 742 q 634 558 593 642 q 675 372 675 474 q 632 180 675 267 q 516 41 589 93 q 351 -11 443 -11 m 401 168 q 485 193 448 169 q 543 262 522 218 q 565 367 564 307 q 543 472 564 429 q 486 539 522 516 q 405 562 450 562 q 320 539 357 562 q 262 472 283 515 q 241 367 241 428 q 261 262 241 307 q 317 193 281 218 q 401 168 354 169 m 441 819 l 441 933 l 885 933 l 885 819 l 441 819 z "},"ḍ":{"ha":864,"x_min":31,"x_max":828,"o":"m 753 -11 q 668 23 703 5 q 612 65 633 42 q 585 114 591 87 l 602 102 l 540 102 l 570 188 l 570 595 l 536 670 l 555 670 l 555 1044 l 770 1044 l 770 252 q 783 196 770 212 q 828 168 797 180 l 753 -11 m 351 -11 q 235 12 292 -11 q 132 81 178 35 q 59 198 86 127 q 33 363 32 268 q 78 572 31 488 q 200 699 125 656 q 357 742 275 742 q 522 692 450 742 q 634 558 593 642 q 675 372 675 474 q 632 180 675 267 q 516 41 589 93 q 351 -11 443 -11 m 401 168 q 485 193 448 169 q 543 262 522 218 q 565 367 564 307 q 543 472 564 429 q 486 539 522 516 q 405 562 450 562 q 320 539 357 562 q 262 472 283 515 q 241 367 241 428 q 261 262 241 307 q 317 193 281 218 q 401 168 354 169 m 415 -337 q 322 -299 360 -337 q 284 -207 284 -261 q 322 -114 284 -151 q 415 -76 360 -76 q 508 -114 470 -76 q 545 -207 545 -151 q 508 -299 545 -261 q 415 -337 470 -337 z "},"ḏ":{"ha":864,"x_min":31,"x_max":828,"o":"m 753 -11 q 668 23 703 5 q 612 65 633 42 q 585 114 591 87 l 602 102 l 540 102 l 570 188 l 570 595 l 536 670 l 555 670 l 555 1044 l 770 1044 l 770 252 q 783 196 770 212 q 828 168 797 180 l 753 -11 m 351 -11 q 235 12 292 -11 q 132 81 178 35 q 59 198 86 127 q 33 363 32 268 q 78 572 31 488 q 200 699 125 656 q 357 742 275 742 q 522 692 450 742 q 634 558 593 642 q 675 372 675 474 q 632 180 675 267 q 516 41 589 93 q 351 -11 443 -11 m 401 168 q 485 193 448 169 q 543 262 522 218 q 565 367 564 307 q 543 472 564 429 q 486 539 522 516 q 405 562 450 562 q 320 539 357 562 q 262 472 283 515 q 241 367 241 428 q 261 262 241 307 q 317 193 281 218 q 401 168 354 169 m 134 -285 l 134 -155 l 694 -155 l 694 -285 l 134 -285 z "},"ǆ":{"ha":1540,"x_min":31,"x_max":1510,"o":"m 753 -11 q 668 23 703 5 q 612 65 633 42 q 585 114 591 87 l 602 102 l 540 102 l 570 188 l 570 595 l 536 670 l 555 670 l 555 1044 l 770 1044 l 770 252 q 783 196 770 212 q 828 168 797 180 l 753 -11 m 351 -11 q 235 12 292 -11 q 132 81 178 35 q 59 198 86 127 q 33 363 32 268 q 78 572 31 488 q 200 699 125 656 q 357 742 275 742 q 522 692 450 742 q 634 558 593 642 q 675 372 675 474 q 632 180 675 267 q 516 41 589 93 q 351 -11 443 -11 m 401 168 q 485 193 448 169 q 543 262 522 218 q 565 367 564 307 q 543 472 564 429 q 486 539 522 516 q 405 562 450 562 q 320 539 357 562 q 262 472 283 515 q 241 367 241 428 q 261 262 241 307 q 317 193 281 218 q 401 168 354 169 m 890 0 l 890 43 l 1199 540 l 1199 545 l 913 545 l 913 730 l 1509 730 l 1509 684 l 1200 190 l 1200 184 l 1510 184 l 1510 0 l 890 0 m 1031 1095 l 1211 937 l 1217 937 l 1397 1095 l 1479 995 l 1236 787 l 1193 787 l 949 995 l 1031 1095 z "},"ð":{"ha":819,"x_min":31,"x_max":788,"o":"m 406 -11 q 217 36 302 -11 q 82 163 132 82 q 31 349 31 245 q 77 525 31 446 q 202 651 123 604 q 378 698 281 698 q 466 687 421 698 q 545 653 511 676 q 591 592 579 630 l 553 635 l 608 635 l 581 605 q 516 723 557 668 q 418 825 474 779 q 294 909 361 872 q 151 974 227 947 l 233 1140 q 467 1008 363 1082 q 642 846 570 935 q 751 655 713 758 q 788 437 788 553 q 740 202 788 302 q 605 45 691 101 q 406 -11 518 -11 m 411 177 q 500 201 461 177 q 561 267 539 225 q 583 360 583 309 q 561 449 583 411 q 499 508 538 487 q 410 529 460 529 q 321 507 360 529 q 259 447 281 486 q 237 359 237 409 q 259 266 237 307 q 322 201 282 224 q 411 177 361 177 m 210 742 l 153 825 l 625 1137 l 699 1027 l 210 742 z "},"e":{"ha":765,"x_min":33,"x_max":730,"o":"m 420 -11 q 215 37 302 -11 q 81 169 128 85 q 33 363 33 254 q 83 563 33 478 q 214 693 132 647 q 394 740 296 740 q 565 696 488 740 q 686 576 641 653 q 730 398 730 500 q 727 345 730 371 q 720 296 724 318 l 197 296 l 197 430 l 533 430 q 515 506 533 474 q 465 555 496 538 q 391 572 433 572 q 298 546 336 572 q 238 473 259 519 q 218 370 218 427 q 243 259 218 307 q 313 185 268 212 q 417 159 358 159 q 484 167 450 159 q 547 186 518 174 q 592 212 575 198 l 659 52 q 554 7 617 24 q 420 -11 492 -11 z "},"é":{"ha":766,"x_min":33,"x_max":730,"o":"m 420 -11 q 215 37 302 -11 q 81 169 128 85 q 33 363 33 254 q 83 563 33 478 q 214 693 132 647 q 394 740 296 740 q 565 696 488 740 q 686 576 641 653 q 730 398 730 500 q 727 345 730 371 q 720 296 724 318 l 197 296 l 197 430 l 533 430 q 515 506 533 474 q 465 555 496 538 q 391 572 433 572 q 298 546 336 572 q 238 473 259 519 q 218 370 218 427 q 243 259 218 307 q 313 185 268 212 q 417 159 358 159 q 484 167 450 159 q 547 186 518 174 q 592 212 575 198 l 659 52 q 554 7 617 24 q 420 -11 492 -11 m 393 784 l 302 861 l 503 1118 l 623 1001 l 393 784 z "},"ĕ":{"ha":766,"x_min":33,"x_max":730,"o":"m 420 -11 q 215 37 302 -11 q 81 169 128 85 q 33 363 33 254 q 83 563 33 478 q 214 693 132 647 q 394 740 296 740 q 565 696 488 740 q 686 576 641 653 q 730 398 730 500 q 727 345 730 371 q 720 296 724 318 l 197 296 l 197 430 l 533 430 q 515 506 533 474 q 465 555 496 538 q 391 572 433 572 q 298 546 336 572 q 238 473 259 519 q 218 370 218 427 q 243 259 218 307 q 313 185 268 212 q 417 159 358 159 q 484 167 450 159 q 547 186 518 174 q 592 212 575 198 l 659 52 q 554 7 617 24 q 420 -11 492 -11 m 393 809 q 260 840 319 809 q 166 923 201 871 q 132 1042 132 976 l 262 1042 q 301 959 263 992 q 393 925 338 925 q 486 959 449 925 q 524 1042 524 992 l 654 1042 q 620 924 654 976 q 527 840 586 871 q 393 809 467 809 z "},"ě":{"ha":766,"x_min":33,"x_max":732,"o":"m 418 -11 q 215 37 301 -11 q 81 168 128 84 q 33 363 33 252 q 83 563 33 478 q 215 694 132 648 q 396 741 297 741 q 570 696 494 741 q 689 574 646 652 q 732 398 732 497 q 729 338 732 368 q 722 294 726 309 l 200 294 l 200 427 l 533 427 q 515 506 533 473 q 465 556 497 538 q 391 574 433 574 q 298 546 337 574 q 239 472 259 518 q 218 370 218 425 q 244 259 218 306 q 316 186 271 212 q 420 160 361 160 q 488 168 454 160 q 550 186 522 175 q 591 209 578 198 l 657 51 q 555 7 618 24 q 418 -11 492 -11 m 211 1095 l 391 937 l 397 937 l 576 1095 l 659 995 l 415 787 l 372 787 l 129 995 l 211 1095 z "},"ḝ":{"ha":766,"x_min":33,"x_max":730,"o":"m 420 -11 q 215 37 302 -11 q 81 169 128 85 q 33 363 33 254 q 83 563 33 478 q 214 693 132 647 q 394 740 296 740 q 565 696 488 740 q 686 576 641 653 q 730 398 730 500 q 727 345 730 371 q 720 296 724 318 l 197 296 l 197 430 l 533 430 q 515 506 533 474 q 465 555 496 538 q 391 572 433 572 q 298 546 336 572 q 238 473 259 519 q 218 370 218 427 q 243 259 218 307 q 313 185 268 212 q 417 159 358 159 q 484 167 450 159 q 547 186 518 174 q 592 212 575 198 l 659 52 q 554 7 617 24 q 420 -11 492 -11 m 286 -347 l 286 -243 q 393 -229 360 -245 q 426 -187 426 -213 q 399 -153 426 -168 q 323 -136 373 -139 l 368 0 l 460 0 l 420 -111 l 411 -64 q 513 -108 475 -75 q 552 -197 552 -142 q 489 -307 552 -264 q 286 -347 425 -349 m 393 809 q 260 840 319 809 q 166 923 201 871 q 132 1042 132 976 l 262 1042 q 301 959 263 992 q 393 925 338 925 q 486 959 449 925 q 524 1042 524 992 l 654 1042 q 620 924 654 976 q 527 840 586 871 q 393 809 467 809 z "},"ê":{"ha":766,"x_min":33,"x_max":730,"o":"m 420 -11 q 215 37 302 -11 q 81 169 128 85 q 33 363 33 254 q 83 563 33 478 q 214 693 132 647 q 394 740 296 740 q 565 696 488 740 q 686 576 641 653 q 730 398 730 500 q 727 345 730 371 q 720 296 724 318 l 197 296 l 197 430 l 533 430 q 515 506 533 474 q 465 555 496 538 q 391 572 433 572 q 298 546 336 572 q 238 473 259 519 q 218 370 218 427 q 243 259 218 307 q 313 185 268 212 q 417 159 358 159 q 484 167 450 159 q 547 186 518 174 q 592 212 575 198 l 659 52 q 554 7 617 24 q 420 -11 492 -11 m 211 777 l 129 876 l 372 1084 l 415 1084 l 659 876 l 576 777 l 397 934 l 391 934 l 211 777 z "},"ế":{"ha":766,"x_min":33,"x_max":846,"o":"m 420 -11 q 215 37 302 -11 q 81 169 128 85 q 33 363 33 254 q 83 563 33 478 q 214 693 132 647 q 394 740 296 740 q 565 696 488 740 q 686 576 641 653 q 730 398 730 500 q 727 345 730 371 q 720 296 724 318 l 197 296 l 197 430 l 533 430 q 515 506 533 474 q 465 555 496 538 q 391 572 433 572 q 298 546 336 572 q 238 473 259 519 q 218 370 218 427 q 243 259 218 307 q 313 185 268 212 q 417 159 358 159 q 484 167 450 159 q 547 186 518 174 q 592 212 575 198 l 659 52 q 554 7 617 24 q 420 -11 492 -11 m 615 984 l 522 1050 l 745 1276 l 846 1142 l 615 984 m 224 789 l 129 886 l 373 1053 l 414 1053 l 658 886 l 566 789 l 395 915 l 391 915 l 224 789 z "},"ệ":{"ha":766,"x_min":33,"x_max":730,"o":"m 420 -11 q 215 37 302 -11 q 81 169 128 85 q 33 363 33 254 q 83 563 33 478 q 214 693 132 647 q 394 740 296 740 q 565 696 488 740 q 686 576 641 653 q 730 398 730 500 q 727 345 730 371 q 720 296 724 318 l 197 296 l 197 430 l 533 430 q 515 506 533 474 q 465 555 496 538 q 391 572 433 572 q 298 546 336 572 q 238 473 259 519 q 218 370 218 427 q 243 259 218 307 q 313 185 268 212 q 417 159 358 159 q 484 167 450 159 q 547 186 518 174 q 592 212 575 198 l 659 52 q 554 7 617 24 q 420 -11 492 -11 m 399 -337 q 306 -299 344 -337 q 268 -207 268 -261 q 306 -114 268 -151 q 399 -76 344 -76 q 491 -114 454 -76 q 529 -207 529 -151 q 491 -299 529 -261 q 399 -337 454 -337 m 211 777 l 129 876 l 372 1084 l 415 1084 l 659 876 l 576 777 l 397 934 l 391 934 l 211 777 z "},"ề":{"ha":766,"x_min":-62,"x_max":732,"o":"m 418 -11 q 215 37 301 -11 q 81 168 128 84 q 33 363 33 252 q 83 563 33 478 q 215 694 132 648 q 396 741 297 741 q 570 696 494 741 q 689 574 646 652 q 732 398 732 497 q 729 338 732 368 q 722 294 726 309 l 200 294 l 200 427 l 533 427 q 515 506 533 473 q 465 556 497 538 q 391 574 433 574 q 298 546 337 574 q 239 472 259 518 q 218 370 218 425 q 244 259 218 306 q 316 186 271 212 q 420 160 361 160 q 488 168 454 160 q 550 186 522 175 q 591 209 578 198 l 657 51 q 555 7 618 24 q 418 -11 492 -11 m 170 984 l -62 1142 l 39 1276 l 262 1050 l 170 984 m 559 789 l 393 915 l 389 915 l 218 789 l 126 886 l 370 1053 l 412 1053 l 655 886 l 559 789 z "},"ể":{"ha":766,"x_min":33,"x_max":730,"o":"m 420 -11 q 215 37 302 -11 q 81 169 128 85 q 33 363 33 254 q 83 563 33 478 q 214 693 132 647 q 394 740 296 740 q 565 696 488 740 q 686 576 641 653 q 730 398 730 500 q 727 345 730 371 q 720 296 724 318 l 197 296 l 197 430 l 533 430 q 515 506 533 474 q 465 555 496 538 q 391 572 433 572 q 298 546 336 572 q 238 473 259 519 q 218 370 218 427 q 243 259 218 307 q 313 185 268 212 q 417 159 358 159 q 484 167 450 159 q 547 186 518 174 q 592 212 575 198 l 659 52 q 554 7 617 24 q 420 -11 492 -11 m 603 985 l 527 1042 q 562 1074 549 1058 q 575 1107 575 1090 q 558 1138 575 1127 q 506 1149 542 1149 q 472 1146 489 1149 q 435 1137 455 1143 l 435 1262 q 481 1273 450 1270 q 536 1276 511 1276 q 657 1242 612 1276 q 703 1137 703 1209 q 687 1072 703 1101 q 647 1020 671 1042 q 603 985 624 998 m 224 789 l 128 886 l 372 1053 l 414 1053 l 657 886 l 565 789 l 394 915 l 391 915 l 224 789 z "},"ễ":{"ha":766,"x_min":33,"x_max":730,"o":"m 420 -11 q 215 37 302 -11 q 81 169 128 85 q 33 363 33 254 q 83 563 33 478 q 214 693 132 647 q 394 740 296 740 q 565 696 488 740 q 686 576 641 653 q 730 398 730 500 q 727 345 730 371 q 720 296 724 318 l 197 296 l 197 430 l 533 430 q 515 506 533 474 q 465 555 496 538 q 391 572 433 572 q 298 546 336 572 q 238 473 259 519 q 218 370 218 427 q 243 259 218 307 q 313 185 268 212 q 417 159 358 159 q 484 167 450 159 q 547 186 518 174 q 592 212 575 198 l 659 52 q 554 7 617 24 q 420 -11 492 -11 m 134 1071 q 176 1219 132 1162 q 296 1276 219 1276 q 359 1265 334 1276 q 403 1238 385 1253 q 437 1211 421 1222 q 474 1199 454 1199 q 511 1220 498 1199 q 524 1276 524 1241 l 654 1276 q 640 1173 655 1219 q 590 1099 624 1126 q 506 1071 557 1071 q 442 1083 468 1071 q 398 1110 416 1095 q 365 1138 380 1126 q 329 1149 349 1149 q 282 1130 302 1149 q 262 1071 263 1110 l 134 1071 m 224 789 l 128 886 l 372 1053 l 414 1053 l 657 886 l 565 789 l 394 915 l 391 915 l 224 789 z "},"ȅ":{"ha":766,"x_min":33,"x_max":730,"o":"m 420 -11 q 215 37 302 -11 q 81 169 128 85 q 33 363 33 254 q 83 563 33 478 q 214 693 132 647 q 394 740 296 740 q 565 696 488 740 q 686 576 641 653 q 730 398 730 500 q 727 345 730 371 q 720 296 724 318 l 197 296 l 197 430 l 533 430 q 515 506 533 474 q 465 555 496 538 q 391 572 433 572 q 298 546 336 572 q 238 473 259 519 q 218 370 218 427 q 243 259 218 307 q 313 185 268 212 q 417 159 358 159 q 484 167 450 159 q 547 186 518 174 q 592 212 575 198 l 659 52 q 554 7 617 24 q 420 -11 492 -11 m 499 794 l 343 1029 l 488 1097 l 612 820 l 499 794 m 248 794 l 91 1029 l 233 1097 l 359 820 l 248 794 z "},"ë":{"ha":766,"x_min":33,"x_max":730,"o":"m 420 -11 q 215 37 302 -11 q 81 169 128 85 q 33 363 33 254 q 83 563 33 478 q 214 693 132 647 q 394 740 296 740 q 565 696 488 740 q 686 576 641 653 q 730 398 730 500 q 727 345 730 371 q 720 296 724 318 l 197 296 l 197 430 l 533 430 q 515 506 533 474 q 465 555 496 538 q 391 572 433 572 q 298 546 336 572 q 238 473 259 519 q 218 370 218 427 q 243 259 218 307 q 313 185 268 212 q 417 159 358 159 q 484 167 450 159 q 547 186 518 174 q 592 212 575 198 l 659 52 q 554 7 617 24 q 420 -11 492 -11 m 557 824 q 474 859 508 824 q 439 943 439 893 q 474 1027 439 993 q 557 1061 508 1061 q 642 1027 608 1061 q 676 943 676 993 q 642 859 676 893 q 557 824 608 824 m 229 824 q 145 859 180 824 q 111 943 111 893 q 145 1027 111 993 q 229 1061 180 1061 q 313 1027 279 1061 q 347 943 347 993 q 313 859 347 893 q 229 824 279 824 z "},"ė":{"ha":766,"x_min":33,"x_max":730,"o":"m 420 -11 q 215 37 302 -11 q 81 169 128 85 q 33 363 33 254 q 83 563 33 478 q 214 693 132 647 q 394 740 296 740 q 565 696 488 740 q 686 576 641 653 q 730 398 730 500 q 727 345 730 371 q 720 296 724 318 l 197 296 l 197 430 l 533 430 q 515 506 533 474 q 465 555 496 538 q 391 572 433 572 q 298 546 336 572 q 238 473 259 519 q 218 370 218 427 q 243 259 218 307 q 313 185 268 212 q 417 159 358 159 q 484 167 450 159 q 547 186 518 174 q 592 212 575 198 l 659 52 q 554 7 617 24 q 420 -11 492 -11 m 394 813 q 301 851 339 813 q 263 943 263 889 q 301 1037 263 999 q 394 1074 339 1074 q 487 1037 449 1074 q 524 943 524 999 q 487 851 524 889 q 394 813 449 813 z "},"ẹ":{"ha":766,"x_min":33,"x_max":730,"o":"m 420 -11 q 215 37 302 -11 q 81 169 128 85 q 33 363 33 254 q 83 563 33 478 q 214 693 132 647 q 394 740 296 740 q 565 696 488 740 q 686 576 641 653 q 730 398 730 500 q 727 345 730 371 q 720 296 724 318 l 197 296 l 197 430 l 533 430 q 515 506 533 474 q 465 555 496 538 q 391 572 433 572 q 298 546 336 572 q 238 473 259 519 q 218 370 218 427 q 243 259 218 307 q 313 185 268 212 q 417 159 358 159 q 484 167 450 159 q 547 186 518 174 q 592 212 575 198 l 659 52 q 554 7 617 24 q 420 -11 492 -11 m 399 -337 q 306 -299 344 -337 q 268 -207 268 -261 q 306 -114 268 -151 q 399 -76 344 -76 q 491 -114 454 -76 q 529 -207 529 -151 q 491 -299 529 -261 q 399 -337 454 -337 z "},"è":{"ha":766,"x_min":33,"x_max":730,"o":"m 420 -11 q 215 37 302 -11 q 81 169 128 85 q 33 363 33 254 q 83 563 33 478 q 214 693 132 647 q 394 740 296 740 q 565 696 488 740 q 686 576 641 653 q 730 398 730 500 q 727 345 730 371 q 720 296 724 318 l 197 296 l 197 430 l 533 430 q 515 506 533 474 q 465 555 496 538 q 391 572 433 572 q 298 546 336 572 q 238 473 259 519 q 218 370 218 427 q 243 259 218 307 q 313 185 268 212 q 417 159 358 159 q 484 167 450 159 q 547 186 518 174 q 592 212 575 198 l 659 52 q 554 7 617 24 q 420 -11 492 -11 m 395 784 l 165 1000 l 288 1118 l 486 860 l 395 784 z "},"ẻ":{"ha":766,"x_min":33,"x_max":730,"o":"m 420 -11 q 215 37 302 -11 q 81 169 128 85 q 33 363 33 254 q 83 563 33 478 q 214 693 132 647 q 394 740 296 740 q 565 696 488 740 q 686 576 641 653 q 730 398 730 500 q 727 345 730 371 q 720 296 724 318 l 197 296 l 197 430 l 533 430 q 515 506 533 474 q 465 555 496 538 q 391 572 433 572 q 298 546 336 572 q 238 473 259 519 q 218 370 218 427 q 243 259 218 307 q 313 185 268 212 q 417 159 358 159 q 484 167 450 159 q 547 186 518 174 q 592 212 575 198 l 659 52 q 554 7 617 24 q 420 -11 492 -11 m 418 782 l 342 857 q 378 886 362 868 q 395 924 395 905 q 375 953 395 943 q 323 962 356 962 q 290 960 308 962 q 254 950 272 957 l 254 1074 q 299 1086 269 1082 q 354 1090 329 1090 q 478 1055 432 1090 q 524 952 524 1019 q 491 846 524 892 q 418 782 458 800 z "},"ȇ":{"ha":766,"x_min":33,"x_max":732,"o":"m 418 -11 q 215 37 301 -11 q 81 168 128 84 q 33 363 33 252 q 83 563 33 478 q 215 694 132 648 q 396 741 297 741 q 570 696 494 741 q 689 574 646 652 q 732 398 732 497 q 729 338 732 368 q 722 294 726 309 l 200 294 l 200 427 l 533 427 q 515 506 533 473 q 465 556 497 538 q 391 574 433 574 q 298 546 337 574 q 239 472 259 518 q 218 370 218 425 q 244 259 218 306 q 316 186 271 212 q 420 160 361 160 q 488 168 454 160 q 550 186 522 175 q 591 209 578 198 l 657 51 q 555 7 618 24 q 418 -11 492 -11 m 394 1046 q 527 1016 467 1046 q 620 932 586 985 q 654 814 654 880 l 524 814 q 486 897 524 863 q 394 930 449 930 q 301 897 339 930 q 262 814 263 863 l 132 814 q 166 932 132 880 q 260 1016 201 985 q 394 1046 319 1046 z "},"ē":{"ha":766,"x_min":33,"x_max":730,"o":"m 420 -11 q 215 37 302 -11 q 81 169 128 85 q 33 363 33 254 q 83 563 33 478 q 214 693 132 647 q 394 740 296 740 q 565 696 488 740 q 686 576 641 653 q 730 398 730 500 q 727 345 730 371 q 720 296 724 318 l 197 296 l 197 430 l 533 430 q 515 506 533 474 q 465 555 496 538 q 391 572 433 572 q 298 546 336 572 q 238 473 259 519 q 218 370 218 427 q 243 259 218 307 q 313 185 268 212 q 417 159 358 159 q 484 167 450 159 q 547 186 518 174 q 592 212 575 198 l 659 52 q 554 7 617 24 q 420 -11 492 -11 m 113 849 l 113 979 l 673 979 l 673 849 l 113 849 z "},"ḗ":{"ha":766,"x_min":33,"x_max":730,"o":"m 420 -11 q 215 37 302 -11 q 81 169 128 85 q 33 363 33 254 q 83 563 33 478 q 214 693 132 647 q 394 740 296 740 q 565 696 488 740 q 686 576 641 653 q 730 398 730 500 q 727 345 730 371 q 720 296 724 318 l 197 296 l 197 430 l 533 430 q 515 506 533 474 q 465 555 496 538 q 391 572 433 572 q 298 546 336 572 q 238 473 259 519 q 218 370 218 427 q 243 259 218 307 q 313 185 268 212 q 417 159 358 159 q 484 167 450 159 q 547 186 518 174 q 592 212 575 198 l 659 52 q 554 7 617 24 q 420 -11 492 -11 m 113 849 l 113 979 l 673 979 l 673 849 l 113 849 m 393 1043 l 302 1120 l 503 1377 l 623 1260 l 393 1043 z "},"ḕ":{"ha":766,"x_min":33,"x_max":730,"o":"m 420 -11 q 215 37 302 -11 q 81 169 128 85 q 33 363 33 254 q 83 563 33 478 q 214 693 132 647 q 394 740 296 740 q 565 696 488 740 q 686 576 641 653 q 730 398 730 500 q 727 345 730 371 q 720 296 724 318 l 197 296 l 197 430 l 533 430 q 515 506 533 474 q 465 555 496 538 q 391 572 433 572 q 298 546 336 572 q 238 473 259 519 q 218 370 218 427 q 243 259 218 307 q 313 185 268 212 q 417 159 358 159 q 484 167 450 159 q 547 186 518 174 q 592 212 575 198 l 659 52 q 554 7 617 24 q 420 -11 492 -11 m 113 849 l 113 979 l 673 979 l 673 849 l 113 849 m 395 1043 l 165 1259 l 288 1377 l 486 1119 l 395 1043 z "},"ę":{"ha":766,"x_min":33,"x_max":730,"o":"m 420 -11 q 215 37 302 -11 q 81 169 128 85 q 33 363 33 254 q 83 563 33 478 q 214 693 132 647 q 394 740 296 740 q 565 696 488 740 q 686 576 641 653 q 730 398 730 500 q 727 345 730 371 q 720 296 724 318 l 197 296 l 197 430 l 533 430 q 515 506 533 474 q 465 555 496 538 q 391 572 433 572 q 298 546 336 572 q 238 473 259 519 q 218 370 218 427 q 243 259 218 307 q 313 185 268 212 q 417 159 358 159 q 484 167 450 159 q 547 186 518 174 q 592 212 575 198 l 659 52 q 554 7 617 24 q 420 -11 492 -11 m 549 -242 q 437 -204 480 -242 q 394 -104 394 -167 q 435 -2 394 -46 q 546 85 477 42 l 656 51 q 592 7 621 28 q 544 -35 562 -14 q 525 -79 525 -56 q 541 -111 525 -100 q 586 -122 556 -122 q 627 -117 606 -122 q 660 -106 649 -113 l 660 -224 q 607 -237 640 -233 q 549 -242 573 -242 z "},"ẽ":{"ha":766,"x_min":33,"x_max":730,"o":"m 420 -11 q 215 37 302 -11 q 81 169 128 85 q 33 363 33 254 q 83 563 33 478 q 214 693 132 647 q 394 740 296 740 q 565 696 488 740 q 686 576 641 653 q 730 398 730 500 q 727 345 730 371 q 720 296 724 318 l 197 296 l 197 430 l 533 430 q 515 506 533 474 q 465 555 496 538 q 391 572 433 572 q 298 546 336 572 q 238 473 259 519 q 218 370 218 427 q 243 259 218 307 q 313 185 268 212 q 417 159 358 159 q 484 167 450 159 q 547 186 518 174 q 592 212 575 198 l 659 52 q 554 7 617 24 q 420 -11 492 -11 m 125 814 q 171 975 125 916 q 292 1034 218 1034 q 358 1020 332 1034 q 404 988 385 1006 q 439 956 422 970 q 475 942 455 942 q 513 968 501 942 q 525 1034 525 995 l 659 1034 q 614 874 661 935 q 492 814 568 814 q 427 828 452 814 q 382 861 401 842 q 346 893 363 879 q 309 907 330 907 q 272 881 283 907 q 259 814 260 854 l 125 814 z "},"ə":{"ha":766,"x_min":34,"x_max":733,"o":"m 348 741 q 552 693 465 741 q 686 562 638 646 q 733 367 733 477 q 684 167 733 252 q 552 36 634 82 q 370 -11 469 -11 q 197 34 273 -11 q 77 155 121 78 q 34 332 34 232 q 37 392 34 363 q 45 435 41 421 l 566 435 l 566 302 l 233 302 q 251 223 233 256 q 301 173 269 191 q 374 156 333 156 q 468 184 429 156 q 527 258 507 212 q 548 360 548 304 q 522 470 548 423 q 450 543 496 517 q 347 569 404 569 q 278 562 313 569 q 216 543 244 554 q 175 521 189 532 l 109 678 q 212 723 149 705 q 348 741 275 741 z "},"f":{"ha":575,"x_min":14,"x_max":573,"o":"m 14 547 l 14 730 l 538 730 l 538 547 l 14 547 m 149 0 l 149 795 q 215 990 149 915 q 425 1066 281 1066 q 509 1060 467 1066 q 573 1042 551 1053 l 503 868 q 474 875 488 873 q 446 878 460 878 q 386 856 409 878 q 363 788 363 834 l 363 0 l 149 0 z "},"g":{"ha":835,"x_min":34,"x_max":767,"o":"m 380 -296 q 214 -274 290 -296 q 95 -229 138 -252 l 165 -60 q 254 -100 203 -83 q 357 -117 304 -117 q 450 -102 401 -117 q 532 -55 498 -87 q 566 30 566 -22 l 566 100 l 543 100 l 575 170 l 575 580 l 523 659 l 572 659 l 572 730 l 767 730 l 767 42 q 739 -104 767 -41 q 658 -210 710 -168 q 536 -274 606 -253 q 380 -296 465 -296 m 354 14 q 239 36 296 14 q 136 103 182 58 q 62 216 90 148 q 34 375 34 283 q 82 578 34 497 q 205 700 130 659 q 361 741 280 741 q 527 693 456 741 q 637 565 597 645 q 676 387 676 484 q 634 201 676 286 q 519 65 592 116 q 354 14 447 14 m 407 188 q 493 212 456 188 q 552 280 530 237 q 574 382 574 324 q 553 482 574 440 q 495 546 532 524 q 410 568 458 568 q 324 546 362 568 q 265 481 286 523 q 243 382 243 439 q 264 281 243 325 q 322 213 286 237 q 407 188 359 188 z "},"ǵ":{"ha":834,"x_min":34,"x_max":767,"o":"m 380 -296 q 214 -274 290 -296 q 95 -229 138 -252 l 165 -60 q 254 -100 203 -83 q 357 -117 304 -117 q 450 -102 401 -117 q 532 -55 498 -87 q 566 30 566 -22 l 566 100 l 543 100 l 575 170 l 575 580 l 523 659 l 572 659 l 572 730 l 767 730 l 767 42 q 739 -104 767 -41 q 658 -210 710 -168 q 536 -274 606 -253 q 380 -296 465 -296 m 354 14 q 239 36 296 14 q 136 103 182 58 q 62 216 90 148 q 34 375 34 283 q 82 578 34 497 q 205 700 130 659 q 361 741 280 741 q 527 693 456 741 q 637 565 597 645 q 676 387 676 484 q 634 201 676 286 q 519 65 592 116 q 354 14 447 14 m 407 188 q 493 212 456 188 q 552 280 530 237 q 574 382 574 324 q 553 482 574 440 q 495 546 532 524 q 410 568 458 568 q 324 546 362 568 q 265 481 286 523 q 243 382 243 439 q 264 281 243 325 q 322 213 286 237 q 407 188 359 188 m 399 784 l 309 861 l 509 1118 l 629 1001 l 399 784 z "},"ğ":{"ha":834,"x_min":34,"x_max":767,"o":"m 380 -296 q 214 -274 290 -296 q 95 -229 138 -252 l 165 -60 q 254 -100 203 -83 q 357 -117 304 -117 q 450 -102 401 -117 q 532 -55 498 -87 q 566 30 566 -22 l 566 100 l 543 100 l 575 170 l 575 580 l 523 659 l 572 659 l 572 730 l 767 730 l 767 42 q 739 -104 767 -41 q 658 -210 710 -168 q 536 -274 606 -253 q 380 -296 465 -296 m 354 14 q 239 36 296 14 q 136 103 182 58 q 62 216 90 148 q 34 375 34 283 q 82 578 34 497 q 205 700 130 659 q 361 741 280 741 q 527 693 456 741 q 637 565 597 645 q 676 387 676 484 q 634 201 676 286 q 519 65 592 116 q 354 14 447 14 m 407 188 q 493 212 456 188 q 552 280 530 237 q 574 382 574 324 q 553 482 574 440 q 495 546 532 524 q 410 568 458 568 q 324 546 362 568 q 265 481 286 523 q 243 382 243 439 q 264 281 243 325 q 322 213 286 237 q 407 188 359 188 m 399 809 q 266 840 326 809 q 172 923 207 871 q 138 1042 138 976 l 268 1042 q 307 959 269 992 q 399 925 345 925 q 492 959 455 925 q 530 1042 530 992 l 660 1042 q 626 924 661 976 q 533 840 592 871 q 399 809 473 809 z "},"ǧ":{"ha":834,"x_min":33,"x_max":766,"o":"m 380 -296 q 214 -274 290 -296 q 94 -229 138 -252 l 165 -61 q 255 -100 205 -84 q 357 -117 304 -117 q 451 -102 402 -117 q 532 -54 499 -87 q 566 30 566 -22 l 566 102 l 544 102 l 576 171 l 576 578 l 523 658 l 572 658 l 572 730 l 766 730 l 766 42 q 738 -104 766 -41 q 657 -210 709 -168 q 535 -274 606 -253 q 380 -296 465 -296 m 351 14 q 237 36 294 14 q 134 102 180 58 q 61 215 88 146 q 33 376 33 283 q 81 579 33 498 q 203 701 128 661 q 359 741 277 741 q 524 694 453 741 q 635 566 595 646 q 675 387 675 485 q 632 201 675 286 q 517 65 590 117 q 351 14 444 14 m 406 189 q 492 213 454 189 q 552 281 530 237 q 573 382 573 325 q 552 482 573 441 q 494 546 531 524 q 410 568 458 568 q 323 546 361 568 q 264 482 286 524 q 243 382 243 440 q 264 281 243 324 q 321 213 285 237 q 406 189 358 189 m 217 1095 l 397 937 l 403 937 l 583 1095 l 665 995 l 421 787 l 378 787 l 135 995 l 217 1095 z "},"ĝ":{"ha":834,"x_min":34,"x_max":767,"o":"m 380 -296 q 214 -274 290 -296 q 95 -229 138 -252 l 165 -60 q 254 -100 203 -83 q 357 -117 304 -117 q 450 -102 401 -117 q 532 -55 498 -87 q 566 30 566 -22 l 566 100 l 543 100 l 575 170 l 575 580 l 523 659 l 572 659 l 572 730 l 767 730 l 767 42 q 739 -104 767 -41 q 658 -210 710 -168 q 536 -274 606 -253 q 380 -296 465 -296 m 354 14 q 239 36 296 14 q 136 103 182 58 q 62 216 90 148 q 34 375 34 283 q 82 578 34 497 q 205 700 130 659 q 361 741 280 741 q 527 693 456 741 q 637 565 597 645 q 676 387 676 484 q 634 201 676 286 q 519 65 592 116 q 354 14 447 14 m 407 188 q 493 212 456 188 q 552 280 530 237 q 574 382 574 324 q 553 482 574 440 q 495 546 532 524 q 410 568 458 568 q 324 546 362 568 q 265 481 286 523 q 243 382 243 439 q 264 281 243 325 q 322 213 286 237 q 407 188 359 188 m 217 777 l 135 876 l 378 1084 l 421 1084 l 665 876 l 583 777 l 403 934 l 397 934 l 217 777 z "},"ģ":{"ha":834,"x_min":33,"x_max":766,"o":"m 380 -296 q 214 -274 290 -296 q 94 -229 138 -252 l 165 -61 q 255 -100 205 -84 q 357 -117 304 -117 q 451 -102 402 -117 q 532 -54 499 -87 q 566 30 566 -22 l 566 102 l 544 102 l 576 171 l 576 578 l 523 658 l 572 658 l 572 730 l 766 730 l 766 42 q 738 -104 766 -41 q 657 -210 709 -168 q 535 -274 606 -253 q 380 -296 465 -296 m 351 14 q 237 36 294 14 q 134 102 180 58 q 61 215 88 146 q 33 376 33 283 q 81 579 33 498 q 203 701 128 661 q 359 741 277 741 q 524 694 453 741 q 635 566 595 646 q 675 387 675 485 q 632 201 675 286 q 517 65 590 117 q 351 14 444 14 m 406 189 q 492 213 454 189 q 552 281 530 237 q 573 382 573 325 q 552 482 573 441 q 494 546 531 524 q 410 568 458 568 q 323 546 361 568 q 264 482 286 524 q 243 382 243 440 q 264 281 243 324 q 321 213 285 237 q 406 189 358 189 m 461 1164 l 503 1111 l 438 1060 q 413 1037 428 1052 q 386 1003 397 1021 q 375 970 375 985 l 349 970 q 362 1001 350 987 q 401 1015 375 1015 q 464 989 434 1015 q 495 921 494 964 q 466 855 494 880 q 401 830 438 829 q 332 856 361 829 q 303 935 303 882 q 319 1010 303 977 q 355 1068 334 1044 q 392 1105 376 1092 l 461 1164 z "},"ġ":{"ha":834,"x_min":34,"x_max":767,"o":"m 380 -296 q 214 -274 290 -296 q 95 -229 138 -252 l 165 -60 q 254 -100 203 -83 q 357 -117 304 -117 q 450 -102 401 -117 q 532 -55 498 -87 q 566 30 566 -22 l 566 100 l 543 100 l 575 170 l 575 580 l 523 659 l 572 659 l 572 730 l 767 730 l 767 42 q 739 -104 767 -41 q 658 -210 710 -168 q 536 -274 606 -253 q 380 -296 465 -296 m 354 14 q 239 36 296 14 q 136 103 182 58 q 62 216 90 148 q 34 375 34 283 q 82 578 34 497 q 205 700 130 659 q 361 741 280 741 q 527 693 456 741 q 637 565 597 645 q 676 387 676 484 q 634 201 676 286 q 519 65 592 116 q 354 14 447 14 m 407 188 q 493 212 456 188 q 552 280 530 237 q 574 382 574 324 q 553 482 574 440 q 495 546 532 524 q 410 568 458 568 q 324 546 362 568 q 265 481 286 523 q 243 382 243 439 q 264 281 243 325 q 322 213 286 237 q 407 188 359 188 m 400 813 q 307 851 345 813 q 269 943 269 889 q 307 1037 269 999 q 400 1074 345 1074 q 493 1037 455 1074 q 530 943 530 999 q 493 851 530 889 q 400 813 455 813 z "},"ḡ":{"ha":834,"x_min":34,"x_max":767,"o":"m 380 -296 q 214 -274 290 -296 q 95 -229 138 -252 l 165 -60 q 254 -100 203 -83 q 357 -117 304 -117 q 450 -102 401 -117 q 532 -55 498 -87 q 566 30 566 -22 l 566 100 l 543 100 l 575 170 l 575 580 l 523 659 l 572 659 l 572 730 l 767 730 l 767 42 q 739 -104 767 -41 q 658 -210 710 -168 q 536 -274 606 -253 q 380 -296 465 -296 m 354 14 q 239 36 296 14 q 136 103 182 58 q 62 216 90 148 q 34 375 34 283 q 82 578 34 497 q 205 700 130 659 q 361 741 280 741 q 527 693 456 741 q 637 565 597 645 q 676 387 676 484 q 634 201 676 286 q 519 65 592 116 q 354 14 447 14 m 407 188 q 493 212 456 188 q 552 280 530 237 q 574 382 574 324 q 553 482 574 440 q 495 546 532 524 q 410 568 458 568 q 324 546 362 568 q 265 481 286 523 q 243 382 243 439 q 264 281 243 325 q 322 213 286 237 q 407 188 359 188 m 119 849 l 119 979 l 680 979 l 680 849 l 119 849 z "},"h":{"ha":801,"x_min":68,"x_max":738,"o":"m 68 0 l 68 1044 l 282 1044 l 282 663 l 321 663 l 249 587 q 298 673 261 639 q 386 724 335 707 q 491 741 436 741 q 627 707 572 741 q 710 614 682 673 q 738 478 738 555 l 738 0 l 524 0 l 524 431 q 492 530 524 498 q 408 563 460 563 q 344 548 372 563 q 299 503 316 532 q 282 429 282 473 l 282 0 l 68 0 z "},"ħ":{"ha":801,"x_min":-45,"x_max":738,"o":"m 68 0 l 68 1044 l 282 1044 l 282 663 l 321 663 l 249 587 q 298 673 261 639 q 386 724 335 707 q 491 741 436 741 q 627 707 572 741 q 710 614 682 673 q 738 478 738 555 l 738 0 l 524 0 l 524 431 q 492 530 524 498 q 408 563 460 563 q 344 548 372 563 q 299 503 316 532 q 282 429 282 473 l 282 0 l 68 0 m -45 819 l -45 933 l 399 933 l 399 819 l -45 819 z "},"ḫ":{"ha":801,"x_min":68,"x_max":738,"o":"m 68 0 l 68 1044 l 282 1044 l 282 663 l 321 663 l 249 587 q 298 673 261 639 q 386 724 335 707 q 491 741 436 741 q 627 707 572 741 q 710 614 682 673 q 738 478 738 555 l 738 0 l 524 0 l 524 431 q 492 530 524 498 q 408 563 460 563 q 344 548 372 563 q 299 503 316 532 q 282 429 282 473 l 282 0 l 68 0 m 403 -313 q 270 -282 329 -313 q 176 -198 210 -251 q 141 -80 141 -146 l 271 -80 q 310 -163 273 -130 q 403 -197 348 -197 q 496 -163 458 -197 q 533 -80 533 -130 l 663 -80 q 630 -198 664 -146 q 536 -281 595 -250 q 403 -313 477 -313 z "},"ĥ":{"ha":801,"x_min":-90,"x_max":738,"o":"m 68 0 l 68 1044 l 282 1044 l 282 663 l 321 663 l 249 587 q 298 673 261 639 q 386 724 335 707 q 491 741 436 741 q 627 707 572 741 q 710 614 682 673 q 738 478 738 555 l 738 0 l 524 0 l 524 431 q 492 530 524 498 q 408 563 460 563 q 344 548 372 563 q 299 503 316 532 q 282 429 282 473 l 282 0 l 68 0 m 5 1092 l -90 1191 l 154 1358 l 195 1358 l 439 1191 l 347 1092 l 176 1218 l 172 1218 l 5 1092 z "},"ḥ":{"ha":801,"x_min":68,"x_max":738,"o":"m 68 0 l 68 1044 l 282 1044 l 282 663 l 321 663 l 249 587 q 298 673 261 639 q 386 724 335 707 q 491 741 436 741 q 627 707 572 741 q 710 614 682 673 q 738 478 738 555 l 738 0 l 524 0 l 524 431 q 492 530 524 498 q 408 563 460 563 q 344 548 372 563 q 299 503 316 532 q 282 429 282 473 l 282 0 l 68 0 m 404 -337 q 311 -299 349 -337 q 273 -207 273 -261 q 311 -114 273 -151 q 404 -76 349 -76 q 496 -114 458 -76 q 534 -207 534 -151 q 496 -299 534 -261 q 404 -337 458 -337 z "},"i":{"ha":357,"x_min":48,"x_max":309,"o":"m 71 0 l 71 730 l 286 730 l 286 0 l 71 0 m 179 813 q 86 851 124 813 q 48 943 48 889 q 86 1037 48 999 q 179 1074 124 1074 q 272 1037 234 1074 q 309 943 309 999 q 272 851 309 889 q 179 813 234 813 z "},"ı":{"ha":357,"x_min":71,"x_max":286,"o":"m 71 0 l 71 730 l 286 730 l 286 0 l 71 0 z "},"í":{"ha":392,"x_min":71,"x_max":407,"o":"m 71 0 l 71 730 l 286 730 l 286 0 l 71 0 m 178 784 l 87 861 l 288 1118 l 408 1001 l 178 784 z "},"ĭ":{"ha":446,"x_min":-39,"x_max":484,"o":"m 116 0 l 116 730 l 330 730 l 330 0 l 116 0 m 223 809 q 90 840 149 809 q -4 923 31 871 q -39 1042 -39 976 l 92 1042 q 131 959 93 992 q 223 925 168 925 q 316 959 279 925 q 353 1042 353 992 l 484 1042 q 450 924 484 976 q 356 840 416 871 q 223 809 297 809 z "},"ǐ":{"ha":446,"x_min":-41,"x_max":488,"o":"m 116 0 l 116 730 l 330 730 l 330 0 l 116 0 m 40 1095 l 220 937 l 226 937 l 406 1095 l 488 995 l 245 787 l 202 787 l -41 995 l 40 1095 z "},"î":{"ha":446,"x_min":-41,"x_max":488,"o":"m 116 0 l 116 730 l 330 730 l 330 0 l 116 0 m 41 777 l -41 876 l 202 1084 l 245 1084 l 488 876 l 406 777 l 227 934 l 221 934 l 41 777 z "},"ȉ":{"ha":391,"x_min":-106,"x_max":414,"o":"m 89 0 l 89 730 l 303 730 l 303 0 l 89 0 m 302 794 l 146 1029 l 291 1097 l 414 820 l 302 794 m 50 794 l -106 1029 l 36 1097 l 162 820 l 50 794 z "},"ï":{"ha":490,"x_min":-37,"x_max":528,"o":"m 138 0 l 138 730 l 352 730 l 352 0 l 138 0 m 409 824 q 325 859 359 824 q 291 943 291 893 q 325 1027 291 993 q 409 1061 359 1061 q 494 1027 460 1061 q 528 943 528 993 q 494 859 528 893 q 409 824 460 824 m 81 824 q -3 859 31 824 q -38 943 -38 893 q -3 1027 -38 993 q 81 1061 31 1061 q 165 1027 131 1061 q 199 943 199 993 q 165 859 199 893 q 81 824 131 824 z "},"ḯ":{"ha":490,"x_min":-37,"x_max":528,"o":"m 138 0 l 138 730 l 352 730 l 352 0 l 138 0 m 409 824 q 325 859 359 824 q 291 943 291 893 q 325 1027 291 993 q 409 1061 359 1061 q 494 1027 460 1061 q 528 943 528 993 q 494 859 528 893 q 409 824 460 824 m 81 824 q -3 859 31 824 q -38 943 -38 893 q -3 1027 -38 993 q 81 1061 31 1061 q 165 1027 131 1061 q 199 943 199 993 q 165 859 199 893 q 81 824 131 824 m 245 1071 l 154 1147 l 354 1404 l 474 1288 l 245 1071 z "},"ị":{"ha":357,"x_min":48,"x_max":310,"o":"m 71 0 l 71 730 l 286 730 l 286 0 l 71 0 m 179 813 q 86 851 124 813 q 48 943 48 889 q 86 1037 48 999 q 179 1074 124 1074 q 272 1037 234 1074 q 309 943 309 999 q 272 851 309 889 q 179 813 234 813 m 180 -337 q 87 -299 125 -337 q 49 -207 49 -261 q 87 -114 49 -151 q 180 -76 125 -76 q 272 -114 235 -76 q 310 -207 310 -151 q 272 -299 310 -261 q 180 -337 235 -337 z "},"ì":{"ha":374,"x_min":-32,"x_max":303,"o":"m 89 0 l 89 730 l 303 730 l 303 0 l 89 0 m 198 784 l -32 1000 l 90 1118 l 288 860 l 198 784 z "},"ỉ":{"ha":357,"x_min":39,"x_max":308,"o":"m 71 0 l 71 730 l 286 730 l 286 0 l 71 0 m 203 782 l 127 857 q 163 886 146 868 q 179 924 179 905 q 160 953 179 943 q 108 962 140 962 q 74 960 92 962 q 39 950 56 957 l 39 1074 q 83 1086 54 1082 q 138 1090 113 1090 q 262 1055 216 1090 q 308 952 308 1019 q 275 846 308 892 q 203 782 242 800 z "},"ȋ":{"ha":446,"x_min":-39,"x_max":484,"o":"m 116 0 l 116 730 l 330 730 l 330 0 l 116 0 m 223 1046 q 356 1016 297 1046 q 450 932 415 985 q 484 814 484 880 l 353 814 q 316 897 353 863 q 223 930 279 930 q 131 897 168 930 q 92 814 93 863 l -39 814 q -4 932 -39 880 q 90 1016 31 985 q 223 1046 149 1046 z "},"ī":{"ha":446,"x_min":-15,"x_max":462,"o":"m 116 0 l 116 730 l 330 730 l 330 0 l 116 0 m -15 849 l -15 979 l 462 979 l 462 849 l -15 849 z "},"į":{"ha":357,"x_min":22,"x_max":309,"o":"m 71 0 l 71 730 l 286 730 l 286 0 l 71 0 m 179 813 q 86 851 124 813 q 48 943 48 889 q 86 1037 48 999 q 179 1074 124 1074 q 272 1037 234 1074 q 309 943 309 999 q 272 851 309 889 q 179 813 234 813 m 177 -293 q 65 -255 109 -293 q 22 -155 22 -218 q 64 -53 22 -97 q 174 34 105 -9 l 284 0 q 220 -43 250 -22 q 172 -86 191 -64 q 153 -130 153 -107 q 169 -162 153 -151 q 214 -173 184 -173 q 256 -168 234 -173 q 288 -157 277 -163 l 288 -275 q 235 -288 269 -283 q 177 -293 201 -293 z "},"ĩ":{"ha":446,"x_min":-46,"x_max":490,"o":"m 116 0 l 116 730 l 330 730 l 330 0 l 116 0 m -46 814 q 0 975 -46 916 q 121 1034 47 1034 q 188 1020 161 1034 q 233 988 214 1006 q 268 956 252 970 q 304 942 284 942 q 342 968 330 942 q 354 1034 354 995 l 488 1034 q 443 874 490 935 q 321 814 397 814 q 256 828 281 814 q 211 861 230 842 q 175 893 192 879 q 138 907 159 907 q 101 881 113 907 q 88 814 90 854 l -46 814 z "},"j":{"ha":385,"x_min":-48,"x_max":336,"o":"m 50 -300 q 0 -297 26 -300 q -48 -290 -26 -294 l -48 -98 q -15 -106 -33 -104 q 17 -109 3 -109 q 80 -88 61 -109 q 98 -34 98 -67 l 98 730 l 313 730 l 313 -24 q 284 -165 313 -103 q 198 -264 256 -228 q 50 -300 139 -300 m 205 813 q 112 851 150 813 q 74 943 74 889 q 112 1037 74 999 q 205 1074 150 1074 q 297 1037 260 1074 q 335 943 335 999 q 297 851 335 889 q 205 813 260 813 z "},"ȷ":{"ha":385,"x_min":-48,"x_max":313,"o":"m 50 -300 q 0 -297 26 -300 q -48 -290 -26 -294 l -48 -98 q -15 -106 -33 -104 q 17 -109 3 -109 q 80 -88 61 -109 q 98 -34 98 -67 l 98 730 l 313 730 l 313 -24 q 284 -165 313 -103 q 198 -264 256 -228 q 50 -300 139 -300 z "},"ĵ":{"ha":437,"x_min":-60,"x_max":469,"o":"m 50 -300 q 0 -297 26 -300 q -48 -290 -26 -294 l -48 -98 q -15 -106 -33 -104 q 17 -109 3 -109 q 80 -88 61 -109 q 98 -34 98 -67 l 98 730 l 313 730 l 313 -24 q 284 -165 313 -103 q 198 -264 256 -228 q 50 -300 139 -300 m 22 777 l -60 876 l 183 1084 l 226 1084 l 469 876 l 387 777 l 208 934 l 202 934 l 22 777 z "},"k":{"ha":796,"x_min":68,"x_max":800,"o":"m 68 0 l 68 1044 l 282 1044 l 282 443 l 340 443 l 273 408 l 532 730 l 785 730 l 433 320 l 433 444 l 800 0 l 547 0 l 271 347 l 340 312 l 282 312 l 282 0 l 68 0 z "}}}
